<svg width="372" height="123" viewBox="0 0 372 123" fill="none" xmlns="http://www.w3.org/2000/svg">
<rect width="372" height="123" rx="25" fill="#82A8F3"/>
<path d="M21.5583 21.4439H28.0563V22.9919H21.5583V21.4439ZM21.7383 28.0859H19.9383V15.4859H28.8303V17.0519H21.7383V28.0859ZM34.8993 28.1939C33.9393 28.1939 33.0873 27.9839 32.3433 27.5639C31.5993 27.1439 31.0113 26.5679 30.5793 25.8359C30.1473 25.0919 29.9313 24.2519 29.9313 23.3159C29.9313 22.3679 30.1473 21.5279 30.5793 20.7959C31.0113 20.0639 31.5993 19.4939 32.3433 19.0859C33.0873 18.6659 33.9393 18.4559 34.8993 18.4559C35.8473 18.4559 36.6933 18.6659 37.4373 19.0859C38.1933 19.4939 38.7813 20.0639 39.2013 20.7959C39.6333 21.5159 39.8493 22.3559 39.8493 23.3159C39.8493 24.2639 39.6333 25.1039 39.2013 25.8359C38.7813 26.5679 38.1933 27.1439 37.4373 27.5639C36.6933 27.9839 35.8473 28.1939 34.8993 28.1939ZM34.8993 26.6819C35.5113 26.6819 36.0573 26.5439 36.5373 26.2679C37.0293 25.9919 37.4133 25.6019 37.6893 25.0979C37.9653 24.5819 38.1033 23.9879 38.1033 23.3159C38.1033 22.6319 37.9653 22.0439 37.6893 21.5519C37.4133 21.0479 37.0293 20.6579 36.5373 20.3819C36.0573 20.1059 35.5113 19.9679 34.8993 19.9679C34.2873 19.9679 33.7413 20.1059 33.2613 20.3819C32.7813 20.6579 32.3973 21.0479 32.1093 21.5519C31.8213 22.0439 31.6773 22.6319 31.6773 23.3159C31.6773 23.9879 31.8213 24.5819 32.1093 25.0979C32.3973 25.6019 32.7813 25.9919 33.2613 26.2679C33.7413 26.5439 34.2873 26.6819 34.8993 26.6819ZM42.2391 28.0859V18.5459H43.8951V21.1379L43.7331 20.4899C43.9971 19.8299 44.4411 19.3259 45.0651 18.9779C45.6891 18.6299 46.4571 18.4559 47.3691 18.4559V20.1299C47.2971 20.1179 47.2251 20.1119 47.1531 20.1119C47.0931 20.1119 47.0331 20.1119 46.9731 20.1119C46.0491 20.1119 45.3171 20.3879 44.7771 20.9399C44.2371 21.4919 43.9671 22.2899 43.9671 23.3339V28.0859H42.2391ZM49.4988 28.0859V14.7299H51.2268V28.0859H49.4988ZM58.6122 28.1939C57.6522 28.1939 56.8002 27.9839 56.0562 27.5639C55.3122 27.1439 54.7242 26.5679 54.2922 25.8359C53.8602 25.0919 53.6442 24.2519 53.6442 23.3159C53.6442 22.3679 53.8602 21.5279 54.2922 20.7959C54.7242 20.0639 55.3122 19.4939 56.0562 19.0859C56.8002 18.6659 57.6522 18.4559 58.6122 18.4559C59.5602 18.4559 60.4062 18.6659 61.1502 19.0859C61.9062 19.4939 62.4942 20.0639 62.9142 20.7959C63.3462 21.5159 63.5622 22.3559 63.5622 23.3159C63.5622 24.2639 63.3462 25.1039 62.9142 25.8359C62.4942 26.5679 61.9062 27.1439 61.1502 27.5639C60.4062 27.9839 59.5602 28.1939 58.6122 28.1939ZM58.6122 26.6819C59.2242 26.6819 59.7702 26.5439 60.2502 26.2679C60.7422 25.9919 61.1262 25.6019 61.4022 25.0979C61.6782 24.5819 61.8162 23.9879 61.8162 23.3159C61.8162 22.6319 61.6782 22.0439 61.4022 21.5519C61.1262 21.0479 60.7422 20.6579 60.2502 20.3819C59.7702 20.1059 59.2242 19.9679 58.6122 19.9679C58.0002 19.9679 57.4542 20.1059 56.9742 20.3819C56.4942 20.6579 56.1102 21.0479 55.8222 21.5519C55.5342 22.0439 55.3902 22.6319 55.3902 23.3159C55.3902 23.9879 55.5342 24.5819 55.8222 25.0979C56.1102 25.6019 56.4942 25.9919 56.9742 26.2679C57.4542 26.5439 58.0002 26.6819 58.6122 26.6819ZM54.0762 29.3639L62.0142 17.3219H63.0762L55.1562 29.3639H54.0762ZM71.01 28.1939C70.194 28.1939 69.456 28.0139 68.796 27.6539C68.148 27.2819 67.632 26.7359 67.248 26.0159C66.876 25.2959 66.69 24.3959 66.69 23.3159C66.69 22.2359 66.882 21.3359 67.266 20.6159C67.662 19.8959 68.184 19.3559 68.832 18.9959C69.492 18.6359 70.218 18.4559 71.01 18.4559C71.946 18.4559 72.774 18.6599 73.494 19.0679C74.214 19.4759 74.784 20.0459 75.204 20.7779C75.624 21.4979 75.834 22.3439 75.834 23.3159C75.834 24.2879 75.624 25.1399 75.204 25.8719C74.784 26.6039 74.214 27.1739 73.494 27.5819C72.774 27.9899 71.946 28.1939 71.01 28.1939ZM65.952 28.0859V14.7299H67.68V21.0839L67.5 23.2979L67.608 25.5119V28.0859H65.952ZM70.866 26.6819C71.478 26.6819 72.024 26.5439 72.504 26.2679C72.996 25.9919 73.38 25.6019 73.656 25.0979C73.944 24.5819 74.088 23.9879 74.088 23.3159C74.088 22.6319 73.944 22.0439 73.656 21.5519C73.38 21.0479 72.996 20.6579 72.504 20.3819C72.024 20.1059 71.478 19.9679 70.866 19.9679C70.266 19.9679 69.72 20.1059 69.228 20.3819C68.748 20.6579 68.364 21.0479 68.076 21.5519C67.8 22.0439 67.662 22.6319 67.662 23.3159C67.662 23.9879 67.8 24.5819 68.076 25.0979C68.364 25.6019 68.748 25.9919 69.228 26.2679C69.72 26.5439 70.266 26.6819 70.866 26.6819ZM78.6355 20.9219C78.2995 20.9219 78.0115 20.8079 77.7715 20.5799C77.5315 20.3399 77.4115 20.0399 77.4115 19.6799C77.4115 19.3199 77.5315 19.0259 77.7715 18.7979C78.0115 18.5699 78.2995 18.4559 78.6355 18.4559C78.9595 18.4559 79.2355 18.5699 79.4635 18.7979C79.7035 19.0259 79.8235 19.3199 79.8235 19.6799C79.8235 20.0399 79.7035 20.3399 79.4635 20.5799C79.2355 20.8079 78.9595 20.9219 78.6355 20.9219ZM78.6355 28.1939C78.2995 28.1939 78.0115 28.0799 77.7715 27.8519C77.5315 27.6119 77.4115 27.3119 77.4115 26.9519C77.4115 26.5919 77.5315 26.2979 77.7715 26.0699C78.0115 25.8419 78.2995 25.7279 78.6355 25.7279C78.9595 25.7279 79.2355 25.8419 79.4635 26.0699C79.7035 26.2979 79.8235 26.5919 79.8235 26.9519C79.8235 27.3119 79.7035 27.6119 79.4635 27.8519C79.2355 28.0799 78.9595 28.1939 78.6355 28.1939ZM87.3856 28.0859V15.4859H93.0376C94.4896 15.4859 95.6056 15.7799 96.3856 16.3679C97.1656 16.9439 97.5556 17.7359 97.5556 18.7439C97.5556 19.4279 97.3996 20.0039 97.0876 20.4719C96.7876 20.9399 96.3796 21.2999 95.8636 21.5519C95.3476 21.8039 94.7896 21.9299 94.1896 21.9299L94.5136 21.3899C95.2336 21.3899 95.8696 21.5159 96.4216 21.7679C96.9736 22.0199 97.4116 22.3919 97.7356 22.8839C98.0596 23.3639 98.2216 23.9639 98.2216 24.6839C98.2216 25.7639 97.8136 26.6039 96.9976 27.2039C96.1936 27.7919 94.9936 28.0859 93.3976 28.0859H87.3856ZM89.1856 26.6279H93.3256C94.3216 26.6279 95.0836 26.4599 95.6116 26.1239C96.1396 25.7879 96.4036 25.2599 96.4036 24.5399C96.4036 23.8079 96.1396 23.2739 95.6116 22.9379C95.0836 22.6019 94.3216 22.4339 93.3256 22.4339H89.0236V20.9759H92.8756C93.7876 20.9759 94.4956 20.8079 94.9996 20.4719C95.5036 20.1359 95.7556 19.6319 95.7556 18.9599C95.7556 18.2879 95.5036 17.7839 94.9996 17.4479C94.4956 17.1119 93.7876 16.9439 92.8756 16.9439H89.1856V26.6279ZM105.005 28.1939C103.985 28.1939 103.085 27.9839 102.305 27.5639C101.537 27.1439 100.937 26.5679 100.505 25.8359C100.085 25.1039 99.8747 24.2639 99.8747 23.3159C99.8747 22.3679 100.079 21.5279 100.487 20.7959C100.907 20.0639 101.477 19.4939 102.197 19.0859C102.929 18.6659 103.751 18.4559 104.663 18.4559C105.587 18.4559 106.403 18.6599 107.111 19.0679C107.819 19.4759 108.371 20.0519 108.767 20.7959C109.175 21.5279 109.379 22.3859 109.379 23.3699C109.379 23.4419 109.373 23.5259 109.361 23.6219C109.361 23.7179 109.355 23.8079 109.343 23.8919H101.225V22.6499H108.443L107.741 23.0819C107.753 22.4699 107.627 21.9239 107.363 21.4439C107.099 20.9639 106.733 20.5919 106.265 20.3279C105.809 20.0519 105.275 19.9139 104.663 19.9139C104.063 19.9139 103.529 20.0519 103.061 20.3279C102.593 20.5919 102.227 20.9699 101.963 21.4619C101.699 21.9419 101.567 22.4939 101.567 23.1179V23.4059C101.567 24.0419 101.711 24.6119 101.999 25.1159C102.299 25.6079 102.713 25.9919 103.241 26.2679C103.769 26.5439 104.375 26.6819 105.059 26.6819C105.623 26.6819 106.133 26.5859 106.589 26.3939C107.057 26.2019 107.465 25.9139 107.813 25.5299L108.767 26.6459C108.335 27.1499 107.795 27.5339 107.147 27.7979C106.511 28.0619 105.797 28.1939 105.005 28.1939ZM115.72 28.1939C114.796 28.1939 113.968 27.9899 113.236 27.5819C112.516 27.1739 111.946 26.6039 111.526 25.8719C111.106 25.1399 110.896 24.2879 110.896 23.3159C110.896 22.3439 111.106 21.4979 111.526 20.7779C111.946 20.0459 112.516 19.4759 113.236 19.0679C113.968 18.6599 114.796 18.4559 115.72 18.4559C116.524 18.4559 117.25 18.6359 117.898 18.9959C118.546 19.3559 119.062 19.8959 119.446 20.6159C119.842 21.3359 120.04 22.2359 120.04 23.3159C120.04 24.3959 119.848 25.2959 119.464 26.0159C119.092 26.7359 118.582 27.2819 117.934 27.6539C117.286 28.0139 116.548 28.1939 115.72 28.1939ZM115.864 26.6819C116.464 26.6819 117.004 26.5439 117.484 26.2679C117.976 25.9919 118.36 25.6019 118.636 25.0979C118.924 24.5819 119.068 23.9879 119.068 23.3159C119.068 22.6319 118.924 22.0439 118.636 21.5519C118.36 21.0479 117.976 20.6579 117.484 20.3819C117.004 20.1059 116.464 19.9679 115.864 19.9679C115.252 19.9679 114.706 20.1059 114.226 20.3819C113.746 20.6579 113.362 21.0479 113.074 21.5519C112.786 22.0439 112.642 22.6319 112.642 23.3159C112.642 23.9879 112.786 24.5819 113.074 25.0979C113.362 25.6019 113.746 25.9919 114.226 26.2679C114.706 26.5439 115.252 26.6819 115.864 26.6819ZM119.122 28.0859V25.5119L119.23 23.2979L119.05 21.0839V14.7299H120.778V28.0859H119.122ZM124.048 28.0859V18.5459H125.704V21.1379L125.542 20.4899C125.806 19.8299 126.25 19.3259 126.874 18.9779C127.498 18.6299 128.266 18.4559 129.178 18.4559V20.1299C129.106 20.1179 129.034 20.1119 128.962 20.1119C128.902 20.1119 128.842 20.1119 128.782 20.1119C127.858 20.1119 127.126 20.3879 126.586 20.9399C126.046 21.4919 125.776 22.2899 125.776 23.3339V28.0859H124.048ZM135.468 28.1939C134.448 28.1939 133.548 27.9839 132.768 27.5639C132 27.1439 131.4 26.5679 130.968 25.8359C130.548 25.1039 130.338 24.2639 130.338 23.3159C130.338 22.3679 130.542 21.5279 130.95 20.7959C131.37 20.0639 131.94 19.4939 132.66 19.0859C133.392 18.6659 134.214 18.4559 135.126 18.4559C136.05 18.4559 136.866 18.6599 137.574 19.0679C138.282 19.4759 138.834 20.0519 139.23 20.7959C139.638 21.5279 139.842 22.3859 139.842 23.3699C139.842 23.4419 139.836 23.5259 139.824 23.6219C139.824 23.7179 139.818 23.8079 139.806 23.8919H131.688V22.6499H138.906L138.204 23.0819C138.216 22.4699 138.09 21.9239 137.826 21.4439C137.562 20.9639 137.196 20.5919 136.728 20.3279C136.272 20.0519 135.738 19.9139 135.126 19.9139C134.526 19.9139 133.992 20.0519 133.524 20.3279C133.056 20.5919 132.69 20.9699 132.426 21.4619C132.162 21.9419 132.03 22.4939 132.03 23.1179V23.4059C132.03 24.0419 132.174 24.6119 132.462 25.1159C132.762 25.6079 133.176 25.9919 133.704 26.2679C134.232 26.5439 134.838 26.6819 135.522 26.6819C136.086 26.6819 136.596 26.5859 137.052 26.3939C137.52 26.2019 137.928 25.9139 138.276 25.5299L139.23 26.6459C138.798 27.1499 138.258 27.5339 137.61 27.7979C136.974 28.0619 136.26 28.1939 135.468 28.1939ZM150.999 28.2299C150.039 28.2299 149.121 28.0859 148.245 27.7979C147.369 27.4979 146.679 27.1139 146.175 26.6459L146.841 25.2419C147.321 25.6619 147.933 26.0099 148.677 26.2859C149.421 26.5619 150.195 26.6999 150.999 26.6999C151.731 26.6999 152.325 26.6159 152.781 26.4479C153.237 26.2799 153.573 26.0519 153.789 25.7639C154.005 25.4639 154.113 25.1279 154.113 24.7559C154.113 24.3239 153.969 23.9759 153.681 23.7119C153.405 23.4479 153.039 23.2379 152.583 23.0819C152.139 22.9139 151.647 22.7699 151.107 22.6499C150.567 22.5299 150.021 22.3919 149.469 22.2359C148.929 22.0679 148.431 21.8579 147.975 21.6059C147.531 21.3539 147.171 21.0179 146.895 20.5979C146.619 20.1659 146.481 19.6139 146.481 18.9419C146.481 18.2939 146.649 17.6999 146.985 17.1599C147.333 16.6079 147.861 16.1699 148.569 15.8459C149.289 15.5099 150.201 15.3419 151.305 15.3419C152.037 15.3419 152.763 15.4379 153.483 15.6299C154.203 15.8219 154.827 16.0979 155.355 16.4579L154.761 17.8979C154.221 17.5379 153.651 17.2799 153.051 17.1239C152.451 16.9559 151.869 16.8719 151.305 16.8719C150.597 16.8719 150.015 16.9619 149.559 17.1419C149.103 17.3219 148.767 17.5619 148.551 17.8619C148.347 18.1619 148.245 18.4979 148.245 18.8699C148.245 19.3139 148.383 19.6679 148.659 19.9319C148.947 20.1959 149.313 20.4059 149.757 20.5619C150.213 20.7179 150.711 20.8619 151.251 20.9939C151.791 21.1139 152.331 21.2519 152.871 21.4079C153.423 21.5639 153.921 21.7679 154.365 22.0199C154.821 22.2719 155.187 22.6079 155.463 23.0279C155.739 23.4479 155.877 23.9879 155.877 24.6479C155.877 25.2839 155.703 25.8779 155.355 26.4299C155.007 26.9699 154.467 27.4079 153.735 27.7439C153.015 28.0679 152.103 28.2299 150.999 28.2299ZM162.341 28.1939C161.381 28.1939 160.529 27.9839 159.785 27.5639C159.041 27.1439 158.453 26.5679 158.021 25.8359C157.589 25.0919 157.373 24.2519 157.373 23.3159C157.373 22.3679 157.589 21.5279 158.021 20.7959C158.453 20.0639 159.041 19.4939 159.785 19.0859C160.529 18.6659 161.381 18.4559 162.341 18.4559C163.289 18.4559 164.135 18.6659 164.879 19.0859C165.635 19.4939 166.223 20.0639 166.643 20.7959C167.075 21.5159 167.291 22.3559 167.291 23.3159C167.291 24.2639 167.075 25.1039 166.643 25.8359C166.223 26.5679 165.635 27.1439 164.879 27.5639C164.135 27.9839 163.289 28.1939 162.341 28.1939ZM162.341 26.6819C162.953 26.6819 163.499 26.5439 163.979 26.2679C164.471 25.9919 164.855 25.6019 165.131 25.0979C165.407 24.5819 165.545 23.9879 165.545 23.3159C165.545 22.6319 165.407 22.0439 165.131 21.5519C164.855 21.0479 164.471 20.6579 163.979 20.3819C163.499 20.1059 162.953 19.9679 162.341 19.9679C161.729 19.9679 161.183 20.1059 160.703 20.3819C160.223 20.6579 159.839 21.0479 159.551 21.5519C159.263 22.0439 159.119 22.6319 159.119 23.3159C159.119 23.9879 159.263 24.5819 159.551 25.0979C159.839 25.6019 160.223 25.9919 160.703 26.2679C161.183 26.5439 161.729 26.6819 162.341 26.6819ZM157.805 29.3639L165.743 17.3219H166.805L158.885 29.3639H157.805ZM171.919 28.0859L167.743 18.5459H169.543L173.251 27.1859H172.387L176.167 18.5459H177.859L173.683 28.0859H171.919ZM184.565 18.4559C185.345 18.4559 186.029 18.6059 186.617 18.9059C187.217 19.2059 187.685 19.6619 188.021 20.2739C188.357 20.8859 188.525 21.6599 188.525 22.5959V28.0859H186.797V22.7939C186.797 21.8699 186.569 21.1739 186.113 20.7059C185.669 20.2379 185.039 20.0039 184.223 20.0039C183.611 20.0039 183.077 20.1239 182.621 20.3639C182.165 20.6039 181.811 20.9579 181.559 21.4259C181.319 21.8939 181.199 22.4759 181.199 23.1719V28.0859H179.471V18.5459H181.127V21.1199L180.857 20.4359C181.169 19.8119 181.649 19.3259 182.297 18.9779C182.945 18.6299 183.701 18.4559 184.565 18.4559Z" fill="white"/>
<path d="M24.6706 46.328L23.9506 45.608H27.2946V47H20.1426V45.608H23.7746L23.0706 46.328V36.44L23.7586 37.192H20.3186V35.8H24.6706V46.328ZM30.8657 47.096C30.5671 47.096 30.3111 46.9947 30.0977 46.792C29.8844 46.5787 29.7777 46.312 29.7777 45.992C29.7777 45.672 29.8844 45.4107 30.0977 45.208C30.3111 45.0053 30.5671 44.904 30.8657 44.904C31.1537 44.904 31.3991 45.0053 31.6017 45.208C31.8151 45.4107 31.9217 45.672 31.9217 45.992C31.9217 46.312 31.8151 46.5787 31.6017 46.792C31.3991 46.9947 31.1537 47.096 30.8657 47.096ZM39.68 47V35.8H44.4C45.5947 35.8 46.6453 36.0347 47.552 36.504C48.4693 36.9733 49.1787 37.6293 49.68 38.472C50.192 39.3147 50.448 40.2907 50.448 41.4C50.448 42.5093 50.192 43.4853 49.68 44.328C49.1787 45.1707 48.4693 45.8267 47.552 46.296C46.6453 46.7653 45.5947 47 44.4 47H39.68ZM41.28 45.608H44.304C45.232 45.608 46.032 45.432 46.704 45.08C47.3867 44.728 47.9147 44.2373 48.288 43.608C48.6613 42.968 48.848 42.232 48.848 41.4C48.848 40.5573 48.6613 39.8213 48.288 39.192C47.9147 38.5627 47.3867 38.072 46.704 37.72C46.032 37.368 45.232 37.192 44.304 37.192H41.28V45.608ZM52.6748 47V38.52H54.2108V47H52.6748ZM53.4428 36.888C53.1441 36.888 52.8934 36.792 52.6908 36.6C52.4988 36.408 52.4028 36.1733 52.4028 35.896C52.4028 35.608 52.4988 35.368 52.6908 35.176C52.8934 34.984 53.1441 34.888 53.4428 34.888C53.7414 34.888 53.9868 34.984 54.1788 35.176C54.3814 35.3573 54.4828 35.5867 54.4828 35.864C54.4828 36.152 54.3868 36.3973 54.1948 36.6C54.0028 36.792 53.7521 36.888 53.4428 36.888ZM60.8555 50.2C60.0768 50.2 59.3195 50.088 58.5835 49.864C57.8582 49.6507 57.2662 49.3413 56.8075 48.936L57.5435 47.752C57.9382 48.0933 58.4235 48.36 58.9995 48.552C59.5755 48.7547 60.1782 48.856 60.8075 48.856C61.8102 48.856 62.5462 48.6213 63.0155 48.152C63.4848 47.6827 63.7195 46.968 63.7195 46.008V44.216L63.8795 42.536L63.7995 40.84V38.52H65.2555V45.848C65.2555 47.3413 64.8822 48.44 64.1355 49.144C63.3888 49.848 62.2955 50.2 60.8555 50.2ZM60.6635 46.648C59.8422 46.648 59.1062 46.4773 58.4555 46.136C57.8155 45.784 57.3035 45.2987 56.9195 44.68C56.5462 44.0613 56.3595 43.3467 56.3595 42.536C56.3595 41.7147 56.5462 41 56.9195 40.392C57.3035 39.7733 57.8155 39.2933 58.4555 38.952C59.1062 38.6107 59.8422 38.44 60.6635 38.44C61.3888 38.44 62.0502 38.5893 62.6475 38.888C63.2448 39.176 63.7195 39.624 64.0715 40.232C64.4342 40.84 64.6155 41.608 64.6155 42.536C64.6155 43.4533 64.4342 44.216 64.0715 44.824C63.7195 45.432 63.2448 45.8907 62.6475 46.2C62.0502 46.4987 61.3888 46.648 60.6635 46.648ZM60.8395 45.304C61.4048 45.304 61.9062 45.1867 62.3435 44.952C62.7808 44.7173 63.1222 44.392 63.3675 43.976C63.6235 43.56 63.7515 43.08 63.7515 42.536C63.7515 41.992 63.6235 41.512 63.3675 41.096C63.1222 40.68 62.7808 40.36 62.3435 40.136C61.9062 39.9013 61.4048 39.784 60.8395 39.784C60.2742 39.784 59.7675 39.9013 59.3195 40.136C58.8822 40.36 58.5355 40.68 58.2795 41.096C58.0342 41.512 57.9115 41.992 57.9115 42.536C57.9115 43.08 58.0342 43.56 58.2795 43.976C58.5355 44.392 58.8822 44.7173 59.3195 44.952C59.7675 45.1867 60.2742 45.304 60.8395 45.304ZM75.6713 47.128C74.9139 47.128 74.2419 47.0053 73.6553 46.76C73.0686 46.5147 72.6046 46.1733 72.2633 45.736C71.9219 45.2987 71.7513 44.792 71.7513 44.216C71.7513 43.7147 71.8633 43.256 72.0872 42.84C72.3113 42.424 72.6686 42.024 73.1593 41.64C73.6499 41.2453 74.2953 40.84 75.0953 40.424C75.7459 40.0827 76.2526 39.784 76.6153 39.528C76.9886 39.272 77.2499 39.032 77.3993 38.808C77.5593 38.5733 77.6393 38.3227 77.6393 38.056C77.6393 37.6933 77.5113 37.4 77.2553 37.176C76.9993 36.9413 76.6313 36.824 76.1513 36.824C75.6499 36.824 75.2553 36.952 74.9673 37.208C74.6899 37.4533 74.5513 37.7787 74.5513 38.184C74.5513 38.3867 74.5833 38.584 74.6473 38.776C74.7219 38.9573 74.8499 39.1653 75.0312 39.4C75.2233 39.624 75.4953 39.912 75.8473 40.264L81.7673 46.152L80.9033 47.176L74.6153 40.92C74.2419 40.5467 73.9486 40.216 73.7353 39.928C73.5219 39.6293 73.3673 39.3413 73.2713 39.064C73.1753 38.7867 73.1273 38.504 73.1273 38.216C73.1273 37.7147 73.2499 37.2773 73.4953 36.904C73.7513 36.52 74.1033 36.2267 74.5513 36.024C75.0099 35.8107 75.5433 35.704 76.1513 35.704C76.7166 35.704 77.2073 35.8 77.6233 35.992C78.0393 36.1733 78.3593 36.44 78.5833 36.792C78.8179 37.1333 78.9353 37.5493 78.9353 38.04C78.9353 38.4667 78.8286 38.8613 78.6153 39.224C78.4126 39.5867 78.0819 39.9387 77.6233 40.28C77.1646 40.6213 76.5459 40.9893 75.7673 41.384C75.1273 41.7147 74.6259 42.024 74.2633 42.312C73.9006 42.5893 73.6393 42.8667 73.4793 43.144C73.3299 43.4213 73.2553 43.7253 73.2553 44.056C73.2553 44.408 73.3566 44.7227 73.5593 45C73.7726 45.2667 74.0659 45.4747 74.4393 45.624C74.8233 45.7733 75.2659 45.848 75.7673 45.848C76.4819 45.848 77.1273 45.6933 77.7033 45.384C78.2793 45.0747 78.7593 44.6107 79.1433 43.992C79.5379 43.3733 79.8259 42.6053 80.0073 41.688L81.2393 42.088C81.0259 43.1653 80.6579 44.0773 80.1353 44.824C79.6233 45.5707 78.9886 46.1413 78.2313 46.536C77.4739 46.9307 76.6206 47.128 75.6713 47.128ZM91.2569 47.096C90.4355 47.096 89.6995 46.9147 89.0489 46.552C88.4089 46.1893 87.9022 45.6827 87.5289 45.032C87.1555 44.3813 86.9689 43.624 86.9689 42.76C86.9689 41.896 87.1555 41.144 87.5289 40.504C87.9022 39.8533 88.4089 39.3467 89.0489 38.984C89.6995 38.6213 90.4355 38.44 91.2569 38.44C91.9715 38.44 92.6169 38.6 93.1929 38.92C93.7689 39.24 94.2275 39.72 94.5689 40.36C94.9209 41 95.0969 41.8 95.0969 42.76C95.0969 43.72 94.9262 44.52 94.5849 45.16C94.2542 45.8 93.8009 46.2853 93.2249 46.616C92.6489 46.936 91.9929 47.096 91.2569 47.096ZM91.3849 45.752C91.9182 45.752 92.3982 45.6293 92.8249 45.384C93.2622 45.1387 93.6035 44.792 93.8489 44.344C94.1049 43.8853 94.2329 43.3573 94.2329 42.76C94.2329 42.152 94.1049 41.6293 93.8489 41.192C93.6035 40.744 93.2622 40.3973 92.8249 40.152C92.3982 39.9067 91.9182 39.784 91.3849 39.784C90.8409 39.784 90.3555 39.9067 89.9289 40.152C89.5022 40.3973 89.1609 40.744 88.9049 41.192C88.6489 41.6293 88.5209 42.152 88.5209 42.76C88.5209 43.3573 88.6489 43.8853 88.9049 44.344C89.1609 44.792 89.5022 45.1387 89.9289 45.384C90.3555 45.6293 90.8409 45.752 91.3849 45.752ZM94.2809 47V44.712L94.3769 42.744L94.2169 40.776V35.128H95.7529V47H94.2809ZM98.6591 47V38.52H100.195V47H98.6591ZM99.4271 36.888C99.1285 36.888 98.8778 36.792 98.6751 36.6C98.4831 36.408 98.3871 36.1733 98.3871 35.896C98.3871 35.608 98.4831 35.368 98.6751 35.176C98.8778 34.984 99.1285 34.888 99.4271 34.888C99.7258 34.888 99.9711 34.984 100.163 35.176C100.366 35.3573 100.467 35.5867 100.467 35.864C100.467 36.152 100.371 36.3973 100.179 36.6C99.9871 36.792 99.7365 36.888 99.4271 36.888ZM107.656 38.44C108.349 38.44 108.957 38.5733 109.48 38.84C110.013 39.1067 110.429 39.512 110.728 40.056C111.027 40.6 111.176 41.288 111.176 42.12V47H109.64V42.296C109.64 41.4747 109.437 40.856 109.032 40.44C108.637 40.024 108.077 39.816 107.352 39.816C106.808 39.816 106.333 39.9227 105.928 40.136C105.523 40.3493 105.208 40.664 104.984 41.08C104.771 41.496 104.664 42.0133 104.664 42.632V47H103.128V38.52H104.6V40.808L104.36 40.2C104.637 39.6453 105.064 39.2133 105.64 38.904C106.216 38.5947 106.888 38.44 107.656 38.44ZM120.747 47.096C120.043 47.096 119.371 47 118.731 46.808C118.102 46.616 117.606 46.3813 117.243 46.104L117.883 44.888C118.246 45.1333 118.694 45.3413 119.227 45.512C119.761 45.6827 120.305 45.768 120.859 45.768C121.574 45.768 122.086 45.6667 122.395 45.464C122.715 45.2613 122.875 44.9787 122.875 44.616C122.875 44.3493 122.779 44.1413 122.587 43.992C122.395 43.8427 122.139 43.7307 121.819 43.656C121.51 43.5813 121.163 43.5173 120.779 43.464C120.395 43.4 120.011 43.3253 119.627 43.24C119.243 43.144 118.891 43.016 118.571 42.856C118.251 42.6853 117.995 42.456 117.803 42.168C117.611 41.8693 117.515 41.4747 117.515 40.984C117.515 40.472 117.659 40.024 117.947 39.64C118.235 39.256 118.641 38.9627 119.163 38.76C119.697 38.5467 120.326 38.44 121.051 38.44C121.606 38.44 122.166 38.5093 122.731 38.648C123.307 38.776 123.777 38.9627 124.139 39.208L123.483 40.424C123.099 40.168 122.699 39.992 122.283 39.896C121.867 39.8 121.451 39.752 121.035 39.752C120.363 39.752 119.862 39.864 119.531 40.088C119.201 40.3013 119.035 40.5787 119.035 40.92C119.035 41.208 119.131 41.432 119.323 41.592C119.526 41.7413 119.782 41.8587 120.091 41.944C120.411 42.0293 120.763 42.104 121.147 42.168C121.531 42.2213 121.915 42.296 122.299 42.392C122.683 42.4773 123.03 42.6 123.339 42.76C123.659 42.92 123.915 43.144 124.107 43.432C124.31 43.72 124.411 44.104 124.411 44.584C124.411 45.096 124.262 45.5387 123.963 45.912C123.665 46.2853 123.243 46.5787 122.699 46.792C122.155 46.9947 121.505 47.096 120.747 47.096ZM129.963 47.096C129.11 47.096 128.352 46.9093 127.691 46.536C127.03 46.1627 126.507 45.6507 126.123 45C125.739 44.3387 125.547 43.592 125.547 42.76C125.547 41.9173 125.739 41.1707 126.123 40.52C126.507 39.8693 127.03 39.3627 127.691 39C128.352 38.6267 129.11 38.44 129.963 38.44C130.806 38.44 131.558 38.6267 132.219 39C132.891 39.3627 133.414 39.8693 133.787 40.52C134.171 41.16 134.363 41.9067 134.363 42.76C134.363 43.6027 134.171 44.3493 133.787 45C133.414 45.6507 132.891 46.1627 132.219 46.536C131.558 46.9093 130.806 47.096 129.963 47.096ZM129.963 45.752C130.507 45.752 130.992 45.6293 131.419 45.384C131.856 45.1387 132.198 44.792 132.443 44.344C132.688 43.8853 132.811 43.3573 132.811 42.76C132.811 42.152 132.688 41.6293 132.443 41.192C132.198 40.744 131.856 40.3973 131.419 40.152C130.992 39.9067 130.507 39.784 129.963 39.784C129.419 39.784 128.934 39.9067 128.507 40.152C128.08 40.3973 127.739 40.744 127.483 41.192C127.227 41.6293 127.099 42.152 127.099 42.76C127.099 43.3573 127.227 43.8853 127.483 44.344C127.739 44.792 128.08 45.1387 128.507 45.384C128.934 45.6293 129.419 45.752 129.963 45.752ZM125.931 48.136L132.987 37.432H133.931L126.891 48.136H125.931ZM138.477 47L134.765 38.52H136.365L139.661 46.2H138.893L142.253 38.52H143.757L140.045 47H138.477ZM149.718 38.44C150.412 38.44 151.02 38.5733 151.542 38.84C152.076 39.1067 152.492 39.512 152.79 40.056C153.089 40.6 153.238 41.288 153.238 42.12V47H151.702V42.296C151.702 41.4747 151.5 40.856 151.094 40.44C150.7 40.024 150.14 39.816 149.414 39.816C148.87 39.816 148.396 39.9227 147.99 40.136C147.585 40.3493 147.27 40.664 147.046 41.08C146.833 41.496 146.726 42.0133 146.726 42.632V47H145.19V38.52H146.662V40.808L146.422 40.2C146.7 39.6453 147.126 39.2133 147.702 38.904C148.278 38.5947 148.95 38.44 149.718 38.44Z" fill="#F5C371"/>
<g clip-path="url(#clip0_312_480)">
<ellipse cx="218.5" cy="97.5" rx="4.5" ry="3.5" fill="#FED48B"/>
<ellipse cx="196.5" cy="102.5" rx="4.5" ry="3.5" fill="#FED48B"/>
<ellipse cx="178.5" cy="96.5" rx="4.5" ry="3.5" fill="#FED48B"/>
<ellipse cx="100.5" cy="84.5" rx="4.5" ry="3.5" fill="#FED48B"/>
<ellipse cx="124.5" cy="80.5" rx="4.5" ry="3.5" fill="#FED48B"/>
<g clip-path="url(#clip1_312_480)">
<ellipse cx="56.5" cy="120.5" rx="12.5" ry="10.5" fill="#FED48B"/>
</g>
<ellipse cx="153.5" cy="85.5" rx="12.5" ry="10.5" fill="#FED48B"/>
<ellipse cx="79.5" cy="95.5" rx="4.5" ry="3.5" fill="#FED48B"/>
</g>
<defs>
<clipPath id="clip0_312_480">
<rect width="179" height="48" fill="white" transform="translate(44 75)"/>
</clipPath>
<clipPath id="clip1_312_480">
<rect width="25" height="21" fill="white" transform="translate(44 110)"/>
</clipPath>
</defs>
</svg>
