<svg width="98" height="98" viewBox="0 0 98 98" fill="none" xmlns="http://www.w3.org/2000/svg">
<path d="M87.2392 39.2187V36.1772C87.2392 35.4578 87.3076 34.7545 87.4367 34.0727C87.2646 33.7174 87.1123 33.3551 86.9797 32.9872C86.8219 32.6241 86.6849 32.2568 86.5678 31.8866C86.4952 31.6823 86.4302 31.4754 86.3616 31.2696L86.0972 30.4766C85.9858 30.1424 85.8918 29.8068 85.8131 29.4705C85.5828 28.9484 85.3955 28.4173 85.2495 27.8815C85.153 27.6379 85.0657 27.3927 84.9871 27.1461L84.7748 26.5091C84.6195 26.0431 84.4966 25.5742 84.4044 25.1047C84.3166 24.9961 84.229 24.8872 84.1417 24.7781C83.7085 24.3449 83.3188 23.926 82.9517 23.451C82.2105 22.7509 81.5827 21.9676 81.0718 21.1268L81.0163 21.0395C80.2898 20.6644 79.6174 20.2169 79.0054 19.7089C78.496 19.3904 77.9976 19.0629 77.4997 18.732C76.4828 18.2932 75.5363 17.7067 74.6907 16.9913L73.9555 16.3692C73.5458 16.101 73.1545 15.807 72.7842 15.4893C72.5441 15.3423 72.3114 15.1876 72.0862 15.0261C71.1433 15.2826 70.1515 15.4203 69.1273 15.4203H61.1908C55.5422 16.2974 50.1419 12.7813 48.6341 7.30127C42.8943 12.2877 39.0781 19.4309 38.4513 27.4705C37.4243 27.3807 36.3854 27.3321 35.3351 27.3321C22.6766 27.3321 11.5749 33.9903 5.33571 43.9942C5.77314 44.022 6.21244 44.1359 6.62924 44.3443C8.24775 45.1536 8.93134 47.0882 8.20617 48.7256C8.15119 48.9646 8.06937 49.2011 7.95898 49.431L7.95867 49.4326L7.86809 50.3382C7.85385 50.4805 7.83064 50.6217 7.79845 50.7611L7.58015 51.7071C7.58015 52.0719 7.59779 52.4548 7.54631 52.8155L7.44468 53.5264C7.40868 53.7783 7.33801 54.0271 7.27631 54.2739L7.09267 55.0084L6.97083 55.6178V55.5596C6.96536 55.8082 6.93214 56.0593 6.86921 56.3089V56.3453C6.87623 56.749 6.81071 57.1586 6.66607 57.5547V57.7212C6.66607 58.031 6.62346 58.3383 6.5401 58.6346L6.53845 58.6476L6.43693 59.4601C6.40258 59.7349 6.33449 60.0041 6.23462 60.2616C6.22894 60.3103 6.22224 60.3593 6.21398 60.4087C6.16385 60.7095 6.11649 61.0065 6.05675 61.3052V61.2395C6.0517 61.4885 6.01899 61.7406 5.95606 61.9924L5.95586 61.9931C5.95513 62.3446 5.89932 62.7021 5.78202 63.0538L5.7521 63.1437V64.1196C5.7521 64.3975 5.71764 64.6733 5.65048 64.941V66.0493C5.65048 66.3399 5.61303 66.6265 5.54071 66.9028C5.52668 67.0965 5.49583 67.2904 5.44734 67.4825V70.6195C5.44734 70.9039 5.41205 71.1799 5.34582 71.4436V71.5336C5.34582 73.3258 3.9483 74.7913 2.18359 74.9005C7.16014 88.3834 20.1232 97.9975 35.3351 97.9975C46.561 97.9975 56.552 92.7553 63.0193 84.5911C63.0147 84.4625 63.0166 84.3331 63.0166 84.2045C63.0166 83.5175 63.2053 82.8746 63.5334 82.3244C63.5681 82.2 63.609 82.0781 63.6561 81.9593C63.6917 81.8287 63.7344 81.7011 63.7836 81.5768C63.8822 81.2156 64.0345 80.8765 64.2313 80.5686C64.2749 80.3442 64.3387 80.1271 64.4211 79.9192C64.4885 79.6719 64.5812 79.435 64.6961 79.2114C64.7838 78.9143 64.9079 78.6327 65.0634 78.3719C65.1528 78.0506 65.2848 77.7471 65.4529 77.4677C65.5067 77.3349 65.5682 77.2061 65.6366 77.0817C65.6954 76.9514 65.7616 76.8251 65.8348 76.7035C65.9198 76.4941 66.0236 76.2942 66.1439 76.1062C66.1874 75.8818 66.2512 75.6647 66.3335 75.4569C66.4002 75.2127 66.4915 74.9786 66.6043 74.7575L66.6478 74.6271C66.8266 74.0906 67.1173 73.6229 67.4851 73.241L66.5866 74.1394L66.5753 69.8504L66.5202 69.685C66.3953 69.3101 66.3315 68.9176 66.3315 68.5224V63.8726C66.2395 63.5333 66.1985 63.1909 66.2038 62.8539C66.121 62.5474 66.0766 62.2252 66.0766 61.8926C66.0766 60.3522 67.0239 59.0334 68.3678 58.4864C68.6613 58.3096 68.9743 58.1773 69.2969 58.0898C69.5328 57.9965 69.7736 57.9296 70.0157 57.8874C70.1388 57.8473 70.2624 57.8141 70.3862 57.7875C70.7348 57.5933 71.1082 57.46 71.4909 57.3878L71.8675 57.3125L72.0328 57.2574C72.313 57.1641 72.5986 57.1153 72.8874 57.0576L73.1874 56.9575C73.5435 56.7801 73.9028 56.6607 74.2967 56.6003C74.6333 56.4561 74.987 56.3647 75.3454 56.3257C75.434 56.2997 75.5227 56.2771 75.6117 56.2579C75.826 56.1609 76.0392 56.0919 76.2651 56.0166L76.6604 55.8586L77.2886 55.5444C77.6163 55.3805 77.9669 55.2666 78.3283 55.2063L78.6565 55.1516L79.0427 54.9861L79.711 54.6519C79.9143 54.5503 80.1266 54.4677 80.3452 54.4052L81.2377 54.1503C81.5493 54.0613 81.8643 54.0262 82.1839 53.9806C82.3268 53.9234 82.4691 53.8637 82.6151 53.815L83.38 53.56C83.4747 53.5284 83.5698 53.5012 83.665 53.4776L84.1609 53.3536C84.4525 53.2807 84.752 53.2439 85.0525 53.2439H86.0725C86.2476 53.2439 86.4197 53.2563 86.5883 53.28C88.4851 51.7896 90.1966 50.0741 91.6827 48.1737C88.9827 46.1196 87.2392 42.8729 87.2392 39.2187Z" fill="#2E1B73"/>
<path d="M38.8011 29.2012C35.6905 29.2012 33.1689 29.8745 33.1689 30.7052C33.1689 34.564 33.1705 38.4228 33.1705 42.2817H44.4333C44.4333 38.4229 44.4333 34.5639 44.4333 30.7052C44.4333 29.8745 41.9117 29.2012 38.8011 29.2012Z" fill="#A89FD8"/>
<path d="M38.8033 41.437C35.6925 41.437 33.1709 41.8189 33.1709 42.2901C33.1709 42.7326 35.3955 43.0964 38.2432 43.139V61.6387H39.4155V43.1382C42.2382 43.0919 44.4357 42.7299 44.4357 42.2901C44.4357 41.8189 41.9139 41.437 38.8033 41.437Z" fill="#7C6EC1"/>
<path d="M38.8011 29.2012C35.6906 29.2012 33.1689 29.8745 33.1689 30.7052V30.7554L44.4333 39.7388V30.7052C44.4333 29.8745 41.9117 29.2012 38.8011 29.2012Z" fill="#BCB3EB"/>
<path d="M38.8014 29.2012C38.2406 29.2012 37.6992 29.223 37.188 29.2638L44.4335 35.2978V30.7052C44.4335 29.8745 41.912 29.2012 38.8014 29.2012Z" fill="#D2CAF8"/>
<path d="M37.6878 41.4538C37.6783 41.8686 37.8941 42.256 38.2519 42.4663C38.6096 42.6765 39.0531 42.6765 39.4109 42.4663C39.7686 42.256 39.9845 41.8686 39.9751 41.4538C39.2128 41.4334 38.4501 41.4334 37.6878 41.4538Z" fill="#F8F8F8"/>
<path d="M92.8875 28.9415L92.451 28.5049C92.1466 28.211 91.8938 27.8561 91.7141 27.4508L91.6177 27.3545C91.5049 27.2416 91.4002 27.1208 91.3044 26.9931L90.8283 26.3583C90.7069 26.1964 90.6003 26.0239 90.5098 25.8429L90.0349 24.8931L89.6444 24.405L88.8725 23.4789C88.7957 23.3866 88.7239 23.2904 88.6573 23.1905C88.2718 22.6122 87.8863 22.0339 87.5008 21.4556L86.6811 20.4995C86.5713 20.3713 86.4713 20.235 86.3818 20.0919L85.6434 18.9107L84.9972 18.0059L84.1422 17.0083C84.0539 16.9053 83.9719 16.7971 83.8966 16.6842L83.2618 15.732C83.2321 15.6875 83.2035 15.6423 83.176 15.5964L82.7156 14.8292L81.9936 13.6739L80.7579 12.0271L79.986 11.101C79.9384 11.044 79.8929 10.9855 79.8493 10.9255L78.659 9.28883L78.2601 8.82354C77.7093 8.81818 77.1901 8.68076 76.7326 8.44161L76.5432 8.34701C76.3197 8.34371 76.1113 8.3271 75.8859 8.28211L74.2989 7.96466C74.1618 7.93733 74.0265 7.90142 73.8939 7.85716L73.0113 7.56292L72.1021 7.30325L71.4426 7.1713C71.2229 7.12745 70.9997 7.06452 70.7819 7.01004L70.2381 6.91946C69.8292 6.91946 69.4524 6.86169 69.0664 6.72406C68.886 6.69734 68.7102 6.65618 68.5402 6.60201H62.7582C62.4875 6.65618 62.2107 6.72189 61.9361 6.74686L60.5067 6.87685L59.701 7.10702C59.5535 7.14922 59.4032 7.1813 59.2512 7.20297L58.1405 7.36164C57.9825 7.38424 57.5038 7.39548 57.6634 7.39548H58.1425L57.9026 7.51536C57.4341 7.74956 56.9177 7.87161 56.3939 7.87161H53.8548C52.4026 7.87161 51.1648 6.95402 50.6893 5.66699C49.6809 6.39856 48.7201 7.19141 47.8125 8.0406C47.8125 20.2146 47.8125 32.3885 47.8125 44.5624C47.8125 46.6242 49.4993 48.311 51.561 48.311C64.899 48.311 78.2369 48.311 91.5747 48.311C92.4136 47.2512 93.1818 46.1332 93.8725 44.9639C93.1563 44.0394 92.9869 42.8282 93.364 41.7679C93.4723 41.0356 93.816 40.3801 94.3156 39.8805L93.4861 40.71V38.2989C93.4861 37.7719 93.607 37.2732 93.8225 36.8288C93.868 36.3991 93.9942 35.9937 94.1855 35.6275L94.2838 35.431C94.3087 34.9309 94.4425 34.4596 94.6618 34.0402L94.7088 33.9462C94.7509 33.787 94.8046 33.6307 94.8697 33.4787L95.0731 33.0043V30.3373C94.4466 30.2098 93.8494 29.9033 93.3635 29.4174L92.8875 28.9415Z" fill="#DBD7EE"/>
<path d="M68.1792 0C61.3059 0 54.9765 2.32625 49.9336 6.23335V36.6265V41.7031V44.5957C49.9336 45.4823 50.659 46.2076 51.5455 46.2076H54.7955H61.7416H93.0953C96.1949 41.5052 97.9993 35.8736 97.9993 29.8201C97.9993 13.351 84.6484 0 68.1792 0Z" fill="url(#paint0_linear_312_485)"/>
<path d="M96.0446 36.2542V23.5538H96.0865C96.2926 23.5538 96.4613 23.3851 96.4613 23.179V23.0664C96.4613 22.8602 96.2926 22.6915 96.0865 22.6915H95.7513V21.874C95.7513 20.7102 94.7487 19.7417 93.4632 19.5994C93.4632 19.4213 93.4632 19.2431 93.4632 19.065C93.4632 18.9452 93.3785 18.8422 93.2589 18.7994L93.2579 18.7737C93.24 18.4209 93.222 18.0683 93.2039 17.7157C93.2019 17.6745 93.1719 17.2561 93.136 17.2561C93.0999 17.2561 93.0702 17.6745 93.068 17.7157C93.0547 17.9786 93.0413 18.2413 93.0279 18.5042C93.023 18.6025 93.0172 18.7009 93.0132 18.7994C92.8936 18.8421 92.8089 18.9454 92.8089 19.065C92.8089 19.2431 92.8089 19.4213 92.8089 19.5994C91.5234 19.7417 90.5208 20.7102 90.5208 21.874V22.6915H90.2484C90.0422 22.6915 89.8735 22.8602 89.8735 23.0664V23.179C89.8735 23.3525 89.9931 23.4996 90.1539 23.5417V36.2542H87.5494V31.8787H87.7339C87.8613 31.8787 87.9655 31.7745 87.9655 31.6472C87.9655 31.5198 87.8613 31.4156 87.7339 31.4156H87.5494V25.7614H87.7339C87.8613 25.7614 87.9655 25.6572 87.9655 25.5299C87.9655 25.4025 87.8613 25.2983 87.7339 25.2983H87.5494V20.5545C87.5494 20.5187 87.5454 20.4839 87.538 20.4507H87.7339C87.8613 20.4507 87.9655 20.3465 87.9655 20.2191C87.9655 20.0918 87.8613 19.9876 87.7339 19.9876H87.5494V17.8323H87.6447C87.7721 17.8323 87.8763 17.7281 87.8763 17.6008C87.8763 17.4974 87.8077 17.4094 87.7137 17.3798C88.2273 15.8952 86.3525 15.52 86.1449 14.9215C86.1909 14.8956 86.222 14.8464 86.222 14.7902C86.222 14.7179 86.1704 14.6571 86.1023 14.6428V14.0561C86.1165 14.0578 86.1311 14.0589 86.1458 14.0592C86.3668 14.0636 86.5527 13.8948 86.5696 13.6745C86.5052 13.8052 86.3638 13.8795 86.2196 13.8581C86.0755 13.8366 85.9616 13.7246 85.938 13.5808C85.9144 13.437 85.9864 13.2944 86.1162 13.228C85.8962 13.2483 85.7302 13.4368 85.738 13.6576C85.7443 13.8334 85.8589 13.9809 86.0169 14.0361V14.6422C85.9471 14.6553 85.8939 14.7169 85.8939 14.7902C85.8939 14.8501 85.9294 14.902 85.9803 14.9262C85.7648 15.5211 83.9069 15.8979 84.4106 17.3726C84.3021 17.3917 84.219 17.487 84.219 17.6008C84.219 17.7281 84.3232 17.8323 84.4506 17.8323H84.588V19.9876H84.5398C84.4125 19.9876 84.3083 20.0918 84.3083 20.2191C84.3083 20.3465 84.4125 20.4507 84.5398 20.4507H84.5993C84.592 20.4839 84.588 20.5187 84.588 20.5545V25.2983H84.5398C84.4125 25.2983 84.3083 25.4025 84.3083 25.5299C84.3083 25.6572 84.4125 25.7614 84.5398 25.7614H84.588V31.4156H84.5398C84.4125 31.4156 84.3083 31.5198 84.3083 31.6472C84.3083 31.7745 84.4125 31.8787 84.5398 31.8787H84.588V36.2542H82.8795V35.679C82.8795 35.2666 82.5422 34.9293 82.1298 34.9293H80.7702C83.8178 28.176 75.4973 26.6055 74.6076 24.0395C74.7969 23.9328 74.9252 23.7299 74.9252 23.4984C74.9252 23.2058 74.7178 22.9511 74.4317 22.8908V20.4724C75.4031 20.5935 76.283 19.8795 76.3578 18.8995C76.0926 19.4386 75.5094 19.7445 74.9152 19.6564C74.3209 19.5683 73.8517 19.1062 73.7544 18.5134C73.6573 17.9206 73.9541 17.3328 74.489 17.0593C73.5819 17.1426 72.8978 17.9199 72.9302 18.8301C72.9561 19.5547 73.4286 20.1627 74.0796 20.39V22.8882C73.7921 22.9421 73.5729 23.1959 73.5729 23.4984C73.5729 23.7382 73.7124 23.9562 73.9285 24.0592C73.0056 26.6069 64.7771 28.1856 67.7503 34.8773H66.2905V30.2859H66.5101C66.6759 30.2859 66.8117 30.1502 66.8117 29.9844C66.8117 29.8185 66.6759 29.6829 66.5101 29.6829H66.2905V22.3206H66.5101C66.6759 22.3206 66.8117 22.1849 66.8117 22.0191C66.8117 21.8533 66.6759 21.7176 66.5101 21.7176H66.2905V15.5406C66.2905 15.4939 66.2852 15.4488 66.2756 15.4055H66.5101C66.6759 15.4055 66.8117 15.2698 66.8117 15.104C66.8117 14.9382 66.6759 14.8025 66.5101 14.8025H66.2905V11.9961H66.4605C66.6263 11.9961 66.7621 11.8603 66.7621 11.6945C66.7621 11.56 66.6727 11.4453 66.5505 11.4068C67.2191 9.47364 64.778 8.98523 64.5077 8.2059C64.5676 8.17227 64.6081 8.10809 64.6081 8.03495C64.6081 7.94086 64.541 7.86183 64.4522 7.84305V7.07909C64.4708 7.08136 64.4898 7.0828 64.5089 7.08322C64.7965 7.08899 65.0387 6.86904 65.0606 6.58223C64.9768 6.75246 64.7926 6.84913 64.6049 6.82127C64.4172 6.79342 64.2689 6.64743 64.2383 6.46018C64.2075 6.27293 64.3013 6.08733 64.4703 6.00098C64.1838 6.02729 63.9678 6.27272 63.978 6.56025C63.9861 6.78919 64.1354 6.98129 64.341 7.05309V7.84223C64.2502 7.85925 64.1809 7.93941 64.1809 8.03495C64.1809 8.11284 64.227 8.18052 64.2933 8.21209C64.0126 8.98668 61.5935 9.47735 62.2495 11.3976C62.1082 11.4225 62 11.5464 62 11.6945C62 11.8603 62.1357 11.9961 62.3015 11.9961H62.4345V14.8025H62.3511C62.1853 14.8025 62.0496 14.9382 62.0496 15.104C62.0496 15.2698 62.1853 15.4055 62.3511 15.4055H62.4492C62.4396 15.4488 62.4345 15.4939 62.4345 15.5406V21.7176H62.3511C62.1853 21.7176 62.0496 21.8533 62.0496 22.0191C62.0496 22.1849 62.1853 22.3206 62.3511 22.3206H62.4345V29.6829H62.3511C62.1853 29.6829 62.0496 29.8185 62.0496 29.9844C62.0496 30.1502 62.1853 30.2859 62.3511 30.2859H62.4345V34.8751H59.7455V25.0577H59.7874C59.9936 25.0577 60.1623 24.889 60.1623 24.6829V24.5702C60.1623 24.3641 59.9936 24.1954 59.7874 24.1954H59.4523V23.3779C59.4523 22.214 58.4497 21.2456 57.1642 21.1033C57.1642 20.9253 57.1642 20.7471 57.1642 20.5689C57.1642 20.4492 57.0794 20.346 56.9598 20.3033L56.9588 20.2775C56.941 19.9248 56.9229 19.5722 56.9049 19.2196C56.9029 19.1784 56.8729 18.76 56.8369 18.76C56.8009 18.76 56.7711 19.1784 56.769 19.2196C56.7557 19.4824 56.7423 19.7451 56.7289 20.008C56.724 20.1063 56.7182 20.2049 56.7142 20.3033C56.5946 20.3461 56.5099 20.4492 56.5099 20.5689C56.5099 20.7471 56.5099 20.9253 56.5099 21.1033C55.2244 21.2456 54.2218 22.214 54.2218 23.3779V24.1954H53.9493C53.7432 24.1954 53.5745 24.3641 53.5745 24.5702V24.6829C53.5745 24.8565 53.6941 25.0034 53.8549 25.0456V34.8751H51.4018C50.5772 34.8751 49.9023 35.5498 49.9023 36.3746V44.7236C49.9023 45.5482 50.5772 46.223 51.4018 46.223C61.6445 46.223 71.8871 46.223 82.1298 46.223C82.1525 46.223 82.1751 46.2219 82.1974 46.2199H92.6633L92.669 46.2077H93.0954C93.1771 46.0835 93.2581 45.9587 93.3386 45.8337C95.2121 42.8991 96.5539 39.6574 97.3026 36.2572C97.3026 36.2572 97.1343 36.2561 96.7978 36.2542H96.0446Z" fill="#2B0067"/>
<path d="M93.2045 24.1421C92.6087 24.1421 92.1211 24.6296 92.1211 25.2254V26.2741V26.4487V27.7199C92.1211 28.1322 92.4585 28.4696 92.8708 28.4696H93.5381C93.9504 28.4696 94.2878 28.1322 94.2878 27.7199V26.4487V26.2741V25.2254C94.2878 24.6296 93.8003 24.1421 93.2045 24.1421Z" fill="#DBB03F"/>
<path d="M95.2194 24.1421C94.9676 24.1421 94.7617 24.3479 94.7617 24.5996V25.8411V27.0744V28.153C94.7617 28.3271 94.9042 28.4696 95.0783 28.4696H95.3603C95.5345 28.4696 95.677 28.3271 95.677 28.153V27.0744V25.8411V24.5996C95.677 24.3479 95.4711 24.1421 95.2194 24.1421Z" fill="#DBB03F"/>
<path d="M91.1965 24.1421C90.9448 24.1421 90.7388 24.3479 90.7388 24.5996V25.8411V27.0744V28.153C90.7388 28.3271 90.8815 28.4696 91.0556 28.4696H91.3375C91.5117 28.4696 91.6543 28.3271 91.6543 28.153V27.0744V25.8411V24.5996C91.6543 24.3479 91.4483 24.1421 91.1965 24.1421Z" fill="#DBB03F"/>
<path d="M87.0711 18.0972C86.9726 18.0972 86.8921 18.1776 86.8921 18.2762V18.7618V19.2442V19.6662C86.8921 19.7342 86.9478 19.79 87.0159 19.79H87.1263C87.1944 19.79 87.2501 19.7342 87.2501 19.6662V19.2442V18.7618V18.2762C87.2501 18.1776 87.1696 18.0972 87.0711 18.0972Z" fill="#DBB03F"/>
<path d="M86.4578 18.0972C86.3593 18.0972 86.2788 18.1776 86.2788 18.2762V18.7618V19.2442V19.6662C86.2788 19.7342 86.3345 19.79 86.4026 19.79H86.513C86.5812 19.79 86.6368 19.7342 86.6368 19.6662V19.2442V18.7618V18.2762C86.6368 18.1776 86.5563 18.0972 86.4578 18.0972Z" fill="#DBB03F"/>
<path d="M85.8514 18.0972H85.8513C85.7528 18.0972 85.6724 18.1776 85.6724 18.2762V18.7618V19.2442V19.6662C85.6724 19.7342 85.728 19.79 85.7962 19.79H85.9065C85.9746 19.79 86.0304 19.7342 86.0304 19.6662V19.2442V18.7618V18.2762C86.0304 18.1776 85.9498 18.0972 85.8514 18.0972Z" fill="#DBB03F"/>
<path d="M85.2376 18.0972H85.2375C85.1391 18.0972 85.0586 18.1776 85.0586 18.2762V18.7618V19.2442V19.6662C85.0586 19.7342 85.1142 19.79 85.1824 19.79H85.2927C85.3609 19.79 85.4166 19.7342 85.4166 19.6662V19.2442V18.7618V18.2762C85.4166 18.1776 85.336 18.0972 85.2376 18.0972Z" fill="#DBB03F"/>
<path d="M65.6472 12.3408C65.519 12.3408 65.4141 12.4456 65.4141 12.5739V13.2063V13.8345V14.3838C65.4141 14.4725 65.4867 14.5451 65.5754 14.5451H65.719C65.8078 14.5451 65.8804 14.4725 65.8804 14.3838V13.8345V13.2063V12.5739C65.8804 12.4456 65.7755 12.3408 65.6472 12.3408Z" fill="#DBB03F"/>
<path d="M64.8484 12.3408C64.7203 12.3408 64.6152 12.4456 64.6152 12.5739V13.2063V13.8345V14.3838C64.6152 14.4725 64.6879 14.5451 64.7766 14.5451H64.9202C65.0089 14.5451 65.0816 14.4725 65.0816 14.3838V13.8345V13.2063V12.5739C65.0816 12.4456 64.9766 12.3408 64.8484 12.3408Z" fill="#DBB03F"/>
<path d="M64.0584 12.3408C63.9301 12.3408 63.8252 12.4456 63.8252 12.5739V13.2063V13.8345V14.3838C63.8252 14.4725 63.8978 14.5451 63.9866 14.5451H64.1302C64.2189 14.5451 64.2915 14.4725 64.2915 14.3838V13.8345V13.2063V12.5739C64.2915 12.4456 64.1865 12.3408 64.0584 12.3408Z" fill="#DBB03F"/>
<path d="M63.2595 12.3408C63.1313 12.3408 63.0264 12.4456 63.0264 12.5739V13.2063V13.8345V14.3838C63.0264 14.4725 63.099 14.5451 63.1877 14.5451H63.3313C63.4201 14.5451 63.4927 14.4725 63.4927 14.3838V13.8345V13.2063V12.5739C63.4927 12.4456 63.3878 12.3408 63.2595 12.3408Z" fill="#DBB03F"/>
<path d="M56.9056 25.646C56.3098 25.646 55.8223 26.1336 55.8223 26.7294V27.7781V27.9527V29.224C55.8223 29.6364 56.1597 29.9737 56.5721 29.9737H57.2393C57.6517 29.9737 57.989 29.6364 57.989 29.224V27.9527V27.7781V26.7294C57.989 26.1336 57.5015 25.646 56.9056 25.646Z" fill="#DBB03F"/>
<path d="M58.9205 25.646C58.6688 25.646 58.4629 25.852 58.4629 26.1038V27.3451V28.5784V29.657C58.4629 29.8312 58.6053 29.9737 58.7795 29.9737H59.0616C59.2357 29.9737 59.3782 29.8312 59.3782 29.657V28.5784V27.3451V26.1038C59.3782 25.852 59.1723 25.646 58.9205 25.646Z" fill="#DBB03F"/>
<path d="M54.8976 25.646C54.6459 25.646 54.4399 25.852 54.4399 26.1038V27.3451V28.5784V29.657C54.4399 29.8312 54.5825 29.9737 54.7567 29.9737H55.0386C55.2128 29.9737 55.3553 29.8312 55.3553 29.657V28.5784V27.3451V26.1038C55.3553 25.852 55.1493 25.646 54.8976 25.646Z" fill="#DBB03F"/>
<path d="M65.6472 17.4053C65.519 17.4053 65.4141 17.5102 65.4141 17.6383V18.2707V18.8988V19.4482C65.4141 19.5369 65.4867 19.6096 65.5754 19.6096H65.719C65.8078 19.6096 65.8804 19.5369 65.8804 19.4482V18.8988V18.2707V17.6383C65.8804 17.5102 65.7755 17.4053 65.6472 17.4053Z" fill="#DBB03F"/>
<path d="M64.8484 17.4053C64.7203 17.4053 64.6152 17.5102 64.6152 17.6383V18.2707V18.8988V19.4482C64.6152 19.5369 64.6879 19.6096 64.7766 19.6096H64.9202C65.0089 19.6096 65.0816 19.5369 65.0816 19.4482V18.8988V18.2707V17.6383C65.0816 17.5102 64.9766 17.4053 64.8484 17.4053Z" fill="#DBB03F"/>
<path d="M64.0584 17.4053C63.9301 17.4053 63.8252 17.5102 63.8252 17.6383V18.2707V18.8988V19.4482C63.8252 19.5369 63.8978 19.6096 63.9866 19.6096H64.1302C64.2189 19.6096 64.2915 19.5369 64.2915 19.4482V18.8988V18.2707V17.6383C64.2915 17.5102 64.1865 17.4053 64.0584 17.4053Z" fill="#DBB03F"/>
<path d="M63.2595 17.4053C63.1313 17.4053 63.0264 17.5102 63.0264 17.6383V18.2707V18.8988V19.4482C63.0264 19.5369 63.099 19.6096 63.1877 19.6096H63.3313C63.4201 19.6096 63.4927 19.5369 63.4927 19.4482V18.8988V18.2707V17.6383C63.4927 17.5102 63.3878 17.4053 63.2595 17.4053Z" fill="#DBB03F"/>
<path d="M65.6472 25.1416C65.519 25.1416 65.4141 25.2465 65.4141 25.3747V26.007V26.6352V27.1845C65.4141 27.2733 65.4867 27.3459 65.5754 27.3459H65.719C65.8078 27.3459 65.8804 27.2733 65.8804 27.1845V26.6352V26.007V25.3747C65.8804 25.2465 65.7755 25.1416 65.6472 25.1416Z" fill="#DBB03F"/>
<path d="M64.8484 25.1416C64.7203 25.1416 64.6152 25.2465 64.6152 25.3747V26.007V26.6352V27.1845C64.6152 27.2733 64.6879 27.3459 64.7766 27.3459H64.9202C65.0089 27.3459 65.0816 27.2733 65.0816 27.1845V26.6352V26.007V25.3747C65.0816 25.2465 64.9766 25.1416 64.8484 25.1416Z" fill="#DBB03F"/>
<path d="M64.0584 25.1416C63.9301 25.1416 63.8252 25.2465 63.8252 25.3747V26.007V26.6352V27.1845C63.8252 27.2733 63.8978 27.3459 63.9866 27.3459H64.1302C64.2189 27.3459 64.2915 27.2733 64.2915 27.1845V26.6352V26.007V25.3747C64.2915 25.2465 64.1865 25.1416 64.0584 25.1416Z" fill="#DBB03F"/>
<path d="M63.2595 25.1416C63.1313 25.1416 63.0264 25.2465 63.0264 25.3747V26.007V26.6352V27.1845C63.0264 27.2733 63.099 27.3459 63.1877 27.3459H63.3313C63.4201 27.3459 63.4927 27.2733 63.4927 27.1845V26.6352V26.007V25.3747C63.4927 25.2465 63.3878 25.1416 63.2595 25.1416Z" fill="#DBB03F"/>
<path d="M87.0711 22.0361C86.9726 22.0361 86.8921 22.1167 86.8921 22.2152V22.7008V23.1833V23.6051C86.8921 23.6732 86.9478 23.7291 87.0159 23.7291H87.1263C87.1944 23.7291 87.2501 23.6732 87.2501 23.6051V23.1833V22.7008V22.2152C87.2501 22.1167 87.1696 22.0361 87.0711 22.0361Z" fill="#DBB03F"/>
<path d="M86.4578 22.0361C86.3593 22.0361 86.2788 22.1167 86.2788 22.2152V22.7008V23.1833V23.6051C86.2788 23.6732 86.3345 23.7291 86.4026 23.7291H86.513C86.5812 23.7291 86.6368 23.6732 86.6368 23.6051V23.1833V22.7008V22.2152C86.6368 22.1167 86.5563 22.0361 86.4578 22.0361Z" fill="#DBB03F"/>
<path d="M85.8514 22.0361H85.8513C85.7528 22.0361 85.6724 22.1167 85.6724 22.2152V22.7008V23.1833V23.6051C85.6724 23.6732 85.728 23.7291 85.7962 23.7291H85.9065C85.9746 23.7291 86.0304 23.6732 86.0304 23.6051V23.1833V22.7008V22.2152C86.0304 22.1167 85.9498 22.0361 85.8514 22.0361Z" fill="#DBB03F"/>
<path d="M85.2376 22.0361H85.2375C85.1391 22.0361 85.0586 22.1167 85.0586 22.2152V22.7008V23.1833V23.6051C85.0586 23.6732 85.1142 23.7291 85.1824 23.7291H85.2927C85.3609 23.7291 85.4166 23.6732 85.4166 23.6051V23.1833V22.7008V22.2152C85.4166 22.1167 85.336 22.0361 85.2376 22.0361Z" fill="#DBB03F"/>
<path d="M87.0711 27.4751C86.9726 27.4751 86.8921 27.5558 86.8921 27.6542V28.1398V28.6222V29.0441C86.8921 29.1123 86.9478 29.1681 87.0159 29.1681H87.1263C87.1944 29.1681 87.2501 29.1123 87.2501 29.0441V28.6222V28.1398V27.6542C87.2501 27.5558 87.1696 27.4751 87.0711 27.4751Z" fill="#DBB03F"/>
<path d="M86.4578 27.4751C86.3593 27.4751 86.2788 27.5558 86.2788 27.6542V28.1398V28.6222V29.0441C86.2788 29.1123 86.3345 29.1681 86.4026 29.1681H86.513C86.5812 29.1681 86.6368 29.1123 86.6368 29.0441V28.6222V28.1398V27.6542C86.6368 27.5558 86.5563 27.4751 86.4578 27.4751Z" fill="#DBB03F"/>
<path d="M85.8514 27.4751H85.8513C85.7528 27.4751 85.6724 27.5558 85.6724 27.6542V28.1398V28.6222V29.0441C85.6724 29.1123 85.728 29.1681 85.7962 29.1681H85.9065C85.9746 29.1681 86.0304 29.1123 86.0304 29.0441V28.6222V28.1398V27.6542C86.0304 27.5558 85.9498 27.4751 85.8514 27.4751Z" fill="#DBB03F"/>
<path d="M85.2376 27.4751H85.2375C85.1391 27.4751 85.0586 27.5558 85.0586 27.6542V28.1398V28.6222V29.0441C85.0586 29.1123 85.1142 29.1681 85.1824 29.1681H85.2927C85.3609 29.1681 85.4166 29.1123 85.4166 29.0441V28.6222V28.1398V27.6542C85.4166 27.5558 85.336 27.4751 85.2376 27.4751Z" fill="#DBB03F"/>
<path d="M72.7412 46.6796H74.5636V0.691029C73.9624 0.55856 73.3552 0.442702 72.7412 0.347168V46.6796Z" fill="#DBD7EE"/>
<path d="M25.3445 36.3578L25.3403 36.3569V36.3571C24.9383 36.3008 24.4937 36.3503 24.0267 36.522L7.64042 42.5455C6.45212 42.9659 5.85797 43.1762 5.85797 43.1762C5.29467 44.0261 4.76872 44.9001 4.28155 45.7957L8.18598 44.9104C8.19505 45.0597 8.19959 45.2104 8.19959 45.3621V45.7062C8.21889 46.6138 8.0696 47.5401 7.73141 48.4419L7.57707 48.8537C7.57676 49.257 7.54344 49.6594 7.4771 50.0571L7.3727 50.6834C7.29738 51.1839 7.16935 51.6842 6.98447 52.1771L6.97436 52.2038C6.84633 52.9569 6.60058 53.6939 6.23722 54.3853C5.59427 55.7281 4.55567 56.8453 3.27246 57.5862C3.63912 58.4603 3.84185 59.4203 3.84185 60.4277V64.2874C3.84185 64.7284 3.80213 65.1686 3.7232 65.6026L3.5928 66.3199V73.1714L24.0267 65.66C25.808 65.0051 27.2655 62.815 27.2655 60.793V39.0079C27.2655 38.7659 27.2443 38.5371 27.2046 38.3226C27.9971 38.2607 28.6695 37.6595 28.7908 36.841C26.7482 36.557 25.6122 36.3977 25.3829 36.3636C25.3701 36.3616 25.3574 36.3596 25.3445 36.3578Z" fill="#1D0C5C"/>
<path d="M27.5693 37.0173L6.62681 44.7156L4.458 45.4751C1.42834 50.9147 -0.103608 57.052 0.00544017 63.2617C0.927563 63.2357 1.81585 63.592 2.46395 64.2275C3.02344 64.0768 3.56703 63.8837 4.09082 63.6512V72.2561C4.09082 72.9347 3.99694 73.6088 3.81268 74.2594C3.79287 74.4784 3.76367 74.6958 3.72746 74.9193L27.5693 66.1551C29.3507 65.5004 30.8081 63.3103 30.8081 61.2883V39.5031C30.8081 37.4811 29.3507 36.3625 27.5693 37.0173Z" fill="#5C49A1"/>
<path d="M11.9008 48.0863C10.9988 46.8866 10.7482 45.3185 11.2314 43.8975C6.37367 45.5861 3.94487 46.4306 3.94487 46.4306C1.34863 51.4478 -0.00360093 57.0156 0.00197027 62.6647C15.7184 61.7989 24.8061 60.3379 27.2653 58.2819C24.1578 47.4335 14.8652 52.0296 11.9008 48.0863Z" fill="#3A248A"/>
<path d="M61.739 85.8696H10.8262C10.877 85.8901 10.9277 85.911 10.9782 85.9327C11.5711 86.1535 12.1412 86.4536 12.6722 86.8326L12.7387 86.8745C13.135 87.0988 13.5151 87.3627 13.8728 87.6664C13.9078 87.6928 13.9426 87.7195 13.9772 87.7467C14.1362 87.8606 14.2917 87.9815 14.4433 88.1094C14.6161 88.239 14.7837 88.3765 14.9455 88.522C15.29 88.7682 15.6123 89.0434 15.9089 89.3439C15.9578 89.3924 16.0061 89.4414 16.0537 89.4913C16.5344 89.6822 16.999 89.9258 17.4387 90.2221C17.6807 90.3512 17.9147 90.4935 18.1396 90.648C19.134 91.2853 19.965 92.1556 20.5553 93.1817H52.4379L53.1321 93.1849C56.3668 91.2891 59.281 88.8931 61.7666 86.0859C61.6971 86.0765 61.6277 86.0679 61.5582 86.0603C61.6174 85.9956 61.6776 85.932 61.739 85.8696Z" fill="#0C0424"/>
<path d="M62.4699 81.2174C62.4699 80.5657 62.6398 79.9537 62.9371 79.423C62.9559 79.3333 62.978 79.2448 63.0031 79.1577H4.08057C5.485 81.8137 7.21793 84.2692 9.22549 86.4699H61.4436C62.0643 85.7895 62.6586 85.0847 63.2251 84.3572C62.7515 83.7383 62.4699 82.9647 62.4699 82.1252V81.2174Z" fill="#1A0E47"/>
<path d="M2.12842 74.7622C2.77126 76.5262 3.5505 78.2245 4.45364 79.8443H63.6075C63.6677 79.5912 63.7541 79.348 63.8637 79.1181L63.6372 79.5709V79.5309C63.6372 78.9242 63.7843 78.3519 64.0446 77.8475C64.0559 77.8089 64.0678 77.7705 64.0803 77.7325C64.1593 77.2763 64.3225 76.8489 64.553 76.4668C64.6133 76.3178 64.6844 76.1797 64.756 76.0366C64.7758 75.9439 64.799 75.8525 64.8256 75.7627C64.8756 75.2965 65.0129 74.8563 65.2205 74.4589C65.2974 74.3051 65.3713 74.1525 65.4599 74.0048C65.5592 73.7587 65.6845 73.5259 65.8322 73.3096L65.9804 73.0874H4.33241C3.87723 73.9221 3.07974 74.5433 2.12842 74.7622Z" fill="#251564"/>
<path d="M16.5287 54.2278C12.0126 50.1632 0.728596 60.4372 0.00197849 62.6648C-0.00297404 66.7933 0.717351 70.8906 2.13014 74.7699C4.83667 78.2849 6.39081 79.1453 26.0863 78.198C29.9209 71.7836 30.7033 68.771 30.7033 68.771C31.4042 65.0158 26.6793 60.168 16.5287 54.2278Z" fill="#F8CC48"/>
<path d="M6.66204 75.8686C4.6293 75.9481 2.70675 74.9442 1.60986 73.231C1.78112 73.7941 1.9724 74.3509 2.18338 74.9003C2.6334 75.4675 3.12995 75.9961 3.66798 76.4807C5.84969 77.3624 7.92616 77.8104 9.89772 77.8249C13.0714 77.9358 17.3345 77.9316 22.6873 77.8119C23.1763 76.2189 22.2087 72.9631 19.7848 68.0448C11.5105 66.186 13.23 75.6122 6.66204 75.8686Z" fill="#E69F07"/>
<path d="M19.7393 94.3779C23.7072 96.3331 28.0091 97.5209 32.4181 97.8786C32.4181 97.8786 32.388 93.6545 32.3277 85.2065C23.9354 91.3207 19.7393 94.3779 19.7393 94.3779Z" fill="#160943"/>
<path d="M12.2236 62.9638C11.2085 62.2649 10.0639 61.8113 8.87719 61.6174C7.68992 61.4233 6.46077 61.4887 5.27712 61.8279C5.15517 61.8625 5.0845 61.9896 5.11917 62.1116C5.15383 62.2335 5.28083 62.3042 5.40278 62.2695C6.52216 61.9488 7.68322 61.8868 8.80353 62.0698C9.92446 62.2529 11.0053 62.6811 11.9633 63.3407C12.9215 64.0005 13.7072 64.8573 14.2782 65.8391C14.849 66.8204 15.2053 67.9269 15.3049 69.0862C15.3153 69.2126 15.4262 69.3067 15.5526 69.2962C15.679 69.2858 15.7731 69.1749 15.7627 69.0485C15.657 67.821 15.2796 66.6491 14.6749 65.6093C14.0703 64.5698 13.2383 63.6624 12.2236 62.9638Z" fill="#E69F07"/>
<path d="M30.3238 83.9159L9.22949 83.8847C9.36733 83.9795 9.50021 84.0846 9.6269 84.2003C9.8353 84.3592 10.0264 84.54 10.1964 84.7391C10.3881 84.902 10.5658 85.087 10.7256 85.2936L10.7935 85.3615C11.0708 85.6388 11.2943 85.9495 11.4645 86.2806C11.6281 86.3905 11.7897 86.501 11.9515 86.6166L12.1327 86.7298C12.3823 86.8798 12.6181 87.0619 12.8338 87.2764L12.907 87.3252C13.1084 87.4595 13.2757 87.6057 13.4549 87.7649L13.465 87.7713C13.7925 87.9673 14.0949 88.2175 14.3577 88.5213C14.4249 88.5714 14.4908 88.6238 14.5554 88.6791C14.8723 88.9508 15.1887 89.2225 15.5029 89.4975C15.6228 89.6024 15.7291 89.7203 15.8457 89.8287C15.9834 89.9569 16.1334 90.0748 16.2664 90.2078C16.5589 90.5002 16.8513 90.7926 17.1438 91.085C17.3035 91.2447 17.7272 91.7519 17.5679 91.5927L17.5573 91.582C17.6125 91.639 17.6662 91.6983 17.7183 91.7594C17.9141 91.9261 18.0954 92.1158 18.2579 92.3282C18.3275 92.4043 18.3944 92.4837 18.458 92.5664L18.5905 92.6989L18.32 93.638C18.9927 94.0084 19.6774 94.3567 20.3729 94.6822C20.3729 94.6822 20.4567 94.6111 20.6245 94.4686L32.0671 85.4185C32.6955 84.9232 33.0514 84.5473 33.0213 84.2957L33.0215 84.2956C33.0173 82.8349 33.0168 82.0255 33.0201 81.8633C31.6095 82.6951 30.711 83.3792 30.3238 83.9159Z" fill="#251564"/>
<path d="M31.6431 81.4534L5.76002 81.415C5.50952 81.4163 5.38428 81.417 5.38428 81.417C8.61697 86.5691 13.1197 90.8039 18.4601 93.715C18.4601 93.715 18.5333 93.6574 18.6798 93.5419L32.0669 82.9539C33.3272 81.9605 33.492 81.4476 31.6431 81.4534Z" fill="#483788"/>
<path d="M22.1111 78.9689L22.1061 78.9666C21.9406 78.8942 21.7484 78.8686 21.5436 78.9025L10.7163 80.6954C10.1019 80.7971 9.59912 81.3969 9.59912 82.0283V85.7814C9.59912 86.1339 9.75583 86.4247 10.0013 86.595C9.99787 86.5928 10.003 86.5963 10.017 86.6057H10.0171C10.0249 86.611 10.0329 86.6159 10.0409 86.621C10.2793 86.7782 11.5672 87.6325 13.9045 89.1838C14.3943 87.755 14.5067 86.7476 14.2423 86.1604L21.5436 84.9514C22.1581 84.8496 22.6608 84.2499 22.6608 83.6185V82.5348C23.3841 82.7141 24.5929 82.1668 26.2879 80.8917C26.1601 80.8333 24.7778 80.197 22.1327 78.9788C22.1255 78.9754 22.1183 78.9721 22.1111 78.9689Z" fill="#D6CFF8"/>
<path d="M25.563 81.1447L14.7359 82.9377C14.1214 83.0394 13.6187 83.6391 13.6187 84.2705V88.0237C13.6187 88.655 14.1214 89.0883 14.7359 88.9865L25.563 87.1937C26.1775 87.0919 26.6802 86.492 26.6802 85.8607V82.1076C26.6802 81.4763 26.1775 81.043 25.563 81.1447Z" fill="#A89FD8"/>
<path d="M26.5816 81.0801C26.3553 80.8861 26.0633 80.7739 25.7405 80.7739C25.6673 80.7739 25.589 80.7806 25.5061 80.7944L14.679 82.5872C14.2843 82.6525 13.929 82.8737 13.6743 83.1774C13.4203 83.4805 13.2627 83.8692 13.2627 84.2706V88.0237C13.2627 88.1031 13.2697 88.1839 13.2832 88.2652C13.3364 88.5864 13.4928 88.8585 13.7177 89.0514C13.9439 89.2454 14.2359 89.3576 14.5587 89.3576C14.632 89.3576 14.7103 89.3509 14.7931 89.3371L25.6201 87.5443C26.0149 87.479 26.3704 87.2578 26.6249 86.954C26.8789 86.651 27.0365 86.2623 27.0365 85.8609V82.1078C27.0365 82.0284 27.0295 81.9475 27.016 81.8662C26.9629 81.5451 26.8065 81.2731 26.5816 81.0801ZM26.3244 85.8609C26.3244 86.0908 26.2306 86.3176 26.0797 86.4977C25.9292 86.6772 25.7259 86.8068 25.5061 86.8432L14.679 88.6361C14.6413 88.6424 14.601 88.6454 14.5587 88.6454C14.4097 88.6454 14.2783 88.5964 14.1795 88.5116C14.0793 88.4257 14.009 88.3011 13.9843 88.1512C13.9781 88.114 13.9749 88.0716 13.9749 88.0237V84.2706C13.9749 84.0407 14.0685 83.8139 14.2196 83.6338C14.37 83.4542 14.5734 83.3247 14.7931 83.2883L25.6201 81.4954C25.6579 81.4891 25.6982 81.4861 25.7405 81.4861C25.8895 81.4861 26.021 81.5351 26.1197 81.6198C26.2199 81.7057 26.2901 81.8304 26.315 81.9803C26.3212 82.0174 26.3244 82.0599 26.3244 82.1078V85.8609Z" fill="#F8F8F8"/>
<path d="M19.0781 83.2515L16.0241 83.7646C15.6869 83.8212 15.4111 84.1511 15.4111 84.4977V87.1623C15.4111 87.509 15.6869 87.7463 16.0241 87.6896L19.0781 87.1766C19.4151 87.1199 19.691 86.7901 19.691 86.4435V83.7788C19.691 83.4322 19.4151 83.1949 19.0781 83.2515Z" fill="#251564"/>
<path d="M24.581 82.3272L21.527 82.8402C21.1898 82.8968 20.9141 83.2267 20.9141 83.5734V86.238C20.9141 86.5847 21.1898 86.822 21.527 86.7653L24.581 86.2524C24.918 86.1957 25.1939 85.8658 25.1939 85.5191V82.8545C25.1939 82.5079 24.918 82.2706 24.581 82.3272Z" fill="#251564"/>
<path d="M16.296 85.9335L16.214 85.8442L16.1115 85.932L15.978 86.7633L16.019 86.8182L16.189 86.6565L16.296 85.9335Z" fill="#F8F8F8"/>
<path d="M16.2178 86.6719L16.0498 86.8438L16.1008 86.8971L17.0525 86.7446L17.1349 86.6799L17.019 86.5449L16.2178 86.6719Z" fill="#F8F8F8"/>
<path d="M16.3163 85.6956L16.4393 84.958L16.3163 84.8242L16.2648 84.8735L16.1318 85.6941L16.2209 85.7839L16.3163 85.6956Z" fill="#F8F8F8"/>
<path d="M19.0297 84.522L19.2011 84.36L19.1412 84.3096L18.1788 84.4639L18.1069 84.5165L18.2213 84.6517L19.0297 84.522Z" fill="#F8F8F8"/>
<path d="M17.2694 84.8046L17.4409 84.6426L17.3809 84.5923L16.4187 84.7465L16.3467 84.7991L16.4612 84.9342L17.2694 84.8046Z" fill="#F8F8F8"/>
<path d="M18.9024 85.4945L19.0185 85.369L18.9305 85.2861L18.1176 85.4165L17.9946 85.5287L18.0971 85.6237L18.9024 85.4945Z" fill="#F8F8F8"/>
<path d="M17.1673 85.7923L17.0459 86.5191L17.1659 86.6447L17.2274 86.597L17.3608 85.7728L17.2683 85.6851L17.1673 85.7923Z" fill="#F8F8F8"/>
<path d="M18.9272 85.5095L18.8057 86.2364L18.9256 86.362L18.9871 86.3141L19.1205 85.4899L19.0281 85.4023L18.9272 85.5095Z" fill="#F8F8F8"/>
<path d="M19.0561 84.5356L18.9565 85.262L19.0386 85.3408L19.1511 85.2308L19.2741 84.4318L19.223 84.3784L19.0561 84.5356Z" fill="#F8F8F8"/>
<path d="M17.2962 84.8179L17.1968 85.5442L17.2787 85.623L17.3913 85.5129L17.5141 84.714L17.4632 84.6606L17.2962 84.8179Z" fill="#F8F8F8"/>
<path d="M17.978 86.3897L17.8101 86.5617L17.861 86.6149L18.8128 86.4622L18.8952 86.3975L18.7792 86.2627L17.978 86.3897Z" fill="#F8F8F8"/>
<path d="M23.0936 84.4503L23.2166 83.7128L23.0936 83.5791L23.0422 83.6283L22.9092 84.4489L22.9982 84.5386L23.0936 84.4503Z" fill="#F8F8F8"/>
<path d="M22.1845 84.8293L22.063 85.5562L22.183 85.6818L22.2445 85.634L22.3779 84.8098L22.2854 84.7222L22.1845 84.8293Z" fill="#F8F8F8"/>
<path d="M23.1142 84.6613L23.9194 84.5321L24.0354 84.4066L23.9475 84.3237L23.1346 84.454L23.0117 84.5663L23.1142 84.6613Z" fill="#F8F8F8"/>
<path d="M22.9956 85.4268L22.8276 85.5987L22.8786 85.652L23.8303 85.4994L23.9128 85.4346L23.7969 85.2998L22.9956 85.4268Z" fill="#F8F8F8"/>
<path d="M23.196 83.501L23.124 83.5536L23.2385 83.6888L24.0468 83.5591L24.2182 83.3971L24.1583 83.3467L23.196 83.501Z" fill="#F8F8F8"/>
<path d="M22.3134 83.8555L22.2139 84.5818L22.2959 84.6606L22.4083 84.5506L22.5314 83.7516L22.4804 83.6982L22.3134 83.8555Z" fill="#F8F8F8"/>
<path d="M23.9447 84.5471L23.8232 85.274L23.9432 85.3996L24.0047 85.3517L24.1381 84.5276L24.0457 84.4399L23.9447 84.5471Z" fill="#F8F8F8"/>
<path d="M59.6743 8.17193L59.6961 7.8508L59.9741 7.68847L59.6529 7.66666L59.4906 7.38872L59.4688 7.70985L59.1909 7.87217L59.512 7.89399L59.6743 8.17193Z" fill="#F8F8F8"/>
<path d="M62.4467 4.57185L62.4601 4.37346L62.6317 4.27325L62.4334 4.2597L62.3332 4.08807L62.3198 4.28635L62.1482 4.38667L62.3465 4.40012L62.4467 4.57185Z" fill="#F8F8F8"/>
<path d="M75.6346 7.79062L75.648 7.59234L75.8198 7.4921L75.6214 7.47867L75.5212 7.30705L75.5077 7.50533L75.336 7.60557L75.5344 7.61899L75.6346 7.79062Z" fill="#F8F8F8"/>
<path d="M69.7843 9.2654L69.803 8.9895L70.0417 8.85012L69.7659 8.83143L69.6265 8.59259L69.6078 8.8685L69.3691 9.00788L69.6449 9.02657L69.7843 9.2654Z" fill="#F8F8F8"/>
<path d="M83.7218 8.89138L83.7405 8.61547L83.9792 8.4761L83.7034 8.4574L83.564 8.21857L83.5453 8.49448L83.3066 8.63385L83.5824 8.65255L83.7218 8.89138Z" fill="#F8F8F8"/>
<path d="M76.331 3.86484L76.3461 3.64265L76.5385 3.53025L76.3162 3.51523L76.2039 3.3228L76.1888 3.54512L75.9964 3.65739L76.2187 3.67253L76.331 3.86484Z" fill="#F8F8F8"/>
<path d="M67.3388 5.01901L67.3552 4.77661L67.565 4.65425L67.3227 4.63779L67.2002 4.42808L67.1838 4.67038L66.9741 4.79285L67.2163 4.8092L67.3388 5.01901Z" fill="#F8F8F8"/>
<path d="M57.415 15.7388L57.4369 15.4177L57.7148 15.2554L57.3937 15.2336L57.2313 14.9556L57.2095 15.2767L56.9316 15.4391L57.2527 15.4609L57.415 15.7388Z" fill="#F8F8F8"/>
<path d="M81.2442 13.2264L81.2629 12.9506L81.5017 12.8112L81.2258 12.7925L81.0864 12.5538L81.0677 12.8296L80.8289 12.969L81.1048 12.9876L81.2442 13.2264Z" fill="#F8F8F8"/>
<path d="M90.2877 14.7908L90.3064 14.515L90.5451 14.3756L90.2693 14.3569L90.13 14.1182L90.1113 14.394L89.8725 14.5334L90.1483 14.5521L90.2877 14.7908Z" fill="#F8F8F8"/>
<path d="M68.8771 14.3938L68.8958 14.118L69.1345 13.9786L68.8587 13.9599L68.7193 13.7212L68.7006 13.997L68.4619 14.1364L68.7377 14.1551L68.8771 14.3938Z" fill="#F8F8F8"/>
<path d="M81.3857 19.7041L81.4021 19.4617L81.6119 19.3393L81.3696 19.3229L81.2471 19.1131L81.2306 19.3554L81.0209 19.4779L81.2632 19.4943L81.3857 19.7041Z" fill="#F8F8F8"/>
<path d="M76.248 15.2564L76.2699 14.9353L76.5478 14.7729L76.2267 14.7511L76.0643 14.4732L76.0425 14.7943L75.7646 14.9566L76.0857 14.9785L76.248 15.2564Z" fill="#F8F8F8"/>
<path d="M52.9111 18.6863L52.9276 18.443L53.1384 18.3198L52.8949 18.3033L52.7719 18.0926L52.7554 18.336L52.5446 18.4591L52.7881 18.4757L52.9111 18.6863Z" fill="#F8F8F8"/>
<path d="M55.9943 10.0165C55.4209 9.53936 55.2069 8.75466 55.4586 8.05249C55.7103 7.35032 56.3741 6.88018 57.12 6.87595C56.0082 6.31389 54.6509 6.7342 54.0513 7.82634C53.4517 8.91839 53.8255 10.2893 54.8965 10.9257C55.9675 11.5623 57.3503 11.2353 58.023 10.1866C57.3782 10.5618 56.5676 10.4937 55.9943 10.0165Z" fill="#F8F8F8"/>
<path d="M51.663 52.0658L52.1116 51.0724C49.7757 49.9351 45.4857 48.1898 43.0094 47.9661C42.0448 47.8791 41.0939 47.9524 40.1367 48.2648C37.0165 49.2831 32.9058 54.6335 30.8125 56.9027C31.3271 59.758 30.267 63.7226 27.6323 68.7967L28.0646 71.0965C29.9845 73.5653 32.864 75.1008 35.9838 75.3192C39.1036 75.5375 42.169 74.4182 44.414 72.2408C50.4299 63.736 52.8464 57.011 51.663 52.0658Z" fill="#D6CFF8"/>
<path d="M63.5835 76.3173C63.5835 76.3173 58.5948 65.4025 71.5781 56.2742C63.8944 55.6515 56.3809 54.88 52.112 51.0723C48.2326 58.8133 39.9421 71.7228 43.0234 73.8363C46.1047 75.9499 57.3554 77.7121 63.5835 76.3173Z" fill="#D6CFF8"/>
<path d="M51.3638 51.1328C54.5008 62.4143 60.8059 69.0154 67.7036 68.3287C67.9592 67.8521 68.3165 67.4383 68.7468 67.1166C68.8758 66.3466 69.2443 65.6576 69.7729 65.129L68.8257 66.0759V65.1347C68.8257 64.8341 68.8626 64.5346 68.9356 64.2431L68.956 64.1611C68.9622 63.8064 69.0188 63.4641 69.1186 63.1407L69.0851 63.2411V60.8547C69.0851 60.1053 69.3097 59.4083 69.6947 58.827C69.7435 58.694 69.7972 58.5626 69.8623 58.4324C69.9489 58.2594 70.0352 58.0865 70.1218 57.9135C70.3325 57.492 70.6134 57.129 70.9429 56.8309C71.1344 56.6191 71.348 56.4329 71.5782 56.274C66.0568 56.5064 57.5239 54.8793 51.3638 51.1328Z" fill="#D6CFF8"/>
<path d="M30.8129 56.9028L30.2237 58.0638C30.3425 58.2586 30.4267 58.4788 30.4665 58.7176C30.6335 59.7189 29.957 60.666 28.9557 60.8331L28.9129 60.8402C28.8051 60.8599 28.694 60.8703 28.5805 60.8703H28.3494C28.2034 60.8703 28.0686 60.8488 27.9256 60.8284C27.868 60.8203 27.8128 60.8069 27.7556 60.7967C27.712 60.7889 27.6692 60.7856 27.627 60.7794C27.5347 60.7718 27.4425 60.7571 27.3509 60.7352L27.3251 60.7308C27.2396 60.7185 27.1541 60.7002 27.0689 60.6753C26.6964 60.5995 26.3648 60.411 26.1113 60.1469L26.5534 63.7112C26.8586 63.8 27.131 63.9658 27.3482 64.1861C27.3644 64.2019 27.3802 64.2181 27.3958 64.2344C27.4221 64.2592 27.4475 64.2845 27.4721 64.3103C27.5065 64.3428 27.5395 64.3766 27.571 64.4114C27.6036 64.4412 27.6349 64.4719 27.6649 64.5035L27.7508 64.575C28.5307 65.2248 28.6361 66.3839 27.9862 67.1638C27.8254 67.3568 27.6333 67.5085 27.4235 67.6176C27.4326 67.6407 27.4411 67.664 27.4491 67.6875C27.5035 68.029 27.5636 68.4563 27.6328 68.7968C29.6787 69.3057 31.8507 68.7323 33.3804 67.2647C34.9705 65.7391 35.6241 63.4799 35.0941 61.341C34.5641 59.2021 32.9314 57.5095 30.8129 56.9028Z" fill="#F8F8F8"/>
<path d="M30.3347 57.6855C29.9695 58.4053 29.787 58.7651 29.787 58.7651C27.2989 58.2885 26.0547 58.05 26.0547 58.05C26.0547 58.05 26.4127 60.9366 27.1288 66.7097C27.1288 66.7097 27.2308 67.0431 27.4348 67.7097C29.2272 68.2335 31.163 67.7595 32.5106 66.4667C33.8582 65.1737 34.4119 63.2593 33.9628 61.4467C33.5136 59.634 32.1301 58.1996 30.3347 57.6855Z" fill="#F8855F"/>
<path d="M27.6905 58.3633C27.35 58.6842 27.1797 58.8448 27.1797 58.8448C27.1797 58.8448 27.1933 61.5664 27.2203 67.0094C27.2203 67.0094 27.2917 67.2428 27.4345 67.7095C29.7881 68.3974 32.303 67.3535 33.4779 65.2012C33.4779 65.2012 31.6917 62.9492 28.1193 58.4455C27.8335 58.3907 27.6905 58.3633 27.6905 58.3633Z" fill="#E66D45"/>
<path d="M28.5461 59.3789C27.6625 64.4657 27.2207 67.0093 27.2207 67.0093C27.2865 67.2459 27.3607 67.4801 27.4428 67.7116C27.9667 67.8642 28.5113 67.9335 29.0567 67.9169C30.6824 67.0537 31.6548 65.3213 31.5449 63.4839C31.435 61.6465 30.2631 60.0422 28.5461 59.3789Z" fill="#E66D45"/>
<path d="M44.4735 48.216C43.3832 47.945 42.3518 47.8687 41.3791 47.9871C40.2482 48.1367 39.2551 48.5324 38.3999 49.1742C37.2769 49.9219 35.7884 51.3166 33.9346 53.3585C35.8285 51.7537 37.2575 52.1535 38.7449 52.77C45.71 55.6571 46.6846 49.3642 51.2248 53.0533C51.8162 51.7327 52.1119 51.0725 52.1119 51.0725C50.897 50.4801 49.515 49.8914 47.9659 49.3062C46.9929 48.9267 45.8288 48.5634 44.4735 48.216Z" fill="#E7E4F8"/>
<path d="M42.4325 47.9337C41.4433 47.9225 40.5529 48.08 39.7613 48.4059C39.0412 48.6845 38.1827 49.2537 37.186 50.1136C39.1552 48.8709 40.224 50.8898 42.4708 50.6907C44.4806 50.5128 46.2079 49.0194 49.2817 49.8202C48.2129 49.3811 47.139 48.9918 46.0602 48.6518C44.6466 48.1915 43.4373 47.952 42.4325 47.9337Z" fill="#F8F8F8"/>
<path d="M32.1655 68.94C31.1259 68.1792 29.837 67.8693 28.5843 68.0551V68.055C22.7474 63.9648 19.8288 61.9197 19.8288 61.9197C20.0051 62.2479 20.1906 62.57 20.3849 62.886L18.9799 61.8665C18.9799 61.8665 17.0843 61.4887 13.293 60.7329C15.5057 63.8724 22.1139 75.942 25.2869 77.4536C28.4143 78.9434 33.6207 76.9372 33.5806 74.4877C33.5806 74.4877 33.7719 73.964 34.1544 72.9167C34.1726 71.3477 33.4318 69.8665 32.1655 68.94Z" fill="#F8825A"/>
<path d="M31.1798 72.946C28.9478 73.6979 26.3522 78.7843 22.2861 74.4431C24.1071 76.8111 25.4614 78.308 28.6588 77.8681C29.92 77.6946 31.05 77.3497 32.1069 76.511C33.1891 76.3383 34.0373 73.0262 34.0373 73.0262C33.0926 72.5553 32.18 72.6091 31.1798 72.946Z" fill="#E66D45"/>
<path d="M22.3197 64.1693C21.1406 62.6839 18.7945 61.9267 15.2812 61.8975C16.5629 68.5491 21.411 67.1772 25.2132 68.2941C28.2122 69.1752 28.4286 71.6626 30.2714 71.6626C30.9271 71.6626 31.5431 71.3484 31.9281 70.8176C30.6347 69.521 29.5372 68.7043 28.6355 68.3674C28.6355 68.3674 26.5303 66.968 22.3197 64.1693Z" fill="#E66D44"/>
<path d="M28.6692 68.0676C28.6035 68.0293 28.5191 68.0514 28.4807 68.1171C28.4424 68.1828 28.4645 68.2672 28.5303 68.3056C30.818 69.643 32.078 71.0118 32.3099 72.4119C32.3221 72.4868 32.3928 72.5378 32.4677 72.5256C32.5426 72.5135 32.5936 72.4427 32.5814 72.3678C32.3352 70.8817 31.0311 69.4483 28.6692 68.0676Z" fill="#F8825A"/>
<path d="M28.9252 65.4636C28.01 69.104 30.2397 72.8315 33.8802 73.7467L60.2875 80.3856C60.3156 80.2951 60.3472 80.206 60.3819 80.1186C60.4499 79.8689 60.5434 79.6298 60.6597 79.4043C60.6918 79.295 60.7286 79.1878 60.7702 79.083C60.8843 78.663 61.0711 78.273 61.316 77.9271C61.3841 77.3517 61.585 76.8172 61.8873 76.3548L61.5497 76.8612V76.5476C61.5497 76.1151 61.6246 75.7003 61.7617 75.3148L61.8681 74.9959C61.9718 74.6847 62.0612 74.3969 62.2094 74.101C62.2653 73.765 62.3323 73.4375 62.3992 73.1031C62.4523 72.8374 62.5348 72.5785 62.6447 72.3309L63.1353 71.227L63.6762 69.442L63.7915 68.635C63.8371 68.3156 63.9246 68.0034 64.0518 67.7068L64.2222 67.3091C55.2109 65.1442 46.1905 62.7668 37.2083 60.5087C33.5679 59.5935 29.8404 61.823 28.9252 65.4636Z" fill="#483788"/>
<path d="M49.1964 66.3782C41.8839 63.8603 40.9558 70.7417 35.2143 70.8825C33.1589 70.9329 31.1781 70.1125 29.7603 68.6238C30.3641 70.8327 32.0916 72.5571 34.3014 73.1571C48.3156 76.7698 55.3226 78.5762 55.3226 78.5762C55.3226 78.5762 55.1449 76.8048 54.7894 73.2619C54.3893 70.0889 52.2202 67.4193 49.1964 66.3782Z" fill="#1D0C5C"/>
<path d="M37.2082 60.5085C35.4251 60.065 33.5387 60.3573 31.9734 61.3196C30.4081 62.282 29.2958 63.8334 28.8867 65.6247C30.1316 66.9292 31.9055 67.5912 33.7008 67.4213C35.9096 67.2122 37.3334 65.4974 38.8488 64.3002C43.1455 60.9054 44.3706 66.2638 47.5512 63.8901C47.5512 63.8901 46.8124 63.451 45.3348 62.5727C45.3348 62.5727 42.626 61.8846 37.2082 60.5085Z" fill="#6B59AE"/>
<path d="M57.8204 56.0476C56.0965 54.8494 54.0712 53.4822 51.6631 52.0654L48.0411 60.2243L53.4035 63.4116L43.3676 73.2685L39.1841 72.161C38.5247 71.9764 37.9737 72.0123 37.5309 72.2688L34.3987 73.5916C33.8914 73.8382 33.5802 74.1267 33.4649 74.4574L31.7202 77.7836C31.79 78.0827 32.0786 78.2773 32.3819 78.2298C32.597 78.6055 33.1044 78.6881 33.4276 78.4001C33.652 78.6948 34.0837 78.7289 34.3516 78.473L37.8899 77.2572L42.5542 77.7036C44.2066 78.0027 45.561 77.775 46.6173 77.0206C50.659 74.3069 59.2536 68.9723 62.298 65.6177C64.6643 63.0103 64.1957 60.4787 57.8204 56.0476Z" fill="#F88E6C"/>
<path d="M38.1339 73.6256L35.1639 74.4832C35.1329 74.4896 35.104 74.5066 35.0831 74.5336L32.2731 78.1456C32.2265 78.2056 32.2373 78.2922 32.2974 78.3389C32.3575 78.3856 32.4439 78.3747 32.4907 78.3146L35.2735 74.7375L38.2105 73.8895C38.2833 73.8684 38.3253 73.7921 38.3041 73.7192C38.2831 73.6463 38.2067 73.6045 38.1339 73.6256Z" fill="#E9280A"/>
<path d="M38.9794 75.1707L36.2063 75.9516L36.2064 75.9519C36.1886 75.9568 36.1715 75.9656 36.1563 75.9781L33.3402 78.294C33.2816 78.3422 33.2731 78.4287 33.3213 78.4873C33.3695 78.5459 33.456 78.5544 33.5146 78.5062L36.308 76.2089L39.0537 75.4356C39.1268 75.4151 39.1695 75.3392 39.1491 75.266C39.1286 75.1929 39.0525 75.1501 38.9794 75.1707Z" fill="#E9280A"/>
<path d="M50.8912 53.8042C50.1641 55.4422 49.2778 57.4385 48.2324 59.7932C48.2324 59.7932 50.0023 60.8908 53.542 63.0857C54.4808 62.3663 55.4642 61.9852 56.4922 61.9425C56.5822 56.7324 48.5352 62.9815 50.8912 53.8042Z" fill="#E66D45"/>
<path d="M57.4917 61.3937C56.3088 63.4951 57.112 66.6097 56.0373 68.7417C54.0632 72.6582 46.6426 69.417 46.9006 76.3281C54.571 71.0804 58.4062 68.4565 58.4062 68.4565C62.7195 67.3231 63.5573 63.5297 61.3622 58.417C59.7209 58.8415 58.3233 59.9163 57.4917 61.3937Z" fill="#E66D45"/>
<path d="M53.3066 63.5092C49.8717 66.8805 46.5586 70.1337 43.3675 73.2685C43.3675 73.2685 42.5395 73.0493 40.8833 72.6109C41.3187 73.8105 42.4818 74.5889 43.7568 74.5338C46.2173 74.4274 46.3454 71.2311 50.1243 69.4174C52.5951 68.2314 55.0565 67.1857 53.8891 63.1416C53.5007 63.3866 53.3066 63.5092 53.3066 63.5092Z" fill="#F8C0A4"/>
<path d="M58.5939 56.5969C56.5109 55.0934 54.2005 53.583 51.6631 52.0654C51.6631 52.0654 51.4542 52.5358 51.0366 53.4766C53.4964 54.1669 52.346 57.6881 55.9787 58.9656C57.3233 59.4383 58.8085 59.2886 60.0317 58.5569C60.055 57.9987 59.5758 57.3454 58.5939 56.5969Z" fill="#F8C0A4"/>
<path d="M47.9824 59.9765C47.402 59.6202 46.7926 59.2715 46.1717 58.9162C44.6896 58.068 43.1414 57.1817 41.9376 56.1755C41.6785 55.9591 41.4362 55.7304 41.2221 55.4872C41.0099 55.2461 40.8264 54.9924 40.6836 54.7245C40.636 54.6352 40.5251 54.6014 40.4358 54.6491C40.3466 54.6966 40.3129 54.8076 40.3604 54.8969C40.5189 55.1941 40.7182 55.4707 40.9463 55.7298C41.1726 55.9868 41.4285 56.2284 41.702 56.457C42.9323 57.4853 44.4942 58.3792 45.9894 59.235C46.6158 59.5935 47.2306 59.9455 47.7915 60.2896C47.8779 60.3423 47.9908 60.315 48.0435 60.2285C48.0962 60.1421 48.0689 60.0292 47.9824 59.9765Z" fill="#A89FD8"/>
<path d="M84.377 52.1348C80.6041 50.957 78.264 51.5145 74.4141 52.0711C67.9329 53.0081 63.6312 53.16 57.0702 52.0357C55.7646 51.8324 55.1366 52.7177 56.0499 53.6413C60.8581 58.2929 60.3584 62.2056 58.5254 68.2677C57.5567 71.4711 56.6178 74.6574 57.8899 77.9333C59.4408 81.9266 63.3578 83.0224 62.2371 85.7776C68.3856 78.57 71.3741 69.1908 70.5289 59.7548C77.1133 59.2417 83.3391 56.55 88.2236 52.1048C87.0144 52.9162 85.7901 52.5759 84.377 52.1348Z" fill="#F8CC48"/>
<path d="M66.5932 62.8967C56.0333 68.5445 70.9301 73.2049 64.4029 82.6538C69.0973 75.7011 71.15 68.0929 70.5614 59.8296C69.8255 61.2367 68.1853 62.0451 66.5932 62.8967Z" fill="#EFB026"/>
<path d="M84.377 51.8252C80.6041 50.6474 78.264 51.205 74.4141 51.7615C67.933 52.6985 63.6312 52.8504 57.0702 51.7262C55.7646 51.5228 55.1366 52.4081 56.0499 53.3318C60.8582 57.9833 60.3584 61.896 58.5253 67.9581C57.56 71.1506 56.6246 74.3262 57.8774 77.5903C57.8289 76.9871 57.8032 76.3826 57.8032 75.7779H57.8031V75.3018C57.8031 62.88 67.8729 52.8104 80.2946 52.8104C82.2975 52.8104 84.2386 53.0734 86.0869 53.5647C86.8238 53.0103 87.5369 52.4202 88.2236 51.7953C87.0144 52.6067 85.7901 52.2664 84.377 51.8252Z" fill="#F8E276"/>
<path d="M26.2818 57.4326L25.7622 57.333L25.8392 57.9533C25.9532 57.7531 26.1038 57.5767 26.2818 57.4326Z" fill="#F8F8F8"/>
<path d="M19.888 65.3611C18.9253 65.0931 17.9254 65.32 17.6545 65.8677C17.3837 66.4154 17.9447 67.0768 18.9075 67.3449C19.8703 67.6129 20.8703 67.386 21.141 66.8383C21.4118 66.2906 20.8509 65.6292 19.888 65.3611Z" fill="#F88E6C"/>
<path d="M19.7688 65.6024C19.1688 65.4354 18.5456 65.5767 18.3769 65.9181C18.2081 66.2595 18.5579 66.6715 19.1578 66.8386C19.7577 67.0056 20.3809 66.8644 20.5496 66.523C20.7183 66.1816 20.3687 65.7694 19.7688 65.6024Z" fill="#E9421D"/>
<path d="M19.7812 65.5771C19.4266 65.4784 19.0584 65.562 18.9586 65.7637C18.859 65.9653 19.0656 66.2088 19.4201 66.3076C19.7747 66.4063 20.143 66.3227 20.2427 66.121C20.3424 65.9193 20.1358 65.6758 19.7812 65.5771Z" fill="#C00700"/>
<path d="M25.4475 54.1139C24.6499 53.5117 23.7838 53.4678 23.513 54.0155C23.2422 54.5632 23.6693 55.4955 24.467 56.0976C25.2646 56.6997 26.1307 56.7439 26.4015 56.1961C26.6723 55.6483 26.2451 54.7161 25.4475 54.1139Z" fill="#F08765"/>
<path d="M25.1976 54.6202C24.7005 54.245 24.1608 54.2176 23.9921 54.5589C23.8233 54.9003 24.0895 55.4812 24.5866 55.8564C25.0837 56.2316 25.6233 56.2591 25.7921 55.9177C25.9608 55.5764 25.6946 54.9954 25.1976 54.6202Z" fill="#E9421D"/>
<path d="M24.9347 55.1517C24.6409 54.93 24.322 54.9137 24.2223 55.1154C24.1227 55.3172 24.2799 55.6604 24.5736 55.8822C24.8673 56.1039 25.1863 56.1201 25.286 55.9184C25.3857 55.7167 25.2284 55.3735 24.9347 55.1517Z" fill="#C00700"/>
<path d="M24.3582 55.4832C22.5797 54.3462 20.3172 54.2906 18.4851 55.3387C16.653 56.3869 15.5542 58.3656 15.6329 60.4749C15.7117 62.5842 16.9549 64.4754 18.8601 65.3841C21.409 66.7189 24.3832 66.9882 27.1303 66.133C28.6014 64.9277 29.5293 63.1842 29.7074 61.2907C28.9301 58.7768 27.147 56.841 24.3582 55.4832Z" fill="#F08765"/>
<path d="M24.3585 55.4831C22.5801 54.3462 20.3175 54.2907 18.4853 55.3388C16.7728 56.3185 15.7012 58.1111 15.6328 60.0636C17.2998 57.4057 20.5089 55.9442 23.7513 56.6494C26.6857 57.2877 28.8579 59.5293 29.5497 62.2549C29.6239 61.9393 29.677 61.6172 29.7077 61.2907C28.9304 58.7768 27.1474 56.8409 24.3585 55.4831Z" fill="#F8C0A4"/>
<path d="M24.0788 64.3802C22.741 61.4744 20.6546 64.0877 19.1355 56.8062C15.3219 61.48 15.3424 64.295 19.1964 65.2511C21.3778 66.1971 23.5253 66.4906 25.6387 66.1317C25.9714 65.9947 26.1378 65.9261 26.1378 65.9261C24.6624 65.9049 24.4403 65.1653 24.0788 64.3802Z" fill="#E66D45"/>
<path d="M22.9843 64.3288C22.3729 64.8944 21.4627 64.9918 20.7453 64.5685C19.6399 64.8905 19.0874 65.0514 19.0874 65.0514C18.9301 65.1873 18.9668 65.2538 19.197 65.2514C19.7249 65.4814 20.2672 65.6769 20.8204 65.8367C21.7941 66.0682 22.8102 65.679 23.38 64.8562C23.9499 64.0335 23.957 62.9454 23.398 62.1152C23.764 62.8635 23.5959 63.7633 22.9843 64.3288Z" fill="#E66D45"/>
<path d="M23.6644 54.7919C22.1365 53.3469 19.0598 51.4003 17.8909 52.9886C16.0894 52.7152 14.2622 53.2847 12.9351 54.5333C10.4861 56.8377 10.7296 61.3662 12.0848 59.6035C11.6902 64.433 15.9366 65.0786 18.0708 65.353C19.4621 65.5318 19.9182 65.161 17.6035 63.8171C22.1238 62.5931 16.4533 54.1373 21.1088 54.9967C23.3417 55.4088 26.327 57.31 23.6644 54.7919Z" fill="#070D0D"/>
<path d="M28.0268 59.75C27.6665 59.77 27.6086 59.9543 28.0473 60.4115C28.8699 61.2853 29.0722 62.5708 28.5586 63.6592C28.045 64.7475 26.9184 65.4202 25.7125 65.3588C25.0075 65.3066 24.898 65.7093 25.202 66.0252C25.7899 66.6363 27.8273 67.3052 29.4365 66.3336C30.6241 65.6165 31.297 64.2898 31.1681 62.9196C30.9579 60.6862 28.8279 59.7054 28.0268 59.75Z" fill="#070D0D"/>
<path d="M22.6415 56.3789C22.3352 56.588 22.0699 56.8478 21.856 57.1449C21.6424 57.4414 21.4801 57.7752 21.3787 58.1328C21.345 58.251 21.4136 58.3742 21.5318 58.408C21.65 58.4417 21.7732 58.3732 21.807 58.255C21.8939 57.948 22.0338 57.661 22.2179 57.4055C22.4014 57.1505 22.6295 56.9271 22.8937 56.7469C22.9954 56.6773 23.0213 56.5384 22.9516 56.4368C22.882 56.3352 22.7431 56.3093 22.6415 56.3789Z" fill="#030909"/>
<path d="M19.8763 61.2293C19.6537 61.5269 19.4871 61.8588 19.3813 62.2086C19.2752 62.5589 19.2297 62.9273 19.2497 63.2976C19.2561 63.4207 19.361 63.5153 19.4841 63.5089C19.6071 63.5025 19.7017 63.3976 19.6953 63.2745C19.6781 62.9552 19.717 62.6383 19.808 62.3376C19.8992 62.0362 20.0425 61.7508 20.2334 61.4953C20.3069 61.3967 20.2866 61.2572 20.1879 61.1838C20.0893 61.1103 19.9497 61.1306 19.8763 61.2293Z" fill="#030909"/>
<path d="M25.7413 60.8447C25.7545 60.663 25.6567 60.496 25.4954 60.4253C25.3343 60.3545 25.1431 60.3943 25.0149 60.5254C24.8866 60.6567 24.8477 60.852 24.9173 61.0165C22.4668 60.254 22.3127 60.5918 24.4548 62.0299C24.2752 62.0524 24.1214 62.1813 24.0638 62.358C24.0061 62.5346 24.0554 62.7253 24.1892 62.8433C24.323 62.9613 24.5157 62.984 24.6799 62.9012C24.7739 62.7606 24.9224 62.678 25.1258 62.6537C26.0519 62.5585 26.2755 62.1063 25.7963 61.2972C25.7164 61.1634 25.6965 60.9993 25.7413 60.8447Z" fill="#ED3418"/>
<path d="M27.2862 61.4382C27.2084 61.4265 27.1381 61.4779 27.1294 61.5528C27.0811 61.9663 26.9661 62.3637 26.7906 62.7315C26.6149 63.0998 26.3784 63.4394 26.0875 63.7366C26.0349 63.7905 26.0393 63.8774 26.0973 63.9306C26.1554 63.9839 26.245 63.9833 26.2976 63.9294C26.6078 63.6124 26.8605 63.2494 27.0485 62.8554C27.2368 62.4609 27.3602 62.0358 27.4116 61.5949C27.4203 61.52 27.3641 61.4498 27.2862 61.4382Z" fill="#C00700"/>
<path d="M27.6007 62.3795C27.5643 62.3746 27.5309 62.4002 27.526 62.4367C27.4992 62.6374 27.4412 62.8311 27.3552 63.0111C27.2691 63.1913 27.1546 63.3581 27.0153 63.505C26.99 63.5316 26.9912 63.5738 27.0179 63.599C27.0446 63.6241 27.0866 63.6229 27.1118 63.5963C27.2605 63.4396 27.3825 63.2612 27.4748 63.0685C27.5671 62.8754 27.6292 62.6683 27.6578 62.4542C27.6626 62.4178 27.6372 62.3843 27.6007 62.3795Z" fill="#C00700"/>
<path d="M23.8872 56.9591C23.7423 56.8875 23.5668 56.9468 23.4952 57.0918C23.4236 57.2367 23.483 57.4122 23.6279 57.4838C23.7728 57.5554 23.9483 57.4961 24.0199 57.3511C24.0915 57.2062 24.0322 57.0307 23.8872 56.9591Z" fill="#F0F0F0"/>
<path d="M21.5874 61.6119C21.4425 61.5403 21.267 61.5996 21.1954 61.7446C21.1238 61.8895 21.1832 62.065 21.3281 62.1366C21.473 62.2082 21.6485 62.1488 21.7201 62.004C21.7917 61.859 21.7324 61.6835 21.5874 61.6119Z" fill="#F0F0F0"/>
<path d="M19.3793 61.9168C18.1095 58.696 12.7931 61.3268 13.5813 54.0059C13.3554 54.1653 13.1393 54.3412 12.9351 54.5333C10.4861 56.8376 10.7296 61.3661 12.0848 59.6034C11.6902 64.4329 15.9365 65.0785 18.0707 65.3529C19.462 65.5317 19.9181 65.1609 17.6034 63.817C18.6873 63.5236 19.1844 62.8138 19.3793 61.9168Z" fill="black"/>
<path d="M23.6646 54.792C22.1367 53.347 19.06 51.4003 17.8911 52.9886C16.2385 52.7378 14.5643 53.1965 13.2744 54.238C15.4123 53.8263 17.4759 56.9449 19.1956 56.0003C19.3537 55.2077 19.8585 54.766 21.109 54.9968C23.3419 55.4089 26.3272 57.3101 23.6646 54.792Z" fill="#273939"/>
<path d="M24.886 56.6025C24.8474 56.5835 24.8087 56.5659 24.7694 56.5497C24.7674 56.5439 24.7648 56.5382 24.7617 56.5326L23.3307 53.9468C23.2993 53.8903 23.2283 53.8701 23.1719 53.9015C23.1156 53.9328 23.0951 54.0038 23.1265 54.0603L24.4486 56.4493C24.1101 56.376 23.7636 56.3992 23.4457 56.5068C22.9884 56.6616 22.5902 56.9907 22.3594 57.4575C22.1286 57.9243 22.109 58.4406 22.2638 58.8978C22.3881 59.2653 22.6252 59.5946 22.9558 59.8297C22.8721 59.8743 22.7939 59.9279 22.7223 59.9893C22.5912 60.1017 22.4828 60.24 22.4051 60.3972C22.3274 60.5543 22.2835 60.7243 22.2737 60.8967C22.2679 60.9985 22.2742 61.1009 22.2926 61.2019C21.8903 61.0725 21.4676 61.0826 21.0855 61.212C20.6177 61.3703 20.2102 61.7071 19.9742 62.1848C19.738 62.6625 19.718 63.1906 19.8763 63.6584C19.9908 63.9969 20.1988 64.3038 20.4861 64.537L17.5243 65.3669C17.4622 65.3844 17.4259 65.4491 17.4433 65.5112C17.4608 65.5734 17.5255 65.6097 17.5876 65.5923L20.7324 64.711L20.7369 64.7096C20.7733 64.7307 20.8107 64.7507 20.8489 64.7696C21.3266 65.0056 21.8548 65.0259 22.3225 64.8676C22.7903 64.7093 23.1978 64.3725 23.4338 63.8948C23.67 63.4172 23.69 62.889 23.5317 62.4213C23.3738 61.9544 23.038 61.5477 22.5617 61.3114C22.5175 61.1812 22.4994 61.0449 22.5071 60.91C22.5151 60.7696 22.5513 60.6305 22.6153 60.501C22.6793 60.3715 22.7679 60.2583 22.8745 60.1667C22.9697 60.085 23.0793 60.0201 23.1988 59.9762L23.2145 59.9841C23.6813 60.2148 24.1976 60.2345 24.6548 60.0797C25.112 59.9251 25.5102 59.5959 25.741 59.129C25.9718 58.6622 25.9915 58.1458 25.8367 57.6887C25.6821 57.2315 25.3529 56.8333 24.886 56.6025ZM23.3098 62.4964C23.4489 62.9073 23.4312 63.3713 23.2238 63.791C23.0163 64.2107 22.6584 64.5066 22.2475 64.6457C21.8366 64.7848 21.3725 64.767 20.9528 64.5595C20.5331 64.3521 20.2372 63.9942 20.0982 63.5833C19.9591 63.1723 19.9767 62.7083 20.1842 62.2886C20.3917 61.8689 20.7497 61.573 21.1606 61.4339C21.5715 61.2949 22.0356 61.3126 22.4553 61.52C22.875 61.7275 23.1708 62.0854 23.3098 62.4964ZM25.5309 59.0252C25.3288 59.434 24.9801 59.7224 24.5797 59.8578C24.1793 59.9933 23.7271 59.9762 23.3183 59.774C22.9094 59.5718 22.6212 59.2231 22.4857 58.8227C22.3502 58.4223 22.3674 57.9702 22.5695 57.5613C22.7716 57.1524 23.1203 56.8642 23.5207 56.7287C23.9211 56.5933 24.3733 56.6105 24.7821 56.8126C25.1911 57.0147 25.4794 57.3634 25.6148 57.7638C25.7503 58.1642 25.733 58.6162 25.5309 59.0252Z" fill="#F0F0F0"/>
<path d="M26.7479 65.2287C26.4189 65.3307 26.0692 65.3769 25.7125 65.3587C25.0075 65.3065 24.898 65.7093 25.202 66.0252C25.7899 66.6362 27.8272 67.3052 29.4364 66.3335C30.3532 65.78 30.9632 64.863 31.1344 63.8433C31.0052 64.0185 30.8626 64.1804 30.7089 64.3282C29.6367 65.3941 28.0889 65.6953 26.7479 65.2287Z" fill="black"/>
<path d="M24.3247 58.508C24.156 58.4246 23.9517 58.4938 23.8684 58.6624C23.785 58.8311 23.8541 59.0354 24.0227 59.1187C24.1914 59.2021 24.3957 59.133 24.4791 58.9644C24.5625 58.7957 24.4934 58.5914 24.3247 58.508Z" fill="black"/>
<path d="M21.9248 63.1589C21.7513 63.0732 21.541 63.1443 21.4553 63.3179C21.3696 63.4914 21.4406 63.7016 21.6142 63.7874C21.7877 63.8731 21.9981 63.802 22.0838 63.6284C22.1696 63.4549 22.0985 63.2447 21.9248 63.1589Z" fill="black"/>
<path d="M40.3627 42.606C40.237 42.606 40.1353 42.7078 40.1353 42.8334C40.1353 42.9591 40.237 43.0609 40.3627 43.0609C40.4884 43.0609 40.5902 42.9591 40.5902 42.8334C40.5902 42.7078 40.4884 42.606 40.3627 42.606Z" fill="#F8F8F8"/>
<path d="M41.0568 38.4604C40.9542 38.4604 40.8711 38.5436 40.8711 38.6462C40.8711 38.7487 40.9542 38.8319 41.0568 38.8319C41.1593 38.8319 41.2425 38.7487 41.2425 38.6462C41.2425 38.5436 41.1593 38.4604 41.0568 38.4604Z" fill="#F8F8F8"/>
<path d="M39.6749 43.0386C39.6236 43.0386 39.582 43.0802 39.582 43.1314C39.582 43.1827 39.6236 43.2243 39.6749 43.2243C39.7263 43.2243 39.7677 43.1827 39.7677 43.1314C39.7677 43.0802 39.7263 43.0386 39.6749 43.0386Z" fill="#F8F8F8"/>
<path d="M43.7994 35.6934C43.7481 35.6934 43.7065 35.7349 43.7065 35.7862C43.7065 35.8375 43.7481 35.8791 43.7994 35.8791C43.8507 35.8791 43.8922 35.8375 43.8922 35.7862C43.8922 35.7349 43.8507 35.6934 43.7994 35.6934Z" fill="#F8F8F8"/>
<path d="M41.8588 48.8823C41.7836 48.8823 41.7227 48.9432 41.7227 49.0184C41.7227 49.0936 41.7836 49.1545 41.8588 49.1545C41.934 49.1545 41.995 49.0936 41.995 49.0184C41.995 48.9432 41.934 48.8823 41.8588 48.8823Z" fill="#F8F8F8"/>
<path d="M36.7757 42.7578C36.7006 42.7578 36.6396 42.8188 36.6396 42.894C36.6396 42.9692 36.7006 43.0302 36.7757 43.0302C36.8509 43.0302 36.9118 42.9692 36.9118 42.894C36.9118 42.8188 36.8509 42.7578 36.7757 42.7578Z" fill="#F8F8F8"/>
<path d="M33.6623 42.4683C33.6248 42.4683 33.5942 42.4987 33.5942 42.5364C33.5942 42.574 33.6248 42.6044 33.6623 42.6044C33.6999 42.6044 33.7304 42.574 33.7304 42.5364C33.7304 42.4987 33.6999 42.4683 33.6623 42.4683Z" fill="#F8F8F8"/>
<path d="M44.9563 35.9658C44.9187 35.9658 44.8882 35.9963 44.8882 36.0339C44.8882 36.0715 44.9187 36.102 44.9563 36.102C44.9938 36.102 45.0244 36.0715 45.0244 36.0339C45.0244 35.9963 44.9938 35.9658 44.9563 35.9658Z" fill="#F8F8F8"/>
<path d="M45.6588 45.2358C45.6075 45.2358 45.5659 45.2774 45.5659 45.3287C45.5659 45.38 45.6075 45.4215 45.6588 45.4215C45.71 45.4215 45.7516 45.38 45.7516 45.3287C45.7516 45.2774 45.71 45.2358 45.6588 45.2358Z" fill="#F8F8F8"/>
<path d="M35.9336 36.478C35.808 36.478 35.7061 36.58 35.7061 36.7056C35.7061 36.8313 35.808 36.9332 35.9336 36.9332C36.0593 36.9332 36.1612 36.8313 36.1612 36.7056C36.1612 36.58 36.0593 36.478 35.9336 36.478Z" fill="#F8F8F8"/>
<path d="M38.6958 33.6309C38.633 33.6309 38.582 33.6818 38.582 33.7447C38.582 33.8075 38.633 33.8584 38.6958 33.8584C38.7587 33.8584 38.8096 33.8075 38.8096 33.7447C38.8096 33.6818 38.7587 33.6309 38.6958 33.6309Z" fill="#F8F8F8"/>
<path d="M33.02 84.2352C33.0212 84.2345 33.022 84.2338 33.0231 84.2332C33.0218 84.1925 33.0209 84.1944 33.02 84.2352Z" fill="#251564"/>
<path d="M26.2877 78.5205L26.2876 78.5206C26.3028 78.5276 26.3059 78.529 26.2877 78.5205Z" fill="#D6CFF8"/>
<path d="M48.7657 49.8657C48.7144 49.8657 48.6729 49.9073 48.6729 49.9586C48.6729 50.0098 48.7144 50.0514 48.7657 50.0514C48.817 50.0514 48.8586 50.0098 48.8586 49.9586C48.8586 49.9073 48.817 49.8657 48.7657 49.8657Z" fill="#F8F8F8"/>
<path d="M56.4922 49.7998C56.3666 49.7998 56.2646 49.9017 56.2646 50.0274C56.2646 50.1531 56.3666 50.255 56.4922 50.255C56.6179 50.255 56.7198 50.1531 56.7198 50.0274C56.7198 49.9017 56.6179 49.7998 56.4922 49.7998Z" fill="#F8F8F8"/>
<path d="M69.4004 41.8052C69.3033 41.8052 69.2246 41.8839 69.2246 41.981C69.2246 42.0782 69.3033 42.1568 69.4004 42.1568C69.4975 42.1568 69.5762 42.0782 69.5762 41.981C69.5762 41.8839 69.4975 41.8052 69.4004 41.8052Z" fill="#F8F8F8"/>
<path d="M75.5083 43.0576C75.4112 43.0576 75.3325 43.1363 75.3325 43.2334C75.3325 43.3305 75.4112 43.4092 75.5083 43.4092C75.6054 43.4092 75.6841 43.3305 75.6841 43.2334C75.6841 43.1363 75.6054 43.0576 75.5083 43.0576Z" fill="#F8F8F8"/>
<path d="M72.7412 50.7808C72.6441 50.7808 72.5654 50.8595 72.5654 50.9566C72.5654 51.0536 72.6441 51.1324 72.7412 51.1324C72.8383 51.1324 72.917 51.0536 72.917 50.9566C72.917 50.8595 72.8383 50.7808 72.7412 50.7808Z" fill="#F8F8F8"/>
<path d="M76.9068 34.5303C76.8097 34.5303 76.731 34.609 76.731 34.7061C76.731 34.8032 76.8097 34.8819 76.9068 34.8819C77.0038 34.8819 77.0826 34.8032 77.0826 34.7061C77.0826 34.609 77.0038 34.5303 76.9068 34.5303Z" fill="#F8F8F8"/>
<path d="M25.8618 42.9199C25.7361 42.9199 25.6343 43.0219 25.6343 43.1475C25.6343 43.2732 25.7361 43.3751 25.8618 43.3751C25.9874 43.3751 26.0893 43.2732 26.0893 43.1475C26.0893 43.0219 25.9874 42.9199 25.8618 42.9199Z" fill="#F8F8F8"/>
<path d="M39.086 78.4121C38.9603 78.4121 38.8584 78.5139 38.8584 78.6396C38.8584 78.7653 38.9603 78.8671 39.086 78.8671C39.2118 78.8671 39.3136 78.7653 39.3136 78.6396C39.3136 78.5139 39.2118 78.4121 39.086 78.4121Z" fill="#F8F8F8"/>
<path d="M17.0015 50.0439C16.8759 50.0439 16.7739 50.1459 16.7739 50.2715C16.7739 50.3972 16.8759 50.4991 17.0015 50.4991C17.1272 50.4991 17.2291 50.3972 17.2291 50.2715C17.2291 50.1459 17.1272 50.0439 17.0015 50.0439Z" fill="#F8F8F8"/>
<path d="M57.8642 38.5513C57.7385 38.5513 57.6367 38.6531 57.6367 38.7788C57.6367 38.9044 57.7385 39.0062 57.8642 39.0062C57.9899 39.0062 58.0917 38.9044 58.0917 38.7788C58.0917 38.6531 57.9899 38.5513 57.8642 38.5513Z" fill="#F8F8F8"/>
<defs>
<linearGradient id="paint0_linear_312_485" x1="73.8522" y1="50.0326" x2="73.9494" y2="1.96691" gradientUnits="userSpaceOnUse">
<stop stop-color="#F4A368"/>
<stop offset="0.5" stop-color="#975576"/>
<stop offset="1" stop-color="#3B0883"/>
</linearGradient>
</defs>
</svg>
