<svg width="301" height="70" viewBox="0 0 301 70" fill="none" xmlns="http://www.w3.org/2000/svg">
<g id="Group 6932">
<rect id="Rectangle 380" width="300.148" height="70" rx="15" fill="url(#paint0_linear_1_1015)"/>
<path id="Vector" d="M192.772 45.4389C192.339 44.8142 191.376 43.1935 191.187 42.4574C191.153 42.3278 191.111 42.2029 191.059 42.085C190.717 41.3082 190.001 40.8969 189.358 41.1063C189.11 41.1873 188.091 40.8427 188.02 40.5914C187.798 39.7982 187.335 39.2047 186.814 39.0443C186.178 38.8479 185.437 39.3181 185.012 40.1899C184.923 40.3735 184.843 40.5741 184.774 40.7871C184.7 41.0158 184.01 41.102 183.828 40.9449C183.345 40.527 182.691 40.5139 182.161 40.911C181.668 41.2809 181.283 41.9977 181.128 42.828C181.109 42.9321 181.093 43.0376 181.081 43.1442C181.028 43.6065 180.085 44.0275 179.635 44.1427C179.202 44.2529 178.845 44.6348 178.656 45.1901C178.467 45.7422 178.473 46.3771 178.675 46.9314C179.015 47.8675 179.71 48.4523 180.8 48.7185C181.554 48.9029 182.331 48.9138 183.082 48.9247C183.221 48.9269 183.36 48.9291 183.499 48.9313C183.61 48.9334 183.707 48.9367 183.796 48.9411C184.412 48.9684 185.027 48.9869 185.627 48.9945C185.885 48.9978 186.142 49 186.398 49C187.329 49 188.251 48.9771 189.149 48.9302C189.371 48.9182 189.597 48.9018 189.815 48.8854C190.137 48.8614 190.47 48.8363 190.797 48.8287C191.348 48.8145 191.841 48.7796 192.289 48.4916C192.676 48.2417 193.195 47.814 193.23 46.9816C193.252 46.4524 193.085 45.8905 192.772 45.4389Z" fill="#93A1ED"/>
<path id="Vector_2" d="M190.351 28.6583C190.321 28.6264 190.291 28.595 190.261 28.5641C189.359 27.6381 187.58 24.7425 186.925 23.6275C186.242 22.4623 184.81 21.8453 183.523 22.1595C183.388 22.1925 183.256 22.2337 183.127 22.2825C182.666 22.4574 181.021 21.8489 180.848 21.3871C180.403 20.1973 179.478 19.307 178.435 19.0664C177.163 18.7718 175.681 19.4772 174.832 20.7848C174.679 21.0199 174.54 21.2736 174.417 21.5415C174.209 21.9934 172.882 22.1875 172.464 21.9173C171.498 21.2905 170.188 21.2709 169.13 21.8666C168.144 22.4214 167.372 23.4966 167.064 24.742C166.846 25.6305 165.165 26.5781 164.256 26.6861C164.197 26.6932 164.137 26.7024 164.076 26.714C163.212 26.8793 162.498 27.4521 162.118 28.2851C161.74 29.1132 161.754 30.0657 162.156 30.8971C162.837 32.3013 164.227 33.1784 166.408 33.5778C167.916 33.8543 169.47 33.8707 170.971 33.8871C171.249 33.8904 171.528 33.8936 171.806 33.8969C172.026 33.9002 172.221 33.9051 172.4 33.9116C173.63 33.9525 174.862 33.9804 176.062 33.9918C176.577 33.9967 177.09 34 177.602 34C179.464 34 181.31 33.9656 183.105 33.8953C183.549 33.8773 184.001 33.8527 184.437 33.8282C185.081 33.7922 185.747 33.7545 186.401 33.7431C187.503 33.7218 188.488 33.6694 189.385 33.2374C190.159 32.8626 191.197 32.2211 191.266 30.9724C191.312 30.1786 190.978 29.3358 190.351 28.6583Z" fill="#93A1ED"/>
<path id="Vector_3" d="M206.038 24.5073C205.943 24.336 205.729 24.2761 205.561 24.3731C204.309 25.0976 202.89 23.7319 203.566 22.4531L204.195 21.2629C204.263 21.1316 204.246 20.9717 204.15 20.8589C204.055 20.7476 203.901 20.7076 203.763 20.759C201.795 21.5098 199.902 22.4804 198.139 23.6452C197.977 23.7522 197.931 23.9735 198.036 24.139C198.141 24.3046 198.358 24.3517 198.52 24.2447C199.985 23.2784 201.501 24.8543 200.681 26.4055L200.031 27.6361C199.957 27.776 199.983 27.9487 200.094 28.06C200.161 28.1271 200.249 28.1614 200.339 28.1614C200.398 28.1614 200.458 28.1457 200.511 28.1143L205.905 24.9912C206.075 24.8956 206.134 24.6786 206.038 24.5073Z" fill="#F7E9BC"/>
<path id="Vector_4" d="M209.996 34.1591C209.921 33.9778 209.715 33.8936 209.537 33.9707C208.567 34.3915 207.704 33.2949 208.141 32.332C208.383 31.7995 208.603 31.2566 208.8 30.7049C208.845 30.5793 208.817 30.4379 208.729 30.3395C208.639 30.241 208.504 30.2024 208.378 30.2381C206.752 30.7034 205.198 31.3943 203.757 32.2921C203.592 32.3949 203.54 32.6147 203.641 32.7831C203.742 32.9516 203.958 33.0044 204.123 32.9016C205.523 32.028 206.873 33.4474 205.967 34.8271C205.86 34.9899 205.751 35.1512 205.639 35.311C205.555 35.4309 205.552 35.5922 205.632 35.7149C205.698 35.8163 205.808 35.8748 205.925 35.8748C205.95 35.8748 205.975 35.872 205.999 35.8662C207.302 35.5765 208.585 35.1583 209.813 34.6259C209.989 34.5502 210.072 34.3404 209.996 34.1591Z" fill="#F7E9BC"/>
<path id="Vector_5" d="M202.291 16.1641C202.205 15.9885 201.993 15.9171 201.821 16.0056C199.498 17.2009 197.188 14.871 198.669 12.7191C198.935 12.3322 199.207 11.9493 199.484 11.5708C199.574 11.448 199.577 11.2796 199.491 11.154C199.406 11.0284 199.25 10.9713 199.106 11.0141C196.698 11.7263 194.441 12.8383 192.398 14.3213C192.242 14.4355 192.204 14.6582 192.316 14.8195C192.428 14.9793 192.646 15.0179 192.804 14.9037C194.38 13.7591 195.966 15.6094 195.059 17.3326C194.544 18.3108 194.061 19.3062 193.612 20.3163C193.551 20.4547 193.581 20.616 193.689 20.7217C193.756 20.7873 193.843 20.8216 193.931 20.8216C193.985 20.8216 194.039 20.8087 194.09 20.783L202.137 16.6422C202.308 16.5552 202.378 16.3396 202.291 16.1641Z" fill="#F7E9BC"/>
<path id="Vector_6" d="M272.746 49.7208C272.584 49.5542 272.417 49.3935 272.247 49.2389C270.03 47.2202 265.831 40.466 264.25 37.9176C262.553 35.1841 259.005 33.7348 255.812 34.4741C255.416 34.5659 255.029 34.6849 254.653 34.8291C253.526 35.2618 249.623 33.7849 249.18 32.6624C248.076 29.8702 245.784 27.783 243.195 27.2162C240.041 26.5246 236.368 28.1821 234.263 31.2461C233.899 31.7757 233.568 32.3452 233.271 32.9458C232.723 34.0575 229.449 34.5519 228.393 33.9037C225.996 32.4335 222.752 32.387 220.127 33.785C217.682 35.0862 215.768 37.6079 215.006 40.53C214.454 42.6458 210.563 44.9328 208.38 45.0606C208.124 45.0756 207.863 45.1065 207.596 45.1547C205.453 45.5416 203.683 46.8857 202.739 48.8406C201.801 50.7845 201.836 53.0186 202.835 54.9699C204.521 58.2653 207.97 60.3218 213.378 61.2583C217.118 61.9058 220.969 61.945 224.693 61.983C225.384 61.9903 226.075 61.9976 226.764 62.0074C227.311 62.016 227.792 62.027 228.238 62.0405C231.29 62.1372 234.345 62.2008 237.318 62.2302C238.594 62.2425 239.868 62.2486 241.138 62.2486C245.758 62.2486 250.333 62.1666 254.785 62.0025C255.886 61.9621 257.005 61.9034 258.088 61.8459C259.685 61.7614 261.336 61.6745 262.958 61.6451C265.69 61.5974 268.133 61.4737 270.354 60.4577C272.274 59.5788 274.847 58.0718 275.019 55.1425C275.13 53.2891 274.301 51.3122 272.746 49.7208Z" fill="#74C7E5"/>
<path id="Vector_7" d="M232.754 45.1536C232.522 45.1806 232.357 45.3948 232.383 45.6298C232.466 46.3655 232.098 47.16 231.487 47.5615C230.877 47.963 230.015 47.9777 229.392 47.597C228.769 47.2163 228.375 46.4353 228.435 45.6972C228.454 45.4609 228.281 45.2528 228.05 45.2332C227.815 45.2124 227.614 45.3899 227.595 45.6262C227.585 45.7469 227.583 45.8679 227.589 45.9883C227.624 46.6674 227.648 47.4409 227.073 47.8051C227.007 47.8467 226.987 47.9349 227.028 48.0022C227.054 48.0463 227.1 48.0695 227.148 48.0695C227.173 48.0695 227.2 48.0622 227.222 48.0475C227.292 48.0031 227.36 47.9553 227.426 47.9045C227.73 47.6712 228.212 47.6992 228.487 47.9653C228.67 48.1427 228.756 48.4212 228.589 48.6135C228.491 48.726 228.376 48.8228 228.248 48.8971C228.181 48.9362 228.156 49.0231 228.195 49.0929C228.22 49.1394 228.268 49.1651 228.317 49.1651C228.341 49.1651 228.364 49.159 228.387 49.1468C228.87 48.8684 229.486 48.6389 230.039 48.7113C230.163 48.7274 230.287 48.7355 230.411 48.7355C230.951 48.7355 231.491 48.5849 231.946 48.285C232.83 47.7035 233.342 46.5981 233.222 45.5319C233.196 45.2956 232.986 45.1267 232.754 45.1536Z" fill="#231F20"/>
<path id="Vector_8" d="M250.61 47.8051C250.036 47.4409 250.06 46.6674 250.094 45.9883C250.1 45.8682 250.099 45.7476 250.089 45.6274C250.07 45.3911 249.869 45.2161 249.634 45.2332C249.402 45.2528 249.229 45.4597 249.248 45.6972C249.307 46.4353 248.913 47.2163 248.291 47.597C247.668 47.9777 246.807 47.963 246.196 47.5615C245.586 47.16 245.217 46.3655 245.3 45.6298C245.327 45.3936 245.161 45.1806 244.929 45.1536C244.699 45.1267 244.489 45.2956 244.462 45.5319C244.342 46.5969 244.855 47.7035 245.739 48.285C246.195 48.5849 246.734 48.7355 247.273 48.7355C247.398 48.7355 247.522 48.7274 247.645 48.7112C248.198 48.6387 248.814 48.8682 249.298 49.1468C249.319 49.159 249.343 49.1651 249.367 49.1651C249.416 49.1651 249.464 49.1394 249.49 49.0929C249.528 49.0244 249.504 48.9362 249.437 48.8971C249.308 48.8231 249.193 48.7262 249.095 48.6132C248.928 48.4211 249.014 48.1436 249.197 47.9667C249.472 47.701 249.956 47.6724 250.259 47.9049C250.325 47.9556 250.393 48.0032 250.463 48.0475C250.486 48.0622 250.513 48.0695 250.538 48.0695C250.585 48.0695 250.63 48.0451 250.658 48.0022C250.695 47.9361 250.676 47.848 250.61 47.8051Z" fill="#231F20"/>
<path id="Vector_9" d="M235.475 55.3358C235.03 54.8278 234.248 54.6564 233.615 54.9306C232.962 55.2121 232.552 55.9295 232.663 56.5991C232.784 57.3348 233.486 57.7339 234.13 57.8024C234.204 57.8098 234.276 57.8147 234.348 57.8147C234.86 57.8147 235.305 57.6163 235.568 57.2626C235.978 56.7117 235.937 55.8658 235.475 55.3358Z" fill="#91D9F2"/>
<path id="Vector_10" d="M229.753 50.6891C229.049 50.2619 228.049 50.23 227.256 50.2411C226.366 50.2533 225.368 50.3769 224.549 50.754C223.932 51.038 223.58 51.6598 223.884 52.3307C224.223 53.0823 225.168 53.3149 225.898 53.4067C227.09 53.556 229.634 53.6368 230.269 52.3135C230.562 51.7002 230.317 51.0319 229.753 50.6891Z" fill="#57B6DC"/>
<path id="Vector_11" d="M254.589 50.6891C253.886 50.2619 252.885 50.23 252.093 50.2411C251.202 50.2533 250.204 50.3769 249.385 50.754C248.768 51.038 248.416 51.6598 248.72 52.3307C249.06 53.0823 250.005 53.3149 250.735 53.4067C251.926 53.556 254.47 53.6368 255.106 52.3135C255.397 51.7002 255.154 51.0319 254.589 50.6891Z" fill="#57B6DC"/>
<path id="Vector_12" d="M205.5 46.9529C203.953 47.6127 202.942 49.389 203.148 51.0856C203.355 52.7823 204.761 54.2537 206.419 54.5071C206.457 54.5132 206.496 54.5157 206.535 54.5157C206.915 54.5157 207.243 54.2268 207.299 53.8448C207.33 53.6367 207.279 53.4286 207.156 53.2585C207.034 53.0895 206.853 52.9781 206.649 52.9475C205.653 52.7945 204.807 51.9107 204.683 50.891C204.559 49.8713 205.166 48.8026 206.096 48.4072C207.026 48.0106 208.198 48.3203 208.823 49.127C208.951 49.2923 209.135 49.3963 209.339 49.4208C209.544 49.4453 209.746 49.3865 209.908 49.2568C210.07 49.1258 210.172 48.9385 210.198 48.7304C210.223 48.5223 210.164 48.3154 210.037 48.1501C208.998 46.8073 207.047 46.2931 205.5 46.9529Z" fill="#57B6DC"/>
<path id="Vector_13" d="M221.682 34.0835C219.606 34.4495 217.706 35.9932 216.723 38.1122C215.877 39.9349 215.676 42.1861 216.155 44.4495C216.231 44.8094 216.548 45.0714 216.91 45.0714C216.965 45.0714 217.02 45.0653 217.073 45.053C217.275 45.009 217.448 44.8865 217.559 44.709C217.671 44.5315 217.71 44.321 217.665 44.1153C217.257 42.1885 217.418 40.296 218.119 38.7842C218.89 37.1218 220.356 35.9148 221.942 35.6345C223.594 35.3444 225.376 36.1731 226.088 37.5638C226.184 37.751 226.345 37.8881 226.542 37.9518C226.739 38.0155 226.949 37.9959 227.132 37.8992C227.51 37.6984 227.658 37.221 227.459 36.8354C226.436 34.8327 224.005 33.6747 221.682 34.0835Z" fill="#57B6DC"/>
<path id="Vector_14" d="M245.496 31.2815C244.87 29.269 242.717 27.811 240.489 27.8943C238.546 27.9653 236.617 29.0878 235.328 30.8971C234.299 32.3416 233.649 34.2108 233.398 36.4534C233.35 36.8856 233.655 37.2773 234.08 37.3262C234.11 37.3299 234.139 37.3311 234.168 37.3311C234.561 37.3311 234.891 37.0312 234.935 36.6322C235.156 34.6637 235.71 33.0454 236.58 31.8225C237.591 30.4025 239.073 29.5224 240.544 29.4697C242.104 29.4122 243.598 30.3964 244.021 31.7564C244.084 31.9572 244.219 32.1224 244.403 32.2191C244.587 32.3158 244.796 32.3342 244.991 32.2706C245.398 32.1396 245.624 31.6964 245.496 31.2815Z" fill="#57B6DC"/>
<path id="Vector_15" d="M264.25 37.9172C265.456 39.8623 265.636 42.3602 264.888 44.4706C264.616 45.2383 265.342 46.4276 266.154 46.4923C266.381 46.5104 266.611 46.4482 266.787 46.3023C270.949 42.8352 273.706 37.5724 274.224 32.012C274.81 25.7309 272.997 19.1854 269.491 14.9303C265.918 10.5932 261.038 7.9809 254.987 7.16563C251.464 6.69066 247.287 7.25744 244.344 8.60644C241.394 9.95911 238.737 12.4355 236.864 15.5791C235.222 18.3334 234.112 21.6423 233.564 25.4114C233.554 25.4763 233.589 25.5387 233.648 25.5644C233.707 25.5901 233.775 25.5705 233.815 25.5191C235.088 23.8127 237.299 22.5494 240.044 21.9593C242.726 21.384 245.44 21.5958 247.691 22.5567C250.164 23.6119 252.155 25.6477 253.018 28.0017C253.95 30.5442 253.55 33.4736 251.999 35.464C251.97 35.502 251.96 35.5522 251.975 35.5975C251.989 35.6427 252.025 35.6782 252.071 35.6917C252.486 35.8107 252.927 35.7079 253.298 35.4866C254.07 35.0258 254.916 34.6786 255.812 34.4712C259.004 33.7355 262.553 35.1837 264.25 37.9172Z" fill="#FFC000"/>
<path id="Vector_16" d="M255.983 20.1844C255.885 19.6861 255.681 19.2259 255.498 18.8341C255.398 18.6199 255.147 18.5281 254.936 18.6309C254.726 18.7338 254.637 18.9896 254.737 19.2038C254.899 19.549 255.078 19.9518 255.157 20.3533C255.211 20.6299 255.243 21.0351 255.078 21.3963C254.872 21.8504 254.36 22.1662 253.805 22.1822C253.285 22.1981 252.72 21.9618 252.26 21.5358C252.087 21.3754 251.821 21.3889 251.664 21.564C251.507 21.7402 251.52 22.012 251.692 22.1711C252.291 22.7269 253.041 23.0415 253.759 23.0415C253.781 23.0415 253.805 23.0415 253.828 23.0403C254.695 23.0158 255.504 22.4992 255.843 21.7562C256.048 21.3057 256.096 20.7622 255.983 20.1844Z" fill="#231F20"/>
<path id="Vector_17" d="M242.006 15.3368C240.757 14.9034 239.306 16.2292 239.499 17.5402C239.576 18.0568 239.858 18.5808 240.245 18.9235C240.972 19.5674 242.173 19.1745 242.772 18.5379C243.667 17.5868 243.225 15.7603 242.006 15.3368Z" fill="#FFEAA3"/>
<path id="Vector_18" d="M250.478 18.0399C250.03 16.9724 248.947 16.6052 247.961 17.0948C247.403 17.3727 246.87 17.8856 246.805 18.5454C246.693 19.6863 247.573 21.0451 248.821 20.635C249.807 20.3094 250.952 19.1685 250.478 18.0399Z" fill="#FFEAA3"/>
<path id="Vector_19" d="M255.184 9.69245C254.999 9.56269 254.797 9.45742 254.588 9.38274C253.699 9.06447 252.728 9.24686 252.116 9.99726C250.914 11.4711 251.92 13.9586 253.942 13.5032C254.778 13.3147 255.779 12.7932 256.056 11.8996C256.328 11.0194 255.877 10.1809 255.184 9.69245Z" fill="#FFEAA3"/>
<path id="Vector_20" d="M268.992 16.5769C268.827 16.0922 268.419 15.7225 267.953 15.5511C266.851 15.1447 265.733 15.8853 265.439 17.0005C265.255 17.697 265.466 18.5343 266.142 18.882C266.949 19.2969 267.904 18.844 268.486 18.2344C268.922 17.7802 269.209 17.2184 268.992 16.5769Z" fill="#FFEAA3"/>
<path id="Vector_21" d="M270.086 23.387C268.531 23.3319 267.086 24.5181 267.211 26.1768C267.213 26.2081 267.219 26.2392 267.22 26.2706C267.226 26.4563 267.268 26.646 267.359 26.8378C267.661 27.4793 268.277 27.9799 268.917 28.2358C270.343 28.8087 271.937 28.2664 272.176 26.6187C272.398 25.0873 271.804 23.447 270.086 23.387Z" fill="#FFEAA3"/>
<path id="Vector_22" d="M260.952 29.3851C260.108 29.2761 259.289 30.0412 258.927 30.7573C258.572 31.4612 258.788 32.323 259.379 32.82C260.299 33.5949 261.707 33.1468 262.243 32.2165C262.944 31.2874 262.29 29.5564 260.952 29.3851Z" fill="#FFEAA3"/>
<path id="Vector_23" d="M270.079 35.43C269.435 34.387 268.248 34.3919 267.34 35.1129C266.654 35.6577 266.209 36.6149 266.54 37.4828C266.851 38.2993 267.705 38.7413 268.531 38.7609C270.345 38.8037 270.922 36.7961 270.079 35.43Z" fill="#FFEAA3"/>
<path id="Vector_24" d="M261.336 19.2795C259.837 19.3407 258.821 20.7081 258.061 21.898C257.865 22.1538 257.722 22.4452 257.692 22.7842C257.64 23.362 257.943 23.8994 258.474 24.1173C259.665 24.607 261.137 23.1845 261.749 22.2909C262.276 21.5209 262.932 19.2147 261.336 19.2795Z" fill="#FFEAA3"/>
<path id="Vector_25" d="M249.482 9.19995C249.352 8.71642 248.754 8.6038 248.409 8.58054C243.181 8.22432 238.45 13.2788 236.269 18.1264C235.912 18.9196 235.658 19.7165 235.515 20.4975L235.506 20.5416C235.419 21.0141 235.32 21.5503 235.284 22.0265C235.27 22.215 235.308 22.3962 235.392 22.5369C235.426 22.5932 235.467 22.6434 235.513 22.6838C235.608 22.7671 235.713 22.8087 235.827 22.8087C235.858 22.8087 235.889 22.805 235.922 22.7989C236.329 22.7193 236.72 22.1464 236.87 21.8551C237.168 21.2761 237.379 20.6481 237.584 20.0421C237.663 19.8071 237.742 19.5721 237.826 19.3395C238.734 16.8276 240.121 14.7796 241.948 13.2531C243.603 11.871 245.649 11.079 247.613 10.429C247.678 10.407 247.772 10.3825 247.882 10.3531C248.374 10.2209 249.198 9.99809 249.435 9.58188C249.501 9.46192 249.518 9.33338 249.482 9.19995Z" fill="#FFF4D1"/>
<path id="Vector_26" d="M250.99 8.03344C250.779 7.90858 250.531 7.91715 250.309 8.00284C250.186 8.05058 250.083 8.11423 250.015 8.2342C249.747 8.70182 250.406 9.33837 250.861 9.22453C251.083 9.16944 251.264 8.99316 251.319 8.76548C251.389 8.47168 251.237 8.18034 250.99 8.03344Z" fill="#FFF4D1"/>
<path id="Vector_27" d="M274.275 31.3851C274.278 31.3485 274.28 31.3117 274.282 31.275C274.293 31.1034 274.111 31.0395 274.053 31.2015C273.06 33.9485 271.533 36.5008 269.576 38.6443C268.733 39.5673 267.82 40.4095 266.867 41.204C267.019 41.0766 266.413 39.5967 266.328 39.3861C266.074 38.7606 265.756 38.162 265.382 37.6013C264.646 36.5008 263.692 35.5497 262.591 34.8323C260.287 33.3303 257.619 33.0634 255.046 33.9375C254.477 34.1306 253.952 34.3786 253.466 34.7263C253.269 34.8668 253.045 34.9655 252.805 34.9985C252.786 35.0012 252.766 35.0039 252.747 35.0066C252.446 35.0493 252.185 35.2268 251.998 35.4664C251.97 35.5044 251.96 35.5546 251.974 35.5998C251.989 35.6451 252.025 35.6806 252.07 35.6941C252.486 35.8131 252.926 35.7103 253.297 35.489C254.07 35.0282 254.916 34.681 255.812 34.4736C259.005 33.7355 262.553 35.1836 264.249 37.9171C265.644 40.1657 265.666 43.1536 264.468 45.428C264.468 45.4283 264.468 45.4283 264.468 45.4287C264.468 45.4295 264.466 45.4301 264.466 45.4309C264.422 45.5137 264.376 45.5953 264.33 45.677C264.326 45.6819 264.324 45.688 264.32 45.6929C264.276 45.7688 264.23 45.8422 264.183 45.9157C264.176 45.9267 264.17 45.9377 264.163 45.9475C264.12 46.0148 264.074 46.0821 264.027 46.1482C264.016 46.1629 264.007 46.1789 263.996 46.1935C263.952 46.2572 263.905 46.3184 263.858 46.3796C263.845 46.3967 263.833 46.4139 263.821 46.4298C263.763 46.5035 263.831 46.6156 263.922 46.5989C264.657 46.4652 265.408 46.4313 266.157 46.4914C266.383 46.5095 266.609 46.4475 266.783 46.3028C270.947 42.8357 273.704 37.5721 274.223 32.0107C274.241 31.8083 274.258 31.6058 274.271 31.4034C274.272 31.3973 274.275 31.3913 274.275 31.3851Z" fill="#EBCE72"/>
<path id="Ops&#195;&#166;t aftenrutine" d="M31.1366 30.18C30.1526 30.18 29.2466 30.018 28.4186 29.694C27.5906 29.37 26.8706 28.92 26.2586 28.344C25.6466 27.756 25.1726 27.072 24.8366 26.292C24.5006 25.5 24.3326 24.636 24.3326 23.7C24.3326 22.764 24.5006 21.906 24.8366 21.126C25.1726 20.334 25.6466 19.65 26.2586 19.074C26.8706 18.486 27.5906 18.03 28.4186 17.706C29.2466 17.382 30.1466 17.22 31.1186 17.22C32.1026 17.22 33.0026 17.382 33.8186 17.706C34.6466 18.03 35.3666 18.486 35.9786 19.074C36.5906 19.65 37.0646 20.334 37.4006 21.126C37.7366 21.906 37.9046 22.764 37.9046 23.7C37.9046 24.636 37.7366 25.5 37.4006 26.292C37.0646 27.084 36.5906 27.768 35.9786 28.344C35.3666 28.92 34.6466 29.37 33.8186 29.694C33.0026 30.018 32.1086 30.18 31.1366 30.18ZM31.1186 28.128C31.7546 28.128 32.3426 28.02 32.8826 27.804C33.4226 27.588 33.8906 27.282 34.2866 26.886C34.6826 26.478 34.9886 26.01 35.2046 25.482C35.4326 24.942 35.5466 24.348 35.5466 23.7C35.5466 23.052 35.4326 22.464 35.2046 21.936C34.9886 21.396 34.6826 20.928 34.2866 20.532C33.8906 20.124 33.4226 19.812 32.8826 19.596C32.3426 19.38 31.7546 19.272 31.1186 19.272C30.4826 19.272 29.8946 19.38 29.3546 19.596C28.8266 19.812 28.3586 20.124 27.9506 20.532C27.5546 20.928 27.2426 21.396 27.0146 21.936C26.7986 22.464 26.6906 23.052 26.6906 23.7C26.6906 24.336 26.7986 24.924 27.0146 25.464C27.2426 26.004 27.5546 26.478 27.9506 26.886C28.3466 27.282 28.8146 27.588 29.3546 27.804C29.8946 28.02 30.4826 28.128 31.1186 28.128ZM45.8569 30.126C45.0769 30.126 44.3629 29.946 43.7149 29.586C43.0789 29.226 42.5689 28.686 42.1849 27.966C41.8129 27.234 41.6269 26.31 41.6269 25.194C41.6269 24.066 41.8069 23.142 42.1669 22.422C42.5389 21.702 43.0429 21.168 43.6789 20.82C44.3149 20.46 45.0409 20.28 45.8569 20.28C46.8049 20.28 47.6389 20.484 48.3589 20.892C49.0909 21.3 49.6669 21.87 50.0869 22.602C50.5189 23.334 50.7349 24.198 50.7349 25.194C50.7349 26.19 50.5189 27.06 50.0869 27.804C49.6669 28.536 49.0909 29.106 48.3589 29.514C47.6389 29.922 46.8049 30.126 45.8569 30.126ZM40.5289 33.492V20.388H42.6709V22.656L42.5989 25.212L42.7789 27.768V33.492H40.5289ZM45.6049 28.2C46.1449 28.2 46.6249 28.08 47.0449 27.84C47.4769 27.6 47.8189 27.252 48.0709 26.796C48.3229 26.34 48.4489 25.806 48.4489 25.194C48.4489 24.57 48.3229 24.036 48.0709 23.592C47.8189 23.136 47.4769 22.788 47.0449 22.548C46.6249 22.308 46.1449 22.188 45.6049 22.188C45.0649 22.188 44.5789 22.308 44.1469 22.548C43.7149 22.788 43.3729 23.136 43.1209 23.592C42.8689 24.036 42.7429 24.57 42.7429 25.194C42.7429 25.806 42.8689 26.34 43.1209 26.796C43.3729 27.252 43.7149 27.6 44.1469 27.84C44.5789 28.08 45.0649 28.2 45.6049 28.2ZM56.1988 30.126C55.3948 30.126 54.6208 30.024 53.8768 29.82C53.1448 29.604 52.5628 29.346 52.1308 29.046L52.9948 27.336C53.4268 27.612 53.9428 27.84 54.5428 28.02C55.1428 28.2 55.7428 28.29 56.3428 28.29C57.0508 28.29 57.5608 28.194 57.8728 28.002C58.1968 27.81 58.3588 27.552 58.3588 27.228C58.3588 26.964 58.2508 26.766 58.0348 26.634C57.8188 26.49 57.5368 26.382 57.1888 26.31C56.8408 26.238 56.4508 26.172 56.0188 26.112C55.5988 26.052 55.1728 25.974 54.7408 25.878C54.3208 25.77 53.9368 25.62 53.5888 25.428C53.2408 25.224 52.9588 24.954 52.7428 24.618C52.5268 24.282 52.4188 23.838 52.4188 23.286C52.4188 22.674 52.5928 22.146 52.9408 21.702C53.2888 21.246 53.7748 20.898 54.3988 20.658C55.0348 20.406 55.7848 20.28 56.6488 20.28C57.2968 20.28 57.9508 20.352 58.6108 20.496C59.2708 20.64 59.8168 20.844 60.2488 21.108L59.3848 22.818C58.9288 22.542 58.4668 22.356 57.9988 22.26C57.5428 22.152 57.0868 22.098 56.6308 22.098C55.9468 22.098 55.4368 22.2 55.1008 22.404C54.7768 22.608 54.6148 22.866 54.6148 23.178C54.6148 23.466 54.7228 23.682 54.9388 23.826C55.1548 23.97 55.4368 24.084 55.7848 24.168C56.1328 24.252 56.5168 24.324 56.9368 24.384C57.3688 24.432 57.7948 24.51 58.2148 24.618C58.6348 24.726 59.0188 24.876 59.3668 25.068C59.7268 25.248 60.0148 25.506 60.2308 25.842C60.4468 26.178 60.5548 26.616 60.5548 27.156C60.5548 27.756 60.3748 28.278 60.0148 28.722C59.6668 29.166 59.1688 29.514 58.5208 29.766C57.8728 30.006 57.0988 30.126 56.1988 30.126ZM66.0564 30.126C64.8324 30.126 63.8784 29.85 63.1944 29.298C62.5104 28.746 62.1684 28.032 62.1684 27.156C62.1684 26.652 62.2944 26.196 62.5464 25.788C62.8104 25.368 63.2364 25.032 63.8244 24.78C64.4124 24.528 65.1924 24.402 66.1644 24.402H68.9364V25.878H66.3264C65.5704 25.878 65.0544 26.004 64.7784 26.256C64.5144 26.496 64.3824 26.784 64.3824 27.12C64.3824 27.552 64.5444 27.888 64.8684 28.128C65.2044 28.368 65.6664 28.488 66.2545 28.488C67.0105 28.488 67.5984 28.296 68.0184 27.912C68.4384 27.516 68.6484 27.006 68.6484 26.382V24.24C68.6484 23.58 68.4504 23.07 68.0544 22.71C67.6585 22.338 67.0645 22.152 66.2724 22.152C65.7204 22.152 65.1804 22.236 64.6524 22.404C64.1364 22.572 63.6984 22.806 63.3384 23.106L62.4564 21.468C62.9724 21.072 63.5844 20.778 64.2924 20.586C65.0124 20.382 65.7504 20.28 66.5065 20.28C67.5984 20.28 68.4804 20.484 69.1524 20.892C69.8245 21.3 70.2805 21.9 70.5204 22.692L69.4585 22.62C69.8545 21.888 70.4185 21.318 71.1505 20.91C71.8945 20.49 72.7344 20.28 73.6705 20.28C74.3665 20.28 75.0085 20.4 75.5964 20.64C76.1965 20.868 76.7185 21.198 77.1625 21.63C77.6065 22.062 77.9485 22.578 78.1884 23.178C78.4405 23.778 78.5665 24.438 78.5665 25.158C78.5665 25.302 78.5605 25.434 78.5485 25.554C78.5485 25.674 78.5365 25.782 78.5124 25.878H70.5204V24.402H77.2165L76.3885 24.888C76.4005 24.264 76.2745 23.748 76.0105 23.34C75.7464 22.932 75.4044 22.62 74.9845 22.404C74.5645 22.188 74.1205 22.08 73.6525 22.08C73.1965 22.08 72.7525 22.188 72.3205 22.404C71.9004 22.62 71.5524 22.938 71.2764 23.358C71.0124 23.778 70.8804 24.306 70.8804 24.942V25.302C70.8804 25.878 71.0124 26.388 71.2764 26.832C71.5404 27.276 71.9064 27.618 72.3744 27.858C72.8544 28.098 73.4125 28.218 74.0485 28.218C74.5885 28.218 75.0684 28.134 75.4885 27.966C75.9085 27.798 76.2985 27.534 76.6585 27.174L77.8825 28.56C77.4385 29.076 76.8805 29.466 76.2085 29.73C75.5485 29.994 74.8105 30.126 73.9945 30.126C73.2505 30.126 72.5485 30.018 71.8885 29.802C71.2405 29.574 70.6705 29.226 70.1784 28.758C69.6864 28.29 69.2964 27.684 69.0085 26.94L70.3584 26.958C70.1904 27.774 69.8784 28.416 69.4225 28.884C68.9785 29.34 68.4564 29.664 67.8564 29.856C67.2684 30.036 66.6684 30.126 66.0564 30.126ZM84.7074 30.126C83.6514 30.126 82.8354 29.856 82.2594 29.316C81.6834 28.764 81.3954 27.954 81.3954 26.886V18.264H83.6454V26.832C83.6454 27.288 83.7594 27.642 83.9874 27.894C84.2274 28.146 84.5574 28.272 84.9774 28.272C85.4814 28.272 85.9014 28.14 86.2374 27.876L86.8674 29.478C86.6034 29.694 86.2794 29.856 85.8954 29.964C85.5114 30.072 85.1154 30.126 84.7074 30.126ZM79.8114 22.26V20.46H86.2194V22.26H79.8114ZM30.9386 49V47.056L30.8126 46.642V43.24C30.8126 42.58 30.6146 42.07 30.2186 41.71C29.8226 41.338 29.2226 41.152 28.4186 41.152C27.8786 41.152 27.3446 41.236 26.8166 41.404C26.3006 41.572 25.8626 41.806 25.5026 42.106L24.6206 40.468C25.1366 40.072 25.7486 39.778 26.4566 39.586C27.1766 39.382 27.9206 39.28 28.6886 39.28C30.0806 39.28 31.1546 39.616 31.9106 40.288C32.6786 40.948 33.0626 41.974 33.0626 43.366V49H30.9386ZM27.9146 49.126C27.1946 49.126 26.5646 49.006 26.0246 48.766C25.4846 48.514 25.0646 48.172 24.7646 47.74C24.4766 47.296 24.3326 46.798 24.3326 46.246C24.3326 45.706 24.4586 45.22 24.7106 44.788C24.9746 44.356 25.4006 44.014 25.9886 43.762C26.5766 43.51 27.3566 43.384 28.3286 43.384H31.1186V44.878H28.4906C27.7226 44.878 27.2066 45.004 26.9426 45.256C26.6786 45.496 26.5466 45.796 26.5466 46.156C26.5466 46.564 26.7086 46.888 27.0326 47.128C27.3566 47.368 27.8066 47.488 28.3826 47.488C28.9346 47.488 29.4266 47.362 29.8586 47.11C30.3026 46.858 30.6206 46.486 30.8126 45.994L31.1906 47.344C30.9746 47.908 30.5846 48.346 30.0206 48.658C29.4686 48.97 28.7666 49.126 27.9146 49.126ZM36.6162 49V38.848C36.6162 37.84 36.9102 37.036 37.4982 36.436C38.0982 35.824 38.9502 35.518 40.0542 35.518C40.4502 35.518 40.8222 35.56 41.1702 35.644C41.5302 35.728 41.8302 35.86 42.0702 36.04L41.4582 37.732C41.2902 37.6 41.0982 37.504 40.8822 37.444C40.6662 37.372 40.4442 37.336 40.2162 37.336C39.7482 37.336 39.3942 37.468 39.1542 37.732C38.9142 37.984 38.7942 38.368 38.7942 38.884V39.964L38.8662 40.972V49H36.6162ZM35.0322 41.26V39.46H41.4402V41.26H35.0322ZM46.9327 49.126C45.8767 49.126 45.0607 48.856 44.4847 48.316C43.9087 47.764 43.6207 46.954 43.6207 45.886V37.264H45.8707V45.832C45.8707 46.288 45.9847 46.642 46.2127 46.894C46.4527 47.146 46.7827 47.272 47.2027 47.272C47.7067 47.272 48.1267 47.14 48.4627 46.876L49.0927 48.478C48.8287 48.694 48.5047 48.856 48.1207 48.964C47.7367 49.072 47.3407 49.126 46.9327 49.126ZM42.0367 41.26V39.46H48.4447V41.26H42.0367ZM55.5052 49.126C54.4372 49.126 53.5012 48.916 52.6972 48.496C51.9052 48.064 51.2872 47.476 50.8432 46.732C50.4112 45.988 50.1952 45.142 50.1952 44.194C50.1952 43.234 50.4052 42.388 50.8252 41.656C51.2572 40.912 51.8452 40.33 52.5892 39.91C53.3452 39.49 54.2032 39.28 55.1632 39.28C56.0992 39.28 56.9332 39.484 57.6652 39.892C58.3972 40.3 58.9732 40.876 59.3932 41.62C59.8132 42.364 60.0232 43.24 60.0232 44.248C60.0232 44.344 60.0172 44.452 60.0052 44.572C60.0052 44.692 59.9992 44.806 59.9872 44.914H51.9772V43.42H58.7992L57.9172 43.888C57.9292 43.336 57.8152 42.85 57.5752 42.43C57.3352 42.01 57.0052 41.68 56.5852 41.44C56.1772 41.2 55.7032 41.08 55.1632 41.08C54.6112 41.08 54.1252 41.2 53.7052 41.44C53.2972 41.68 52.9732 42.016 52.7332 42.448C52.5052 42.868 52.3912 43.366 52.3912 43.942V44.302C52.3912 44.878 52.5232 45.388 52.7872 45.832C53.0512 46.276 53.4232 46.618 53.9032 46.858C54.3832 47.098 54.9352 47.218 55.5592 47.218C56.0992 47.218 56.5852 47.134 57.0172 46.966C57.4492 46.798 57.8332 46.534 58.1692 46.174L59.3752 47.56C58.9432 48.064 58.3972 48.454 57.7372 48.73C57.0892 48.994 56.3452 49.126 55.5052 49.126ZM67.9985 39.28C68.7665 39.28 69.4505 39.43 70.0505 39.73C70.6625 40.03 71.1425 40.492 71.4905 41.116C71.8385 41.728 72.0125 42.52 72.0125 43.492V49H69.7625V43.78C69.7625 42.928 69.5585 42.292 69.1505 41.872C68.7545 41.452 68.1965 41.242 67.4765 41.242C66.9485 41.242 66.4805 41.35 66.0725 41.566C65.6645 41.782 65.3465 42.106 65.1185 42.538C64.9025 42.958 64.7945 43.492 64.7945 44.14V49H62.5445V39.388H64.6865V41.98L64.3085 41.188C64.6445 40.576 65.1305 40.108 65.7665 39.784C66.4145 39.448 67.1585 39.28 67.9985 39.28ZM75.2267 49V39.388H77.3687V42.034L77.1167 41.26C77.4047 40.612 77.8547 40.12 78.4667 39.784C79.0907 39.448 79.8647 39.28 80.7887 39.28V41.422C80.6927 41.398 80.6027 41.386 80.5187 41.386C80.4347 41.374 80.3507 41.368 80.2667 41.368C79.4147 41.368 78.7367 41.62 78.2327 42.124C77.7287 42.616 77.4767 43.354 77.4767 44.338V49H75.2267ZM87.2133 49.126C86.3973 49.126 85.6773 48.976 85.0533 48.676C84.4293 48.364 83.9433 47.896 83.5953 47.272C83.2473 46.636 83.0733 45.838 83.0733 44.878V39.388H85.3233V44.572C85.3233 45.436 85.5153 46.084 85.8993 46.516C86.2953 46.936 86.8533 47.146 87.5733 47.146C88.1013 47.146 88.5573 47.038 88.9413 46.822C89.3373 46.606 89.6433 46.282 89.8593 45.85C90.0873 45.418 90.2013 44.884 90.2013 44.248V39.388H92.4513V49H90.3093V46.408L90.6873 47.2C90.3633 47.824 89.8893 48.304 89.2653 48.64C88.6413 48.964 87.9573 49.126 87.2133 49.126ZM99.3753 49.126C98.3193 49.126 97.5033 48.856 96.9273 48.316C96.3513 47.764 96.0633 46.954 96.0633 45.886V37.264H98.3133V45.832C98.3133 46.288 98.4273 46.642 98.6553 46.894C98.8953 47.146 99.2253 47.272 99.6453 47.272C100.149 47.272 100.569 47.14 100.905 46.876L101.535 48.478C101.271 48.694 100.947 48.856 100.563 48.964C100.179 49.072 99.7833 49.126 99.3753 49.126ZM94.4793 41.26V39.46H100.887V41.26H94.4793ZM103.746 49V39.388H105.996V49H103.746ZM104.88 37.804C104.46 37.804 104.112 37.672 103.836 37.408C103.572 37.144 103.44 36.826 103.44 36.454C103.44 36.07 103.572 35.752 103.836 35.5C104.112 35.236 104.46 35.104 104.88 35.104C105.3 35.104 105.642 35.23 105.906 35.482C106.182 35.722 106.32 36.028 106.32 36.4C106.32 36.796 106.188 37.132 105.924 37.408C105.66 37.672 105.312 37.804 104.88 37.804ZM114.763 39.28C115.531 39.28 116.215 39.43 116.815 39.73C117.427 40.03 117.907 40.492 118.255 41.116C118.603 41.728 118.777 42.52 118.777 43.492V49H116.527V43.78C116.527 42.928 116.323 42.292 115.915 41.872C115.519 41.452 114.961 41.242 114.241 41.242C113.713 41.242 113.245 41.35 112.837 41.566C112.429 41.782 112.111 42.106 111.883 42.538C111.667 42.958 111.559 43.492 111.559 44.14V49H109.309V39.388H111.451V41.98L111.073 41.188C111.409 40.576 111.895 40.108 112.531 39.784C113.179 39.448 113.923 39.28 114.763 39.28ZM126.527 49.126C125.459 49.126 124.523 48.916 123.719 48.496C122.927 48.064 122.309 47.476 121.865 46.732C121.433 45.988 121.217 45.142 121.217 44.194C121.217 43.234 121.427 42.388 121.847 41.656C122.279 40.912 122.867 40.33 123.611 39.91C124.367 39.49 125.225 39.28 126.185 39.28C127.121 39.28 127.955 39.484 128.687 39.892C129.419 40.3 129.995 40.876 130.415 41.62C130.835 42.364 131.045 43.24 131.045 44.248C131.045 44.344 131.039 44.452 131.027 44.572C131.027 44.692 131.021 44.806 131.009 44.914H122.999V43.42H129.821L128.939 43.888C128.951 43.336 128.837 42.85 128.597 42.43C128.357 42.01 128.027 41.68 127.607 41.44C127.199 41.2 126.725 41.08 126.185 41.08C125.633 41.08 125.147 41.2 124.727 41.44C124.319 41.68 123.995 42.016 123.755 42.448C123.527 42.868 123.413 43.366 123.413 43.942V44.302C123.413 44.878 123.545 45.388 123.809 45.832C124.073 46.276 124.445 46.618 124.925 46.858C125.405 47.098 125.957 47.218 126.581 47.218C127.121 47.218 127.607 47.134 128.039 46.966C128.471 46.798 128.855 46.534 129.191 46.174L130.397 47.56C129.965 48.064 129.419 48.454 128.759 48.73C128.111 48.994 127.367 49.126 126.527 49.126Z" fill="white"/>
<path id="XMLID 1665" d="M219.213 4.78811C218.878 4.24515 218.043 4.46069 218.013 5.09763L218.008 5.20817C217.999 5.40383 217.891 5.58128 217.721 5.67879L217.202 5.97649C216.826 6.19216 216.985 6.76655 217.418 6.75947C217.658 6.75554 217.852 6.95379 217.844 7.19386L217.84 7.29926C217.821 7.82744 218.511 8.04327 218.796 7.59838L218.839 7.53154C218.971 7.32583 219.225 7.23406 219.458 7.30761L219.858 7.43408C220.355 7.59066 220.758 7.0168 220.443 6.60266L220.402 6.54767C220.247 6.34397 220.286 6.05332 220.489 5.89797C220.857 5.61719 220.632 5.03038 220.171 5.0665L219.775 5.09757C219.557 5.11461 219.348 5.00848 219.234 4.8227L219.213 4.78811Z" fill="#D6A5D2"/>
<path id="XMLID 1623" d="M229.424 14.78C229.91 14.78 230.304 14.3815 230.304 13.89C230.304 13.3985 229.91 13 229.424 13C228.937 13 228.543 13.3985 228.543 13.89C228.543 14.3815 228.937 14.78 229.424 14.78Z" fill="#7B8CE4"/>
<path id="XMLID 1678" d="M218.92 18.5918C218.795 18.069 218.08 17.9986 217.856 18.4868L217.645 18.9447C217.578 19.0895 217.433 19.1823 217.274 19.1823H217.095C216.731 19.1823 216.598 19.663 216.912 19.8496C217.059 19.9376 217.124 20.1178 217.066 20.2794L217.041 20.3484C216.891 20.7658 217.374 21.1239 217.73 20.8591L217.992 20.664C218.17 20.5315 218.412 20.5268 218.595 20.6522L218.626 20.6733C218.995 20.926 219.486 20.6088 219.407 20.1688L219.387 20.0606C219.361 19.9123 219.432 19.7636 219.564 19.6912C219.893 19.5107 219.747 19.0094 219.372 19.0337L219.333 19.0363C219.159 19.0476 219.001 18.9314 218.961 18.7612L218.92 18.5918Z" fill="#7B8CE4"/>
<path id="XMLID 1603" d="M277.575 9.958C278.11 9.958 278.544 9.51968 278.544 8.979C278.544 8.43831 278.11 8 277.575 8C277.04 8 276.607 8.43831 276.607 8.979C276.607 9.51968 277.04 9.958 277.575 9.958Z" fill="#7B8CE4"/>
<path id="XMLID 1667" d="M281.147 16.7448C280.965 16.1451 280.135 16.0957 279.883 16.6696L279.813 16.8278C279.727 17.0248 279.532 17.152 279.317 17.152H279.043C278.596 17.152 278.415 17.7283 278.783 17.9837L278.815 18.0059C278.98 18.1211 279.038 18.3395 278.95 18.5213C278.773 18.8912 279.187 19.2645 279.536 19.0495L279.941 18.8006C280.141 18.6773 280.401 18.7129 280.561 18.8856L280.61 18.9386C280.925 19.2797 281.492 19.0056 281.42 18.5465C281.392 18.3667 281.47 18.1869 281.621 18.0847L281.764 17.9871C282.097 17.7614 281.965 17.2434 281.565 17.2046C281.392 17.1879 281.246 17.0685 281.195 16.9023L281.147 16.7448Z" fill="#D6A5D2"/>
<path id="XMLID 1634" d="M293.467 27.5929C293.342 27.0699 292.626 26.9993 292.402 27.4878L292.191 27.9447C292.125 28.0895 291.98 28.1823 291.821 28.1823H291.642C291.277 28.1823 291.145 28.663 291.458 28.8497C291.606 28.9376 291.67 29.1177 291.612 29.2794L291.588 29.3484C291.438 29.7662 291.921 30.1244 292.277 29.8592L292.538 29.6643C292.716 29.5316 292.959 29.5268 293.142 29.6523L293.173 29.6733C293.541 29.926 294.032 29.6088 293.953 29.1688L293.934 29.0601C293.907 28.9121 293.978 28.7637 294.11 28.6914C294.438 28.5112 294.292 28.0106 293.919 28.0352L293.88 28.0378C293.705 28.0493 293.548 27.9333 293.507 27.7632L293.467 27.5929Z" fill="#7B8CE4"/>
<path id="XMLID 1650" d="M292.909 18.343C292.658 17.9349 292.03 18.0967 292.007 18.5753L292.003 18.6583C291.997 18.8051 291.915 18.9382 291.788 19.0114L291.398 19.2356C291.116 19.3977 291.235 19.829 291.56 19.8234C291.74 19.8203 291.887 19.9691 291.88 20.1494L291.877 20.2288C291.863 20.6255 292.382 20.7874 292.596 20.4532L292.628 20.4034C292.727 20.2489 292.917 20.18 293.092 20.2351L293.395 20.3305C293.767 20.4479 294.07 20.017 293.834 19.7063L293.803 19.6656C293.686 19.5126 293.715 19.2941 293.868 19.1772C294.144 18.9659 293.975 18.525 293.628 18.5523L293.331 18.5757C293.168 18.5886 293.011 18.5088 292.925 18.3691L292.909 18.343Z" fill="#D6A5D2"/>
</g>
<defs>
<linearGradient id="paint0_linear_1_1015" x1="141.736" y1="-0.625" x2="141.833" y2="65.2856" gradientUnits="userSpaceOnUse">
<stop stop-color="#452C7C"/>
<stop offset="0.0001" stop-color="#4E2E92"/>
<stop offset="1" stop-color="#6934DA" stop-opacity="0.93"/>
</linearGradient>
</defs>
</svg>
