<svg width="364" height="192" viewBox="0 0 364 192" fill="none" xmlns="http://www.w3.org/2000/svg">
<g id="Group 6914">
<g id="Rectangle 235">
<rect id="Rectangle 235_2" width="364" height="192" rx="15" fill="url(#paint0_linear_1_598)"/>
</g>
<path id="Forl&#195;&#184;b: Bedre S&#195;&#184;vn" d="M30.7959 31.196H37.0779V33.176H30.7959V31.196ZM30.9939 38H28.6539V25.4H37.8519V27.362H30.9939V38ZM44.3152 38.126C43.3312 38.126 42.4552 37.916 41.6872 37.496C40.9192 37.064 40.3132 36.476 39.8692 35.732C39.4252 34.988 39.2032 34.142 39.2032 33.194C39.2032 32.234 39.4252 31.388 39.8692 30.656C40.3132 29.912 40.9192 29.33 41.6872 28.91C42.4552 28.49 43.3312 28.28 44.3152 28.28C45.3112 28.28 46.1932 28.49 46.9612 28.91C47.7412 29.33 48.3472 29.906 48.7792 30.638C49.2232 31.37 49.4452 32.222 49.4452 33.194C49.4452 34.142 49.2232 34.988 48.7792 35.732C48.3472 36.476 47.7412 37.064 46.9612 37.496C46.1932 37.916 45.3112 38.126 44.3152 38.126ZM44.3152 36.2C44.8672 36.2 45.3592 36.08 45.7912 35.84C46.2232 35.6 46.5592 35.252 46.7992 34.796C47.0512 34.34 47.1772 33.806 47.1772 33.194C47.1772 32.57 47.0512 32.036 46.7992 31.592C46.5592 31.136 46.2232 30.788 45.7912 30.548C45.3592 30.308 44.8732 30.188 44.3332 30.188C43.7812 30.188 43.2892 30.308 42.8572 30.548C42.4372 30.788 42.1012 31.136 41.8492 31.592C41.5972 32.036 41.4712 32.57 41.4712 33.194C41.4712 33.806 41.5972 34.34 41.8492 34.796C42.1012 35.252 42.4372 35.6 42.8572 35.84C43.2892 36.08 43.7752 36.2 44.3152 36.2ZM51.9567 38V28.388H54.0987V31.034L53.8467 30.26C54.1347 29.612 54.5847 29.12 55.1967 28.784C55.8207 28.448 56.5947 28.28 57.5187 28.28V30.422C57.4227 30.398 57.3327 30.386 57.2487 30.386C57.1647 30.374 57.0807 30.368 56.9967 30.368C56.1447 30.368 55.4667 30.62 54.9627 31.124C54.4587 31.616 54.2067 32.354 54.2067 33.338V38H51.9567ZM59.7874 38V24.644H62.0374V38H59.7874ZM69.6706 38.126C68.6866 38.126 67.8106 37.916 67.0426 37.496C66.2746 37.064 65.6686 36.476 65.2246 35.732C64.7806 34.988 64.5586 34.142 64.5586 33.194C64.5586 32.234 64.7806 31.388 65.2246 30.656C65.6686 29.912 66.2746 29.33 67.0426 28.91C67.8106 28.49 68.6866 28.28 69.6706 28.28C70.6666 28.28 71.5486 28.49 72.3166 28.91C73.0966 29.33 73.7026 29.906 74.1346 30.638C74.5786 31.37 74.8006 32.222 74.8006 33.194C74.8006 34.142 74.5786 34.988 74.1346 35.732C73.7026 36.476 73.0966 37.064 72.3166 37.496C71.5486 37.916 70.6666 38.126 69.6706 38.126ZM69.6706 36.2C70.2226 36.2 70.7146 36.08 71.1466 35.84C71.5786 35.6 71.9146 35.252 72.1546 34.796C72.4066 34.34 72.5326 33.806 72.5326 33.194C72.5326 32.57 72.4066 32.036 72.1546 31.592C71.9146 31.136 71.5786 30.788 71.1466 30.548C70.7146 30.308 70.2286 30.188 69.6886 30.188C69.1366 30.188 68.6446 30.308 68.2126 30.548C67.7926 30.788 67.4566 31.136 67.2046 31.592C66.9526 32.036 66.8266 32.57 66.8266 33.194C66.8266 33.806 66.9526 34.34 67.2046 34.796C67.4566 35.252 67.7926 35.6 68.2126 35.84C68.6446 36.08 69.1306 36.2 69.6706 36.2ZM65.0626 39.278L72.9826 27.182H74.2426L66.3226 39.278H65.0626ZM82.6401 38.126C81.8241 38.126 81.0981 37.946 80.4621 37.586C79.8261 37.226 79.3221 36.686 78.9501 35.966C78.5901 35.234 78.4101 34.31 78.4101 33.194C78.4101 32.066 78.5961 31.142 78.9681 30.422C79.3521 29.702 79.8621 29.168 80.4981 28.82C81.1461 28.46 81.8601 28.28 82.6401 28.28C83.5881 28.28 84.4221 28.484 85.1421 28.892C85.8741 29.3 86.4501 29.87 86.8701 30.602C87.3021 31.334 87.5181 32.198 87.5181 33.194C87.5181 34.19 87.3021 35.054 86.8701 35.786C86.4501 36.518 85.8741 37.094 85.1421 37.514C84.4221 37.922 83.5881 38.126 82.6401 38.126ZM77.3121 38V24.644H79.5621V30.62L79.3821 33.176L79.4541 35.732V38H77.3121ZM82.3881 36.2C82.9281 36.2 83.4081 36.08 83.8281 35.84C84.2601 35.6 84.6021 35.252 84.8541 34.796C85.1061 34.34 85.2321 33.806 85.2321 33.194C85.2321 32.57 85.1061 32.036 84.8541 31.592C84.6021 31.136 84.2601 30.788 83.8281 30.548C83.4081 30.308 82.9281 30.188 82.3881 30.188C81.8481 30.188 81.3621 30.308 80.9301 30.548C80.4981 30.788 80.1561 31.136 79.9041 31.592C79.6521 32.036 79.5261 32.57 79.5261 33.194C79.5261 33.806 79.6521 34.34 79.9041 34.796C80.1561 35.252 80.4981 35.6 80.9301 35.84C81.3621 36.08 81.8481 36.2 82.3881 36.2ZM90.732 31.268C90.324 31.268 89.976 31.13 89.688 30.854C89.4 30.566 89.256 30.206 89.256 29.774C89.256 29.318 89.4 28.958 89.688 28.694C89.976 28.418 90.324 28.28 90.732 28.28C91.14 28.28 91.488 28.418 91.776 28.694C92.064 28.958 92.208 29.318 92.208 29.774C92.208 30.206 92.064 30.566 91.776 30.854C91.488 31.13 91.14 31.268 90.732 31.268ZM90.732 38.126C90.324 38.126 89.976 37.988 89.688 37.712C89.4 37.424 89.256 37.064 89.256 36.632C89.256 36.176 89.4 35.816 89.688 35.552C89.976 35.276 90.324 35.138 90.732 35.138C91.14 35.138 91.488 35.276 91.776 35.552C92.064 35.816 92.208 36.176 92.208 36.632C92.208 37.064 92.064 37.424 91.776 37.712C91.488 37.988 91.14 38.126 90.732 38.126ZM100.317 38V25.4H106.221C107.733 25.4 108.885 25.7 109.677 26.3C110.469 26.888 110.865 27.68 110.865 28.676C110.865 29.348 110.709 29.924 110.397 30.404C110.085 30.872 109.665 31.238 109.137 31.502C108.621 31.754 108.057 31.88 107.445 31.88L107.769 31.232C108.477 31.232 109.113 31.364 109.677 31.628C110.241 31.88 110.685 32.252 111.009 32.744C111.345 33.236 111.513 33.848 111.513 34.58C111.513 35.66 111.099 36.5 110.271 37.1C109.443 37.7 108.213 38 106.581 38H100.317ZM102.657 36.164H106.437C107.313 36.164 107.985 36.02 108.453 35.732C108.921 35.444 109.155 34.982 109.155 34.346C109.155 33.722 108.921 33.266 108.453 32.978C107.985 32.678 107.313 32.528 106.437 32.528H102.477V30.71H105.969C106.785 30.71 107.409 30.566 107.841 30.278C108.285 29.99 108.507 29.558 108.507 28.982C108.507 28.394 108.285 27.956 107.841 27.668C107.409 27.38 106.785 27.236 105.969 27.236H102.657V36.164ZM118.672 38.126C117.604 38.126 116.668 37.916 115.864 37.496C115.072 37.064 114.454 36.476 114.01 35.732C113.578 34.988 113.362 34.142 113.362 33.194C113.362 32.234 113.572 31.388 113.992 30.656C114.424 29.912 115.012 29.33 115.756 28.91C116.512 28.49 117.37 28.28 118.33 28.28C119.266 28.28 120.1 28.484 120.832 28.892C121.564 29.3 122.14 29.876 122.56 30.62C122.98 31.364 123.19 32.24 123.19 33.248C123.19 33.344 123.184 33.452 123.172 33.572C123.172 33.692 123.166 33.806 123.154 33.914H115.144V32.42H121.966L121.084 32.888C121.096 32.336 120.982 31.85 120.742 31.43C120.502 31.01 120.172 30.68 119.752 30.44C119.344 30.2 118.87 30.08 118.33 30.08C117.778 30.08 117.292 30.2 116.872 30.44C116.464 30.68 116.14 31.016 115.9 31.448C115.672 31.868 115.558 32.366 115.558 32.942V33.302C115.558 33.878 115.69 34.388 115.954 34.832C116.218 35.276 116.59 35.618 117.07 35.858C117.55 36.098 118.102 36.218 118.726 36.218C119.266 36.218 119.752 36.134 120.184 35.966C120.616 35.798 121 35.534 121.336 35.174L122.542 36.56C122.11 37.064 121.564 37.454 120.904 37.73C120.256 37.994 119.512 38.126 118.672 38.126ZM129.78 38.126C128.856 38.126 128.022 37.922 127.278 37.514C126.546 37.094 125.97 36.518 125.55 35.786C125.13 35.054 124.92 34.19 124.92 33.194C124.92 32.198 125.13 31.334 125.55 30.602C125.97 29.87 126.546 29.3 127.278 28.892C128.022 28.484 128.856 28.28 129.78 28.28C130.584 28.28 131.304 28.46 131.94 28.82C132.576 29.168 133.08 29.702 133.452 30.422C133.824 31.142 134.01 32.066 134.01 33.194C134.01 34.31 133.83 35.234 133.47 35.966C133.11 36.686 132.612 37.226 131.976 37.586C131.34 37.946 130.608 38.126 129.78 38.126ZM130.05 36.2C130.59 36.2 131.07 36.08 131.49 35.84C131.922 35.6 132.264 35.252 132.516 34.796C132.78 34.34 132.912 33.806 132.912 33.194C132.912 32.57 132.78 32.036 132.516 31.592C132.264 31.136 131.922 30.788 131.49 30.548C131.07 30.308 130.59 30.188 130.05 30.188C129.51 30.188 129.024 30.308 128.592 30.548C128.172 30.788 127.83 31.136 127.566 31.592C127.314 32.036 127.188 32.57 127.188 33.194C127.188 33.806 127.314 34.34 127.566 34.796C127.83 35.252 128.172 35.6 128.592 35.84C129.024 36.08 129.51 36.2 130.05 36.2ZM132.966 38V35.732L133.056 33.176L132.876 30.62V24.644H135.108V38H132.966ZM138.429 38V28.388H140.571V31.034L140.319 30.26C140.607 29.612 141.057 29.12 141.669 28.784C142.293 28.448 143.067 28.28 143.991 28.28V30.422C143.895 30.398 143.805 30.386 143.721 30.386C143.637 30.374 143.553 30.368 143.469 30.368C142.617 30.368 141.939 30.62 141.435 31.124C140.931 31.616 140.679 32.354 140.679 33.338V38H138.429ZM150.69 38.126C149.622 38.126 148.686 37.916 147.882 37.496C147.09 37.064 146.472 36.476 146.028 35.732C145.596 34.988 145.38 34.142 145.38 33.194C145.38 32.234 145.59 31.388 146.01 30.656C146.442 29.912 147.03 29.33 147.774 28.91C148.53 28.49 149.388 28.28 150.348 28.28C151.284 28.28 152.118 28.484 152.85 28.892C153.582 29.3 154.158 29.876 154.578 30.62C154.998 31.364 155.208 32.24 155.208 33.248C155.208 33.344 155.202 33.452 155.19 33.572C155.19 33.692 155.184 33.806 155.172 33.914H147.162V32.42H153.984L153.102 32.888C153.114 32.336 153 31.85 152.76 31.43C152.52 31.01 152.19 30.68 151.77 30.44C151.362 30.2 150.888 30.08 150.348 30.08C149.796 30.08 149.31 30.2 148.89 30.44C148.482 30.68 148.158 31.016 147.918 31.448C147.69 31.868 147.576 32.366 147.576 32.942V33.302C147.576 33.878 147.708 34.388 147.972 34.832C148.236 35.276 148.608 35.618 149.088 35.858C149.568 36.098 150.12 36.218 150.744 36.218C151.284 36.218 151.77 36.134 152.202 35.966C152.634 35.798 153.018 35.534 153.354 35.174L154.56 36.56C154.128 37.064 153.582 37.454 152.922 37.73C152.274 37.994 151.53 38.126 150.69 38.126ZM167.186 38.18C166.202 38.18 165.26 38.042 164.36 37.766C163.46 37.478 162.746 37.112 162.218 36.668L163.028 34.85C163.532 35.246 164.156 35.576 164.9 35.84C165.644 36.104 166.406 36.236 167.186 36.236C167.846 36.236 168.38 36.164 168.788 36.02C169.196 35.876 169.496 35.684 169.688 35.444C169.88 35.192 169.976 34.91 169.976 34.598C169.976 34.214 169.838 33.908 169.562 33.68C169.286 33.44 168.926 33.254 168.482 33.122C168.05 32.978 167.564 32.846 167.024 32.726C166.496 32.606 165.962 32.468 165.422 32.312C164.894 32.144 164.408 31.934 163.964 31.682C163.532 31.418 163.178 31.07 162.902 30.638C162.626 30.206 162.488 29.654 162.488 28.982C162.488 28.298 162.668 27.674 163.028 27.11C163.4 26.534 163.958 26.078 164.702 25.742C165.458 25.394 166.412 25.22 167.564 25.22C168.32 25.22 169.07 25.316 169.814 25.508C170.558 25.7 171.206 25.976 171.758 26.336L171.02 28.154C170.456 27.818 169.874 27.572 169.274 27.416C168.674 27.248 168.098 27.164 167.546 27.164C166.898 27.164 166.37 27.242 165.962 27.398C165.566 27.554 165.272 27.758 165.08 28.01C164.9 28.262 164.81 28.55 164.81 28.874C164.81 29.258 164.942 29.57 165.206 29.81C165.482 30.038 165.836 30.218 166.268 30.35C166.712 30.482 167.204 30.614 167.744 30.746C168.284 30.866 168.818 31.004 169.346 31.16C169.886 31.316 170.372 31.52 170.804 31.772C171.248 32.024 171.602 32.366 171.866 32.798C172.142 33.23 172.28 33.776 172.28 34.436C172.28 35.108 172.094 35.732 171.722 36.308C171.362 36.872 170.804 37.328 170.048 37.676C169.292 38.012 168.338 38.18 167.186 38.18ZM179.064 38.126C178.08 38.126 177.204 37.916 176.436 37.496C175.668 37.064 175.062 36.476 174.618 35.732C174.174 34.988 173.952 34.142 173.952 33.194C173.952 32.234 174.174 31.388 174.618 30.656C175.062 29.912 175.668 29.33 176.436 28.91C177.204 28.49 178.08 28.28 179.064 28.28C180.06 28.28 180.942 28.49 181.71 28.91C182.49 29.33 183.096 29.906 183.528 30.638C183.972 31.37 184.194 32.222 184.194 33.194C184.194 34.142 183.972 34.988 183.528 35.732C183.096 36.476 182.49 37.064 181.71 37.496C180.942 37.916 180.06 38.126 179.064 38.126ZM179.064 36.2C179.616 36.2 180.108 36.08 180.54 35.84C180.972 35.6 181.308 35.252 181.548 34.796C181.8 34.34 181.926 33.806 181.926 33.194C181.926 32.57 181.8 32.036 181.548 31.592C181.308 31.136 180.972 30.788 180.54 30.548C180.108 30.308 179.622 30.188 179.082 30.188C178.53 30.188 178.038 30.308 177.606 30.548C177.186 30.788 176.85 31.136 176.598 31.592C176.346 32.036 176.22 32.57 176.22 33.194C176.22 33.806 176.346 34.34 176.598 34.796C176.85 35.252 177.186 35.6 177.606 35.84C178.038 36.08 178.524 36.2 179.064 36.2ZM174.456 39.278L182.376 27.182H183.636L175.716 39.278H174.456ZM188.998 38L184.876 28.388H187.216L190.762 36.866H189.61L193.282 28.388H195.442L191.32 38H188.998ZM202.662 28.28C203.43 28.28 204.114 28.43 204.714 28.73C205.326 29.03 205.806 29.492 206.154 30.116C206.502 30.728 206.676 31.52 206.676 32.492V38H204.426V32.78C204.426 31.928 204.222 31.292 203.814 30.872C203.418 30.452 202.86 30.242 202.14 30.242C201.612 30.242 201.144 30.35 200.736 30.566C200.328 30.782 200.01 31.106 199.782 31.538C199.566 31.958 199.458 32.492 199.458 33.14V38H197.208V28.388H199.35V30.98L198.972 30.188C199.308 29.576 199.794 29.108 200.43 28.784C201.078 28.448 201.822 28.28 202.662 28.28Z" fill="white"/>
<path id="Dig &#38; din s&#195;&#184;vn" d="M32.3368 67.0581L31.7068 66.4281H34.6328V67.6461H28.3748V66.4281H31.5528L30.9368 67.0581V58.4061L31.5388 59.0641H28.5288V57.8461H32.3368V67.0581ZM37.7575 67.7301C37.4962 67.7301 37.2722 67.6414 37.0855 67.4641C36.8988 67.2774 36.8055 67.0441 36.8055 66.7641C36.8055 66.4841 36.8988 66.2554 37.0855 66.0781C37.2722 65.9008 37.4962 65.8121 37.7575 65.8121C38.0095 65.8121 38.2242 65.9008 38.4015 66.0781C38.5882 66.2554 38.6815 66.4841 38.6815 66.7641C38.6815 67.0441 38.5882 67.2774 38.4015 67.4641C38.2242 67.6414 38.0095 67.7301 37.7575 67.7301ZM45.47 67.6461V57.8461H49.6C50.6453 57.8461 51.5647 58.0514 52.358 58.4621C53.1607 58.8728 53.7813 59.4468 54.22 60.1841C54.668 60.9214 54.892 61.7754 54.892 62.7461C54.892 63.7168 54.668 64.5708 54.22 65.3081C53.7813 66.0454 53.1607 66.6194 52.358 67.0301C51.5647 67.4408 50.6453 67.6461 49.6 67.6461H45.47ZM46.87 66.4281H49.516C50.328 66.4281 51.028 66.2741 51.616 65.9661C52.2133 65.6581 52.6753 65.2288 53.002 64.6781C53.3287 64.1181 53.492 63.4741 53.492 62.7461C53.492 62.0088 53.3287 61.3648 53.002 60.8141C52.6753 60.2634 52.2133 59.8341 51.616 59.5261C51.028 59.2181 50.328 59.0641 49.516 59.0641H46.87V66.4281ZM57.1204 67.6461V60.2261H58.4644V67.6461H57.1204ZM57.7924 58.7981C57.5311 58.7981 57.3117 58.7141 57.1344 58.5461C56.9664 58.3781 56.8824 58.1728 56.8824 57.9301C56.8824 57.6781 56.9664 57.4681 57.1344 57.3001C57.3117 57.1321 57.5311 57.0481 57.7924 57.0481C58.0537 57.0481 58.2684 57.1321 58.4364 57.3001C58.6137 57.4588 58.7024 57.6594 58.7024 57.9021C58.7024 58.1541 58.6184 58.3688 58.4504 58.5461C58.2824 58.7141 58.0631 58.7981 57.7924 58.7981ZM64.5586 70.4461C63.8772 70.4461 63.2146 70.3481 62.5706 70.1521C61.9359 69.9654 61.4179 69.6948 61.0166 69.3401L61.6606 68.3041C62.0059 68.6028 62.4306 68.8361 62.9346 69.0041C63.4386 69.1814 63.9659 69.2701 64.5166 69.2701C65.3939 69.2701 66.0379 69.0648 66.4486 68.6541C66.8592 68.2434 67.0646 67.6181 67.0646 66.7781V65.2101L67.2046 63.7401L67.1346 62.2561V60.2261H68.4086V66.6381C68.4086 67.9448 68.0819 68.9061 67.4286 69.5221C66.7752 70.1381 65.8186 70.4461 64.5586 70.4461ZM64.3906 67.3381C63.6719 67.3381 63.0279 67.1888 62.4586 66.8901C61.8986 66.5821 61.4506 66.1574 61.1146 65.6161C60.7879 65.0748 60.6246 64.4494 60.6246 63.7401C60.6246 63.0214 60.7879 62.3961 61.1146 61.8641C61.4506 61.3228 61.8986 60.9028 62.4586 60.6041C63.0279 60.3054 63.6719 60.1561 64.3906 60.1561C65.0252 60.1561 65.6039 60.2868 66.1266 60.5481C66.6492 60.8001 67.0646 61.1921 67.3726 61.7241C67.6899 62.2561 67.8486 62.9281 67.8486 63.7401C67.8486 64.5428 67.6899 65.2101 67.3726 65.7421C67.0646 66.2741 66.6492 66.6754 66.1266 66.9461C65.6039 67.2074 65.0252 67.3381 64.3906 67.3381ZM64.5446 66.1621C65.0392 66.1621 65.4779 66.0594 65.8606 65.8541C66.2432 65.6488 66.5419 65.3641 66.7566 65.0001C66.9806 64.6361 67.0926 64.2161 67.0926 63.7401C67.0926 63.2641 66.9806 62.8441 66.7566 62.4801C66.5419 62.1161 66.2432 61.8361 65.8606 61.6401C65.4779 61.4348 65.0392 61.3321 64.5446 61.3321C64.0499 61.3321 63.6066 61.4348 63.2146 61.6401C62.8319 61.8361 62.5286 62.1161 62.3046 62.4801C62.0899 62.8441 61.9826 63.2641 61.9826 63.7401C61.9826 64.2161 62.0899 64.6361 62.3046 65.0001C62.5286 65.3641 62.8319 65.6488 63.2146 65.8541C63.6066 66.0594 64.0499 66.1621 64.5446 66.1621ZM78.0823 67.7581C77.4197 67.7581 76.8317 67.6508 76.3183 67.4361C75.805 67.2214 75.399 66.9228 75.1003 66.5401C74.8017 66.1574 74.6523 65.7141 74.6523 65.2101C74.6523 64.7714 74.7503 64.3701 74.9463 64.0061C75.1423 63.6421 75.455 63.2921 75.8843 62.9561C76.3137 62.6108 76.8783 62.2561 77.5783 61.8921C78.1477 61.5934 78.591 61.3321 78.9083 61.1081C79.235 60.8841 79.4637 60.6741 79.5943 60.4781C79.7343 60.2728 79.8043 60.0534 79.8043 59.8201C79.8043 59.5028 79.6923 59.2461 79.4683 59.0501C79.2443 58.8448 78.9223 58.7421 78.5023 58.7421C78.0637 58.7421 77.7183 58.8541 77.4663 59.0781C77.2237 59.2928 77.1023 59.5774 77.1023 59.9321C77.1023 60.1094 77.1303 60.2821 77.1863 60.4501C77.2517 60.6088 77.3637 60.7908 77.5223 60.9961C77.6903 61.1921 77.9283 61.4441 78.2363 61.7521L83.4163 66.9041L82.6603 67.8001L77.1583 62.3261C76.8317 61.9994 76.575 61.7101 76.3883 61.4581C76.2017 61.1968 76.0663 60.9448 75.9823 60.7021C75.8983 60.4594 75.8563 60.2121 75.8563 59.9601C75.8563 59.5214 75.9637 59.1388 76.1783 58.8121C76.4023 58.4761 76.7103 58.2194 77.1023 58.0421C77.5037 57.8554 77.9703 57.7621 78.5023 57.7621C78.997 57.7621 79.4263 57.8461 79.7903 58.0141C80.1543 58.1728 80.4343 58.4061 80.6303 58.7141C80.8357 59.0128 80.9383 59.3768 80.9383 59.8061C80.9383 60.1794 80.845 60.5248 80.6583 60.8421C80.481 61.1594 80.1917 61.4674 79.7903 61.7661C79.389 62.0648 78.8477 62.3868 78.1663 62.7321C77.6063 63.0214 77.1677 63.2921 76.8503 63.5441C76.533 63.7868 76.3043 64.0294 76.1643 64.2721C76.0337 64.5148 75.9683 64.7808 75.9683 65.0701C75.9683 65.3781 76.057 65.6534 76.2343 65.8961C76.421 66.1294 76.6777 66.3114 77.0043 66.4421C77.3403 66.5728 77.7277 66.6381 78.1663 66.6381C78.7917 66.6381 79.3563 66.5028 79.8603 66.2321C80.3643 65.9614 80.7843 65.5554 81.1203 65.0141C81.4657 64.4728 81.7177 63.8008 81.8763 62.9981L82.9543 63.3481C82.7677 64.2908 82.4457 65.0888 81.9883 65.7421C81.5403 66.3954 80.985 66.8948 80.3223 67.2401C79.6597 67.5854 78.913 67.7581 78.0823 67.7581ZM92.2798 67.7301C91.5611 67.7301 90.9171 67.5714 90.3478 67.2541C89.7878 66.9368 89.3444 66.4934 89.0178 65.9241C88.6911 65.3548 88.5278 64.6921 88.5278 63.9361C88.5278 63.1801 88.6911 62.5221 89.0178 61.9621C89.3444 61.3928 89.7878 60.9494 90.3478 60.6321C90.9171 60.3148 91.5611 60.1561 92.2798 60.1561C92.9051 60.1561 93.4698 60.2961 93.9738 60.5761C94.4778 60.8561 94.8791 61.2761 95.1778 61.8361C95.4858 62.3961 95.6398 63.0961 95.6398 63.9361C95.6398 64.7761 95.4904 65.4761 95.1918 66.0361C94.9024 66.5961 94.5058 67.0208 94.0018 67.3101C93.4978 67.5901 92.9238 67.7301 92.2798 67.7301ZM92.3918 66.5541C92.8584 66.5541 93.2784 66.4468 93.6518 66.2321C94.0344 66.0174 94.3331 65.7141 94.5478 65.3221C94.7718 64.9208 94.8838 64.4588 94.8838 63.9361C94.8838 63.4041 94.7718 62.9468 94.5478 62.5641C94.3331 62.1721 94.0344 61.8688 93.6518 61.6541C93.2784 61.4394 92.8584 61.3321 92.3918 61.3321C91.9158 61.3321 91.4911 61.4394 91.1178 61.6541C90.7444 61.8688 90.4458 62.1721 90.2218 62.5641C89.9978 62.9468 89.8858 63.4041 89.8858 63.9361C89.8858 64.4588 89.9978 64.9208 90.2218 65.3221C90.4458 65.7141 90.7444 66.0174 91.1178 66.2321C91.4911 66.4468 91.9158 66.5541 92.3918 66.5541ZM94.9258 67.6461V65.6441L95.0098 63.9221L94.8698 62.2001V57.2581H96.2138V67.6461H94.9258ZM99.0367 67.6461V60.2261H100.381V67.6461H99.0367ZM99.7087 58.7981C99.4474 58.7981 99.2281 58.7141 99.0507 58.5461C98.8827 58.3781 98.7987 58.1728 98.7987 57.9301C98.7987 57.6781 98.8827 57.4681 99.0507 57.3001C99.2281 57.1321 99.4474 57.0481 99.7087 57.0481C99.9701 57.0481 100.185 57.1321 100.353 57.3001C100.53 57.4588 100.619 57.6594 100.619 57.9021C100.619 58.1541 100.535 58.3688 100.367 58.5461C100.199 58.7141 99.9794 58.7981 99.7087 58.7981ZM107.189 60.1561C107.796 60.1561 108.328 60.2728 108.785 60.5061C109.252 60.7394 109.616 61.0941 109.877 61.5701C110.138 62.0461 110.269 62.6481 110.269 63.3761V67.6461H108.925V63.5301C108.925 62.8114 108.748 62.2701 108.393 61.9061C108.048 61.5421 107.558 61.3601 106.923 61.3601C106.447 61.3601 106.032 61.4534 105.677 61.6401C105.322 61.8268 105.047 62.1021 104.851 62.4661C104.664 62.8301 104.571 63.2828 104.571 63.8241V67.6461H103.227V60.2261H104.515V62.2281L104.305 61.6961C104.548 61.2108 104.921 60.8328 105.425 60.5621C105.929 60.2914 106.517 60.1561 107.189 60.1561ZM119.204 67.7301C118.588 67.7301 118 67.6461 117.44 67.4781C116.889 67.3101 116.455 67.1048 116.138 66.8621L116.698 65.7981C117.015 66.0128 117.407 66.1948 117.874 66.3441C118.341 66.4934 118.817 66.5681 119.302 66.5681C119.927 66.5681 120.375 66.4794 120.646 66.3021C120.926 66.1248 121.066 65.8774 121.066 65.5601C121.066 65.3268 120.982 65.1448 120.814 65.0141C120.646 64.8834 120.422 64.7854 120.142 64.7201C119.871 64.6548 119.568 64.5988 119.232 64.5521C118.896 64.4961 118.56 64.4308 118.224 64.3561C117.888 64.2721 117.58 64.1601 117.3 64.0201C117.02 63.8708 116.796 63.6701 116.628 63.4181C116.46 63.1568 116.376 62.8114 116.376 62.3821C116.376 61.9341 116.502 61.5421 116.754 61.2061C117.006 60.8701 117.361 60.6134 117.818 60.4361C118.285 60.2494 118.835 60.1561 119.47 60.1561C119.955 60.1561 120.445 60.2168 120.94 60.3381C121.444 60.4501 121.855 60.6134 122.172 60.8281L121.598 61.8921C121.262 61.6681 120.912 61.5141 120.548 61.4301C120.184 61.3461 119.82 61.3041 119.456 61.3041C118.868 61.3041 118.429 61.4021 118.14 61.5981C117.851 61.7848 117.706 62.0274 117.706 62.3261C117.706 62.5781 117.79 62.7741 117.958 62.9141C118.135 63.0448 118.359 63.1474 118.63 63.2221C118.91 63.2968 119.218 63.3621 119.554 63.4181C119.89 63.4648 120.226 63.5301 120.562 63.6141C120.898 63.6888 121.201 63.7961 121.472 63.9361C121.752 64.0761 121.976 64.2721 122.144 64.5241C122.321 64.7761 122.41 65.1121 122.41 65.5321C122.41 65.9801 122.279 66.3674 122.018 66.6941C121.757 67.0208 121.388 67.2774 120.912 67.4641C120.436 67.6414 119.867 67.7301 119.204 67.7301ZM127.548 67.7301C126.801 67.7301 126.138 67.5668 125.56 67.2401C124.981 66.9134 124.524 66.4654 124.188 65.8961C123.852 65.3174 123.684 64.6641 123.684 63.9361C123.684 63.1988 123.852 62.5454 124.188 61.9761C124.524 61.4068 124.981 60.9634 125.56 60.6461C126.138 60.3194 126.801 60.1561 127.548 60.1561C128.285 60.1561 128.943 60.3194 129.522 60.6461C130.11 60.9634 130.567 61.4068 130.894 61.9761C131.23 62.5361 131.398 63.1894 131.398 63.9361C131.398 64.6734 131.23 65.3268 130.894 65.8961C130.567 66.4654 130.11 66.9134 129.522 67.2401C128.943 67.5668 128.285 67.7301 127.548 67.7301ZM127.548 66.5541C128.024 66.5541 128.448 66.4468 128.822 66.2321C129.204 66.0174 129.503 65.7141 129.718 65.3221C129.932 64.9208 130.04 64.4588 130.04 63.9361C130.04 63.4041 129.932 62.9468 129.718 62.5641C129.503 62.1721 129.204 61.8688 128.822 61.6541C128.448 61.4394 128.024 61.3321 127.548 61.3321C127.072 61.3321 126.647 61.4394 126.274 61.6541C125.9 61.8688 125.602 62.1721 125.378 62.5641C125.154 62.9468 125.042 63.4041 125.042 63.9361C125.042 64.4588 125.154 64.9208 125.378 65.3221C125.602 65.7141 125.9 66.0174 126.274 66.2321C126.647 66.4468 127.072 66.5541 127.548 66.5541ZM124.02 68.6401L130.194 59.2741H131.02L124.86 68.6401H124.02ZM135.277 67.6461L132.029 60.2261H133.429L136.313 66.9461H135.641L138.581 60.2261H139.897L136.649 67.6461H135.277ZM145.394 60.1561C146 60.1561 146.532 60.2728 146.99 60.5061C147.456 60.7394 147.82 61.0941 148.082 61.5701C148.343 62.0461 148.474 62.6481 148.474 63.3761V67.6461H147.13V63.5301C147.13 62.8114 146.952 62.2701 146.598 61.9061C146.252 61.5421 145.762 61.3601 145.128 61.3601C144.652 61.3601 144.236 61.4534 143.882 61.6401C143.527 61.8268 143.252 62.1021 143.056 62.4661C142.869 62.8301 142.776 63.2828 142.776 63.8241V67.6461H141.432V60.2261H142.72V62.2281L142.51 61.6961C142.752 61.2108 143.126 60.8328 143.63 60.5621C144.134 60.2914 144.722 60.1561 145.394 60.1561Z" fill="#F5C371"/>
<g id="Group 6922" clip-path="url(#clip0_1_598)">
<ellipse id="Ellipse 129" cx="213.801" cy="156.406" rx="4.40323" ry="4.88542" fill="#FFC000"/>
<ellipse id="Ellipse 128" cx="192.274" cy="163.385" rx="4.40322" ry="4.88542" fill="#FFC000"/>
<ellipse id="Ellipse 127" cx="174.661" cy="155.01" rx="4.40322" ry="4.88542" fill="#FFC000"/>
<ellipse id="Ellipse 125" cx="98.3384" cy="138.26" rx="4.40323" ry="4.88542" fill="#FFC000"/>
<ellipse id="Ellipse 126" cx="121.822" cy="132.677" rx="4.40322" ry="4.88542" fill="#FFC000"/>
<g id="Ellipse 124" clip-path="url(#clip1_1_598)">
<ellipse id="Ellipse 124_2" cx="55.2846" cy="188.51" rx="12.2312" ry="14.6562" fill="#FED48B"/>
</g>
<ellipse id="Ellipse 126_2" cx="150.199" cy="139.656" rx="12.2312" ry="14.6562" fill="#FFC000"/>
<ellipse id="Ellipse 125_2" cx="77.79" cy="153.615" rx="4.40323" ry="4.88542" fill="#FFC000"/>
</g>
<ellipse id="Ellipse 127_2" cx="249.027" cy="112.885" rx="4.40323" ry="4.88542" fill="#FFC000"/>
<ellipse id="Ellipse 126_3" cx="233.371" cy="134.656" rx="12.2312" ry="14.6562" fill="#FFC000"/>
</g>
<defs>
<linearGradient id="paint0_linear_1_598" x1="182" y1="0" x2="182" y2="192" gradientUnits="userSpaceOnUse">
<stop stop-color="#8952FF" stop-opacity="0.89"/>
<stop offset="1" stop-color="#3E1F94" stop-opacity="0.57"/>
</linearGradient>
<clipPath id="clip0_1_598">
<rect width="175.151" height="67" fill="white" transform="translate(43.0535 125)"/>
</clipPath>
<clipPath id="clip1_1_598">
<rect width="24.4624" height="29.3125" fill="white" transform="translate(43.0535 173.854)"/>
</clipPath>
</defs>
</svg>
